<svg xmlns="http://www.w3.org/2000/svg" viewBox="0 0 347.23 155.41">
<path d="M232.34 19.41a5.79 5.79 0 0 1 3.82 5.05l1 15.44c.21 3.19.31 6.39.31 9.58v51.26a95.91 95.91 0 0 1-1.3 15.78l-2.7 16.16a53.81 53.81 0 0 1-40 0L191 119.06a95.67 95.67 0 0 1-1.5-17.06V49.48q0-4.8.32-9.58l1-15.44a5.79 5.79 0 0 1 3.82-5.05" fill="none" stroke="#070e15" stroke-linecap="round" stroke-linejoin="round" stroke-width="2"></path>
<path d="M240.7 51.08h2.4a5.8 5.8 0 0 0-5.18-3.2h-2.82l-9.67-29a4 4 0 0 0-3.8-2.73h-16.26a4 4 0 0 0-3.8 2.73l-9.67 29h-2.82a5.8 5.8 0 0 0-5.18 3.2h2.4" fill="#fff" stroke="#070e15" stroke-linecap="round" stroke-linejoin="round" stroke-width="2"></path>
<path d="M237.48 47.88h-47.95V102c0 1 0 2.05.06 3.08v.52c0 1 .09 2.08.16 3.12h47.43c.11-1.31.2-2.62.25-3.94.06-1.32.08-2.65.08-4v-51.3c-.01-.54-.03-1.07-.03-1.6z" fill="#070e15" stroke="#070e15" stroke-linecap="round" stroke-linejoin="round" stroke-width="2"></path>
<path d="M229.5 110.28h-32l-2.67 8.55a4 4 0 0 0 2.62 5l.38.1a80.39 80.39 0 0 0 31.37 0 4 4 0 0 0 3.1-4.73c0-.13-.06-.26-.1-.38z" fill="#25c778" stroke="#25c778" stroke-linecap="round" stroke-linejoin="round" stroke-width="2"></path>
<path d="M204.14 37a41.38 41.38 0 0 1 18.72 0" fill="none" stroke="#070e15" stroke-linecap="round" stroke-linejoin="round" stroke-width="2"></path>
<path fill="none" stroke="#fff" stroke-linecap="round" stroke-linejoin="round" stroke-width="2" d="M237.5 68.68h-4.86M194.37 68.68h-4.87"></path>
<path d="M191.91 47.88l1.91 8.7c.4 1.86.77 3.71 1.11 5.58a8 8 0 0 0 7.86 6.52h21.44a8 8 0 0 0 7.86-6.52c.34-1.87.71-3.72 1.11-5.58l1.91-8.7a36.27 36.27 0 0 0-43.2 0z" fill="#25c778" stroke="#25c778" stroke-linecap="round" stroke-linejoin="round" stroke-width="2"></path>
<path d="M227.4 68.68h-27.8a3.2 3.2 0 0 0-3.2 3.2v.36a159.44 159.44 0 0 1 1.08 18.54v17.9h32v-17.9a159.44 159.44 0 0 1 1.08-18.54 3.2 3.2 0 0 0-2.82-3.54z" fill="#fff" stroke="#fff" stroke-linecap="round" stroke-linejoin="round" stroke-width="2"></path>
<path d="M152.87 17.14h-45.6a3.2 3.2 0 0 0-3.2 3.2v20.8h52v-20.8a3.2 3.2 0 0 0-3.2-3.2z" fill="none" stroke="#070e15" stroke-linecap="round" stroke-linejoin="round" stroke-width="2"></path>
<path d="M104.07 41.14v84.8a3.2 3.2 0 0 0 3.2 3.2h45.6a3.2 3.2 0 0 0 3.2-3.2v-84.8z" fill="#070e15" stroke="#070e15" stroke-linecap="round" stroke-linejoin="round" stroke-width="2"></path>
<path d="M110.69 121.14h38.77a3.22 3.22 0 0 1 2.75 1.55l1 1.6a3.2 3.2 0 0 1-1.09 4.39 3.24 3.24 0 0 1-1.66.46h-40.73a3.2 3.2 0 0 1-2.75-4.85l1-1.6a3.2 3.2 0 0 1 2.71-1.55z" fill="#25c778" stroke="#25c778" stroke-linecap="round" stroke-linejoin="round" stroke-width="2"></path>
<rect x="108.87" y="58.74" width="42.4" height="60.8" rx="3.2" fill="#fff" stroke="#fff" stroke-linecap="round" stroke-linejoin="round" stroke-width="2"></rect>
<path fill="none" stroke="#070e15" stroke-linecap="round" stroke-linejoin="round" stroke-width="2" d="M110.47 121.94l-1.6 7.2M149.67 121.94l1.6 7.2"></path>
<rect x="127.27" y="130.74" width="24" height="8" rx="2.4" fill="#070e15" stroke="#070e15" stroke-linecap="round" stroke-linejoin="round" stroke-width="2"></rect>
<path fill="none" stroke="#070e15" stroke-linecap="round" stroke-linejoin="round" stroke-width="2" d="M156.07 57.14h-52M138.61 60.74v57.42M121.54 60.74v57.2"></path>
<path d="M104.07 41.14l8.09-25a3.18 3.18 0 0 1 3-2.21H145a3.2 3.2 0 0 1 3 2.21l8.08 25" fill="#fff" stroke="#070e15" stroke-linecap="round" stroke-linejoin="round" stroke-width="2"></path>
<path fill="none" stroke="#070e15" stroke-linecap="round" stroke-linejoin="round" stroke-width="2" d="M156.07 49.14l5.6.8v2.4M104.07 49.14l-5.6.8v2.4"></path>
<path d="M148.89 57.14h-37.64a3.2 3.2 0 0 1-3.06-2.28l-2.88-9.6a3.21 3.21 0 0 1 3.06-4.12h43.4a3.19 3.19 0 0 1 3.07 4.12l-2.84 9.6a3.2 3.2 0 0 1-3.11 2.28z" fill="#25c778" stroke="#25c778" stroke-linecap="round" stroke-linejoin="round" stroke-width="2"></path>
<path fill="none" stroke="#fff" stroke-linecap="round" stroke-linejoin="round" stroke-width="2" d="M152.87 75.81h3.2M104.07 75.81h3.2M152.87 94.47h3.2M104.07 94.47h3.2"></path>
<path fill="none" stroke="#070e15" stroke-linecap="round" stroke-linejoin="round" stroke-width="2" d="M106.91 45.26h46.33M67.5 100.88h-48v8.22a16 16 0 0 0 1.69 7.15l4.1 8.2a8 8 0 0 0 7.15 4.42h22.12a8 8 0 0 0 7.15-4.42l4.1-8.2a16 16 0 0 0 1.69-7.15M67.5 40.43a32 32 0 0 0-3.38-14.31l-2.41-4.82a8 8 0 0 0-7.15-4.43H32.44a8 8 0 0 0-7.15 4.43l-2.41 4.82a32 32 0 0 0-3.38 14.31v8.44h48z"></path>
<path fill="#070e15" stroke="#070e15" stroke-linecap="round" stroke-linejoin="round" stroke-width="2" d="M19.5 48.87h48v52h-48z"></path>
<path d="M62.25 111.89l-2.75-11a8 8 0 0 1-8 8h-16a8 8 0 0 1-8-8l-2.75 11a8 8 0 0 0 2.76 8.19 25.59 25.59 0 0 0 32 0 8 8 0 0 0 2.74-8.19z" fill="#25c778" stroke="#25c778" stroke-linecap="round" stroke-linejoin="round" stroke-width="2"></path>
<path fill="none" stroke="#070e15" stroke-linecap="round" stroke-linejoin="round" stroke-width="2" d="M27.5 100.88h-8M67.5 100.88h-8"></path>
<path fill="none" stroke="#fff" stroke-linecap="round" stroke-linejoin="round" stroke-width="2" d="M25.9 66.48l-6.4-1.6M67.5 64.88l-6.4 1.6"></path>
<path d="M55.5 24.87l12 24v8l3.29 1a3.17 3.17 0 0 1 2.31 3M31.5 24.87l-12 24v8l-3.29 1a3.17 3.17 0 0 0-2.31 3" fill="none" stroke="#070e15" stroke-linecap="round" stroke-linejoin="round" stroke-width="2"></path>
<path d="M27.5 66.48v34.4a8 8 0 0 0 8 8h16a8 8 0 0 0 8-8v-34.4z" fill="#fff" stroke="#fff" stroke-linecap="round" stroke-linejoin="round" stroke-width="2"></path>
<path d="M27.5 64.87l-6.1-12.21a4.79 4.79 0 0 1 1.6-6.14 36.92 36.92 0 0 1 40.94 0 4.79 4.79 0 0 1 1.63 6.14L59.5 64.87z" fill="#25c778" stroke="#25c778" stroke-linecap="round" stroke-linejoin="round" stroke-width="2"></path>
<path fill="none" stroke="#070e15" stroke-linecap="round" stroke-linejoin="round" stroke-width="2" d="M341 1v140M256 1v140M171 1v140M86 1v140M1 1v140"></path>
<path d="M324.6 69.19l-45.93 14 21.64 71.19 3.09-11.82a46.49 46.49 0 0 0 33.68-10.23l9.15 8.09z" fill="#070e15" stroke="#070e15" stroke-linecap="round" stroke-linejoin="round" stroke-width="2"></path>
<path d="M346.23 140.38a75.94 75.94 0 0 1-45.92 14l-27-88.68a8 8 0 0 1 .6-6.1l2.21-4.13a8 8 0 0 1 4.73-3.89l24.27-7.38a8 8 0 0 1 6.1.6l4.17 2.2a8 8 0 0 1 3.89 4.73" fill="none" stroke="#070e15" stroke-linecap="round" stroke-linejoin="round" stroke-width="2"></path>
<path d="M300.31 154.34l3.09-11.82a46.49 46.49 0 0 0 33.68-10.23l9.15 8.09M276 96.49a3.62 3.62 0 0 1 2-4.36l3-1.32 2.32 7.65 6.13-1.86a42.52 42.52 0 0 1 33.68-10.24l6.12-1.86-2.33-7.65 3.21-.55a3.6 3.6 0 0 1 4.08 2.51M278.67 83.15l4.5-26.45M324.6 69.19l-18.46-19.47" fill="none" stroke="#070e15" stroke-linecap="round" stroke-linejoin="round" stroke-width="2"></path>
<path d="M317.62 64.57a44 44 0 0 0-35.72 10.86 8 8 0 0 0-.82 11l8.37 10.14a42.52 42.52 0 0 1 33.68-10.24l1.3-13.07a8 8 0 0 0-6.81-8.69z" fill="#25c778" stroke="#25c778" stroke-linecap="round" stroke-linejoin="round" stroke-width="2"></path>
<path d="M289.91 98.13l13 42.86a46.6 46.6 0 0 0 33.68-10.22l-13-42.87a42.52 42.52 0 0 0-33.68 10.23zM300.31 154.34c2.22.06 4.44 0 6.65-.13l-3.55-11.69zM340.64 144c1.91-1.12 3.78-2.31 5.59-3.6l-9.15-8.09z" fill="#fff" stroke="#fff" stroke-linecap="round" stroke-linejoin="round" stroke-width="2"></path>
<path d="M327.53 138.3a46.42 46.42 0 0 1-24.13 4.22l3.6 11.69A75.83 75.83 0 0 0 340.64 144l-3.56-11.69a46.16 46.16 0 0 1-9.55 5.99z" fill="#25c778" stroke="#25c778" stroke-linecap="round" stroke-linejoin="round" stroke-width="2"></path>
<path d="M300.31 154.34c2.22.06 4.44 0 6.65-.13M340.64 144c1.91-1.12 3.78-2.31 5.59-3.6" fill="none" stroke="#070e15" stroke-linecap="round" stroke-linejoin="round" stroke-width="2"></path>
<path fill="none" stroke="#fff" stroke-linecap="round" stroke-linejoin="round" stroke-width="2" d="M324.89 86.66l5.52 1.67M288.15 97.83l-3.66 4.46"></path>
<path d="M65.34 6.17L69 3.1M17.06 134.26l-2.51 2.79M229.71 142.63l1.4 3.35M307.57 33.8v-3.63M327.14 41.65l2.26-1.92M119.06 3.73l-1.12-2.6" fill="none" stroke="#070e15" stroke-linecap="round" stroke-linejoin="round" stroke-width="2"></path>
</svg>