<?xml version="1.0" encoding="utf-8"?>
<!-- Generator: Adobe Illustrator 19.0.0, SVG Export Plug-In . SVG Version: 6.00 Build 0)  -->
<svg version="1.1" id="Call" xmlns="http://www.w3.org/2000/svg" xmlns:xlink="http://www.w3.org/1999/xlink" x="0px" y="0px"
	 viewBox="0 0 370 220" style="enable-background:new 0 0 370 220;" xml:space="preserve">
<style type="text/css">
	.st0{display:none;}
	.st1{display:inline;fill:#E9EAEE;}
	.st2{display:inline;fill:none;stroke:#000000;stroke-width:0.9998;stroke-miterlimit:2.6131;}
	.st3{display:inline;fill:none;stroke:#000000;stroke-width:4;stroke-miterlimit:2.6131;}
	.st4{display:inline;fill:#414042;stroke:#000000;stroke-width:0.5;stroke-miterlimit:2.6131;}
	.st5{display:inline;fill:#D1D3D4;}
	.st6{display:inline;fill:#FFFFFF;stroke:#000000;stroke-width:0.9998;stroke-miterlimit:2.6131;}
	.st7{display:inline;fill:#414042;stroke:#000000;stroke-width:0.9998;stroke-miterlimit:2.6131;}
	.st8{display:inline;fill:#EAEAEA;stroke:#000000;stroke-width:0.9998;stroke-miterlimit:2.6131;}
	.st9{display:inline;fill:#02A658;}
	.st10{display:inline;}
	.st11{fill-rule:evenodd;clip-rule:evenodd;fill:#E9EAEE;}
	.st12{fill-rule:evenodd;clip-rule:evenodd;fill:#FFFFFF;stroke:#000000;stroke-width:0.9998;stroke-miterlimit:2.6131;}
	.st13{fill-rule:evenodd;clip-rule:evenodd;fill:none;stroke:#000000;stroke-width:0.9998;stroke-miterlimit:2.6131;}
	.st14{fill-rule:evenodd;clip-rule:evenodd;fill:#FFFFFF;}
	.st15{fill-rule:evenodd;clip-rule:evenodd;fill:#F1F2F3;}
	.st16{fill-rule:evenodd;clip-rule:evenodd;fill:#CED0D0;}
	.st17{fill-rule:evenodd;clip-rule:evenodd;fill:#000001;}
	.st18{fill-rule:evenodd;clip-rule:evenodd;fill:#EAEAEA;stroke:#000000;stroke-width:0.9998;stroke-miterlimit:2.6131;}
	.st19{fill-rule:evenodd;clip-rule:evenodd;fill:#E4E4E4;stroke:#000001;stroke-width:0.9998;stroke-miterlimit:2.6131;}
	.st20{fill-rule:evenodd;clip-rule:evenodd;fill:#CDCCCC;}
	.st21{fill-rule:evenodd;clip-rule:evenodd;fill:#DFDFDE;}
	.st22{fill-rule:evenodd;clip-rule:evenodd;fill:#FFFFFF;stroke:#000001;stroke-width:0.8467;stroke-miterlimit:2.6131;}
	.st23{fill-rule:evenodd;clip-rule:evenodd;fill:#F79E75;}
	.st24{fill-rule:evenodd;clip-rule:evenodd;fill:#45B876;}
	.st25{fill-rule:evenodd;clip-rule:evenodd;fill:#E4E4E4;}
	.st26{fill-rule:evenodd;clip-rule:evenodd;fill:none;stroke:#231F20;stroke-width:4;stroke-miterlimit:2.6131;}
	.st27{fill-rule:evenodd;clip-rule:evenodd;fill:none;stroke:#231F20;stroke-width:0.9998;stroke-miterlimit:2.6131;}
	.st28{fill-rule:evenodd;clip-rule:evenodd;fill:#FFFFFF;stroke:#231F20;stroke-width:0.9998;stroke-miterlimit:2.6131;}
	.st29{fill-rule:evenodd;clip-rule:evenodd;fill:#D0D2D3;stroke:#231F20;stroke-width:0.5;stroke-miterlimit:2.6131;}
	.st30{fill-rule:evenodd;clip-rule:evenodd;fill:#D3D5D7;stroke:#231F20;stroke-width:0.9998;stroke-miterlimit:2.6131;}
	.st31{fill-rule:evenodd;clip-rule:evenodd;fill:none;stroke:#000001;stroke-width:0.9998;stroke-miterlimit:10;}
	.st32{fill-rule:evenodd;clip-rule:evenodd;fill:#B4B4B4;}
	.st33{fill-rule:evenodd;clip-rule:evenodd;fill:#404041;stroke:#231F20;stroke-width:0.9998;stroke-miterlimit:2.6131;}
</style>
<g id="Online" class="st0">
	<path id="XMLID_93_" class="st1" d="M91.5,109c2.1-24,44.3-12.9,39.1-40.3s29.9-20.1,41.2-18.1s29.9,10,55.3-2.7s43.8-3.4,49.8,9
		c5.9,12.4,0.3,55.4-29.4,54.3c-29.7-1.1-68.4,22.3-68.4,22.3S87.6,162.7,91.5,109z"/>
	<path id="XMLID_92_" class="st2" d="M234.9,127c20.8,8.3-18.7,21.8,15.2,18.5c19.9-1.9,24.3,2.8,25.6,20.1l-0.2-0.2"/>
	<line id="XMLID_91_" class="st3" x1="104.7" y1="165.6" x2="110.9" y2="151.9"/>
	<line id="XMLID_90_" class="st3" x1="285.9" y1="165.6" x2="279.7" y2="151.9"/>
	<line id="XMLID_89_" class="st2" x1="293" y1="165" x2="288.4" y2="154.2"/>
	<polygon id="XMLID_88_" class="st2" points="83.6,148.3 301.2,147.9 255.4,137.2 122.4,136.8 	"/>
	<polygon id="XMLID_87_" class="st4" points="83.8,148.5 83.8,154 301.5,154 301.5,148.1 	"/>
	<path id="XMLID_86_" class="st5" d="M129.1,94.5c-8,11.9-2.6,11.9,1.1,17c3.7,5.1-9.7,7.2-4.1,12.7c5.7,5.5,14,1.1,13.9-0.2
		c-0.2-1.3,0.9-3.5-6.6-4.3c-6-0.7,2.5-5.1,3.4-8.8C138.3,103.8,126.9,103.2,129.1,94.5z"/>
	<path id="XMLID_85_" class="st6" d="M132.9,127.8c3.7,0,6.8-0.7,6.8-1.5s-3.1-1.5-6.8-1.5s-6.8,0.7-6.8,1.5
		S129.2,127.8,132.9,127.8z"/>
	<path id="XMLID_84_" class="st7" d="M139.7,127v9.9c0,3.4-2.8,6.3-6.3,6.3h-1.1c-3.4,0-6.3-2.8-6.3-6.3V127
		C131.1,128.2,135.6,128.2,139.7,127z"/>
	<path id="XMLID_83_" class="st7" d="M258.3,127.6l-1.3,10.5c-0.4,3.2-2.6,5.9-5.9,5.9h-1.7c-3.2,0-5.5-2.7-5.9-5.9l-1.3-10.5
		C248,129.8,253.3,129.7,258.3,127.6z"/>
	<path id="XMLID_82_" class="st6" d="M250.2,129.1c4.7,0,8.5-0.7,8.5-1.6s-3.8-1.6-8.5-1.6s-8.5,0.7-8.5,1.6
		C241.8,128.4,245.6,129.1,250.2,129.1z"/>
	<path id="XMLID_81_" class="st6" d="M245.7,94.3c-6.5-1.3-7.5-5.3-8.4-13.4c-0.6-5.2-5.2-4.6-2.4-16.1c0.7-2.7-1.4-8-1.7-11.5
		c-0.8-7.9,5.4-5.6,8.6,0.8l3.8,7.7c1.8,6.4,5.1,12.6,4.4,19.9c-0.4,3.4-0.1,6.4-0.6,9.7C249,93.7,247.8,94.7,245.7,94.3z"/>
	<path id="XMLID_80_" class="st8" d="M261.8,104.1c-3.9-2.7,19.4-33.3,43.7-33.5c0.7,0,3-0.2,3.2,0.1c0.3,0.5-1.1,1.2-1.6,1.6
		c-8.4,7.4-5.8,12.1-9.8,13.1l-5.9,1.5c-2.4,0.6-2.9,3.7-5.3,4.6l-3.2,0.6c-3.1,0.6-2.6,4.9-11.7,5.1
		C266,100.3,263.7,105.4,261.8,104.1z"/>
	<path id="XMLID_79_" class="st6" d="M149.7,82.9h83.2c1.7,0,3,1.4,3,3V134c0,1.7-1.4,3-3,3h-83.2c-1.7,0-3-1.4-3-3V86
		C146.7,84.3,148.1,82.9,149.7,82.9z"/>
	<path id="XMLID_78_" class="st9" d="M151.1,86.8h79.8c0.3,0,0.6,0.3,0.6,0.6V126c0,0.3-0.3,0.6-0.6,0.6h-79.8
		c-0.3,0-0.6-0.3-0.6-0.6V87.3C150.6,87,150.8,86.8,151.1,86.8z"/>
	<line id="XMLID_77_" class="st2" x1="146.7" y1="129.3" x2="235.8" y2="129.3"/>
	<path id="XMLID_76_" class="st8" d="M255.8,104.4c-1.3,1.5-6-1.9-3.6-6.2c3.4-6.1-2.7-13.8,2-22c0.5-0.9,1.1-1.8,3-2.6
		c3.3-1.4,17.5-0.4,16.2,7.3c-0.5,3.2-5.9,4.5-5.5,6.1c1.3,4.6-5.1,6.1-6,9.6c-0.9,3.4-3.4,1.9-4.1,4.8
		C257.4,103.1,256.3,103.8,255.8,104.4z"/>
	<path id="XMLID_75_" class="st8" d="M208.5,70.9c0.1-0.1,0.7,0.3,1,0.5c20.4,9.9,32.5,25,37.3,44.8c-10.4-1.5-17.7-8.2-19.2-20.1
		c-4.6,0-6.7-1.6-9.2-4.3c-2.2-2.4-2.2-5-1.7-7.6c-7-5.3-7.6-5.8-8.2-12.2C208.5,71.7,208.4,71,208.5,70.9z"/>
	<path id="XMLID_74_" class="st2" d="M249.4,125.6c0.1-27.4-3.3-53.6-14-77.5"/>
	<path id="XMLID_73_" class="st2" d="M247.8,126c0-3.8-0.5-7.4-1.2-10.9"/>
	<path id="XMLID_72_" class="st2" d="M251.5,127.1c3.5-27.1,5.1-31.8,15.1-53.4"/>
	<path id="XMLID_71_" class="st2" d="M252.4,127.1c2-10.2,5.1-18.1,9.5-23.2"/>
	<path id="XMLID_70_" class="st6" d="M196.9,117.4l-15.6-0.2l-2.4-9.1c-2.9,0.5-6.2-5.6-1.9-5.7l-0.1-4.8c0-3,0.2-5.7,1.1-7.9
		c1.6-4.2,2.5-7.6,8-8.2c0.3,0,1,1.6,1.3,1.5c0.5-0.1,0-1.7,0.5-1.8c0.5-0.1,1.5-0.3,2-0.3c0.9,0,1.8,0,2.7,0.2
		c1.9,0.4,7.7,0.6,5.7,2.6c-0.5,0.5,0.5,1.1,0.9,1.7c2.1,2.8,3.3,6.9,2.8,12.3l-0.1,4c3.3-0.8,2.1,5.6-1.4,5.9L196.9,117.4z"/>
	<path id="XMLID_69_" class="st10" d="M196.4,114.1c-5.2-2.2-8.1-2.3-13.3-0.2l-5.9-13.1l-0.1-3.1c0-3,0.2-5.7,1.1-7.9
		c1.6-4.2,2.5-7.6,8-8.2c0.3,0,1,1.6,1.3,1.5c0.5-0.1,0-1.7,0.5-1.8c0.5-0.1,1.5-0.3,2-0.3c0.9,0,1.8,0,2.7,0.2
		c1.9,0.4,7.7,0.6,5.7,2.6c-0.5,0.5,0.5,1.1,0.9,1.7c2.1,2.8,3.3,6.9,2.8,12.3l-0.1,3.5C200.5,104.5,198.1,110.7,196.4,114.1z"/>
	<path id="XMLID_68_" class="st6" d="M177.3,121.9l24-0.1c0.2-0.5,0.3-0.6,0-1.7s-1.6-2.7-4.4-3l-14.2-0.2c-2.7,0.1-5,1.7-5.3,2.5
		C177,120.2,176.9,121,177.3,121.9z"/>
	<path id="XMLID_67_" class="st6" d="M154.9,143.9l2.2-10.9c0.2-2.6,1.4-4.8,5-6.3l15.2-5.5h0.3l24.2,0.1l16.5,6.7
		c3,0.9,4.6,2.5,4.5,4.8l1.3,10.9L154.9,143.9z"/>
	<path id="XMLID_66_" class="st2" d="M163.2,136.8c0.2-3.3-0.8-6.1-3.6-8.3"/>
	<path id="XMLID_65_" class="st2" d="M220.1,128.8c-2.8,2.2-3.8,5-3.6,8.3s0,6.2,0,6.2"/>
	<path id="XMLID_64_" class="st8" d="M160.7,142.1h57.9c6,0,11.9,5,11,11l-3.4,23.3c-0.9,6-4.9,11-11,11h-51.1c-6,0-10.1-5-11-11
		l-3.4-23.3C148.8,147.1,154.6,142.1,160.7,142.1z"/>
	<path id="XMLID_63_" class="st8" d="M164.5,147h50.3c5.3,0,10.3,4.9,9.5,10.6l-3,22.6c-0.8,5.8-4.3,10.6-9.5,10.6h-44.4
		c-5.2,0-8.8-4.9-9.5-10.6l-3-22.6C154.2,151.8,159.2,147,164.5,147z"/>
	<line id="XMLID_62_" class="st2" x1="97.6" y1="165" x2="102.2" y2="154.2"/>
</g>
<g>
	<path class="st11" d="M260.8,75.3c-2.1,24-44.3,12.9-39.1,40.3c5.2,27.4-29.9,20.1-41.2,18.1c-11.3-2-29.9-10-55.3,2.7
		s-43.8,3.4-49.8-9C69.5,115,75.1,72,104.8,73.1c29.7,1.1,68.4-22.3,68.4-22.3S264.7,21.6,260.8,75.3z"/>
	<path class="st12" d="M176.7,117.6c3.4-5.2,5.5-11.7,2.6-17.6c-0.3-0.6-0.7-1.3-1.3-1.5c-1.4-0.5-3.2,0-4.4,0.7
		c-4.1,2.4-6.7,7-9,11c-2.4,4.2-4.5,8.6-6.9,12.8c-1,1.7-2,3.4-2.5,5.3c-0.5,1.7-0.5,3.6,0.1,5.2c2.7,7,10.2-1.6,12.5-4.2
		C171,125.7,174,121.7,176.7,117.6z"/>
	<path class="st12" d="M210.8,110.8c1.1-3.9,1.6-8-0.8-10.6c-1.1-1.2-3.1-2.1-4.7-2.7c-3.1-1.2-6.3-2.7-9.7-3.2
		c-3.5-0.5-7.5-0.9-11-0.1c-2.2,0.5-4.3,1.4-6.3,2.4c-2.7,1.3-4.6,2.2-5.5,4.9c-1,3-1.5,6-1.9,9.1c-0.9,9,0.3,18.1,0.3,27.1
		c0,0.9,0,1.8,0.5,2.6c0.9,1.6,3.3,1.6,5,1.6c5.7,0,11.5,0,17.2,0c2.4,0,4.2,0.2,6.4,0.6c1.9,0.3,3.5-0.5,4.4-2
		c0.9-1.4,0.9-3.1,1-4.7c0.4-6.3,1.4-12.5,3.1-18.6C209.3,115.5,210.1,113.2,210.8,110.8z"/>
	<path class="st13" d="M210.8,110.8c1.1-3.9,1.6-8-0.8-10.6c-1.1-1.2-3.1-2.1-4.7-2.7c-3.1-1.2-6.3-2.7-9.7-3.2
		c-3.5-0.5-7.5-0.9-11-0.1c-2.2,0.5-4.3,1.4-6.3,2.4c-2.7,1.3-4.6,2.2-5.5,4.9c-1,3-1.5,6-1.9,9.1c-0.9,9,0.3,18.1,0.3,27.1
		c0,0.9,0,1.8,0.5,2.6c0.9,1.6,3.3,1.6,5,1.6c5.7,0,11.5,0,17.2,0c2.4,0,4.2,0.2,6.4,0.6c1.9,0.3,3.5-0.5,4.4-2
		c0.9-1.4,0.9-3.1,1-4.7c0.4-6.3,1.4-12.5,3.1-18.6C209.3,115.5,210.1,113.2,210.8,110.8z"/>
	<path class="st14" d="M196.9,99.4c0.9-1.4,1.3-3.1,0.8-4.6c-0.7-0.2-1.4-0.3-2.1-0.5c-3.5-0.5-7.5-0.9-11-0.1
		c-0.4,0.1-0.8,0.2-1.2,0.3c-0.4,0.4-0.8,0.9-1.1,1.4c-0.6,1.4-0.4,3.1,0.4,4.4c0.8,1.2,2.1,2.1,3.5,2.4c2.3,0.5,5,0.5,7.2-0.4
		C194.9,101.8,196.1,100.7,196.9,99.4z"/>
	<path class="st13" d="M196.9,99.4c0.9-1.4,1.3-3.1,0.8-4.6 M183.4,94.5c-0.4,0.4-0.8,0.9-1.1,1.4c-0.6,1.4-0.4,3.1,0.4,4.4
		c0.8,1.2,2.1,2.1,3.5,2.4c2.3,0.5,5,0.5,7.2-0.4c1.4-0.6,2.6-1.6,3.4-3"/>
	<path class="st15" d="M173.9,141.5c0.2,0.1,0.4,0.2,0.6,0.3c0.6,0,1.1,0,1.6,0c5.7,0,11.5,0,17.2,0c2.4,0,4.2,0.2,6.4,0.6
		c1.9,0.3,3.5-0.5,4.4-2c0.9-1.4,0.9-3.1,1-4.7c0.4-6.3,1.4-12.5,3.1-18.6c0.3-0.9,0.6-2,1-3.1c-0.1-1-0.4-1.6-1-1.6
		c-0.2,0-0.3,0.1-0.5,0.2c-0.8,0.6-1.2,1.6-1.6,2.5c-1.2,2.9-2.2,7.5-4.7,9.6c-2.6,2.1-5.6,3.1-8.8,4.1c-5.5,1.8-11.6,2.5-16.2,6.2
		c-0.8,0.6-1.5,1.3-2.2,2c-0.6,0.6-1.5,1.2-1.9,2.1C171.8,140.4,172.7,141,173.9,141.5z"/>
	<path class="st16" d="M175.3,76.5c-2.8,2.9-0.3,10.1,4.3,9c4.9-1.1,4.1-8.7-0.3-9.9C177.5,75.1,176.2,75.5,175.3,76.5z"/>
	<g>
		<path class="st17" d="M197.8,85.9c-1.1,1-2.3,1.9-3.8,2.2c-2.8,0.6-5.5-0.6-7.9-2c-2.5-1.5-5-3.1-7.4-4.8
			c-1.7-1.3-3.4-2.6-4.5-4.5c-1.2-2.2-1.3-4.8-1.1-7.2c0.2-1.7-0.6-3.1-0.9-4.7c-0.7-3.1,0-6.7,2.9-8.5c1.5-0.9,3-0.8,4.5-0.1
			c1.2,0.5,2.3,1.2,3.5,1.6c2.6,0.7,5.5-0.3,8.1-0.8c1.9-0.4,3.9-0.6,5.7,0c2,0.7,3,2.2,4.1,3.9c1,1.5,2.4,2.6,3.6,3.9
			c1.5,1.8,2,4,1.5,6.3c-0.8,3.3-2.7,6.2-4.4,9.1C200.7,82.1,199.4,84.3,197.8,85.9z"/>
	</g>
	<g>
		<path class="st17" d="M193.7,85.8c-0.4,0.4-0.8,0.7-1.3,1c-1.2,0.6-2.7,0.6-4,0.2c-1.3-0.4-2.5-1.2-3.6-2c-3.1-2.2-6.8-5-8.7-8.3
			c-1.1-2-2-4.5-0.9-6.7c0.9-1.9,2.8-3.3,4.9-3.5c0.2,0,0.4,0,0.5,0.1c0.2,0.1,0.3,0.3,0.4,0.4c0.8,1.3,1.4,2.7,2.3,3.8
			c1,1.3,2.3,2.2,3.7,3c2.2,1.4,4.7,2.4,6.8,3.9c1.5,1.1,1.6,3.7,1.2,5.4C194.8,84.1,194.4,85,193.7,85.8z"/>
	</g>
	<path class="st18" d="M223,119.3c0.8,1.5,1.7,3,2.5,4.6c1.7,3.1,4.8,10-0.2,11.7c-2.5,0.9-3.9,0-5.6-1.8
		c-6.3-6.9-11.7-14.6-15.9-22.8c-1.6-3.1-5.8-11.1-0.7-12.9c1.6-0.6,3.5-0.4,5,0.4c0.7,0.4,1.3,0.9,1.9,1.4
		c3.7,3.3,6.3,7.4,8.6,11.7C220.1,114.1,221.5,116.7,223,119.3z"/>
	<path class="st19" d="M197.2,130c0.5-0.1,0.9-0.1,1.4-0.2c2.2-0.3,4.4-0.7,6.6-1.2c4.3-0.9,8.6-1.7,13-2.1c0.5,0,0.9-0.1,1.4-0.1
		c2-0.1,4-0.2,5.8,0.7c1.8,0.9,3.2,3.1,2.8,5.2c-0.3,1.5-1.5,2.6-2.7,3.1c-1.3,0.6-2.7,0.7-4.1,0.8c-4.5,0.3-9,0.6-13.4,0.9
		c-2.2,0.1-4.4,0.3-6.7,0.5c-2.1,0.1-4.3,0.4-6.4,0.4c-0.9,0-1.9-0.2-2.7-0.7c-1-0.8-1.7-2.5-1.8-3.9c-0.1-0.7,0.1-1.6,0.6-2
		c0.3-0.2,0.7-0.3,1-0.4C193.8,130.6,195.5,130.3,197.2,130z"/>
	<path class="st20" d="M192.4,100.7c1.6-0.5,2.8-1.5,3.3-3c0.4-1.4-0.3-3-0.4-4.4c-0.1-1.4-0.1-2.7,0-4.1c0.1-1.3,0.2-2.6,0-3.8
		c-0.1-0.7-0.5-0.6-1.2-0.9c-0.7-0.3-1.5-0.3-2.3-0.3c-1.6,0-5.8-0.1-6.8,1.3c-0.5,0.6-0.5,1.5-0.5,2.2c0,0.9-0.2,2.1-0.3,3.4
		c-0.1,0.6,0,1.2-0.1,1.7c-0.1,0.6-0.3,1.3-0.6,1.9c-0.8,2.3-0.1,4.5,2.5,5.6C187.7,101.2,190.3,101.4,192.4,100.7z"/>
	<path class="st21" d="M195.3,85.4c-0.1-0.7-0.5-0.6-1.2-0.9c-0.7-0.3-1.5-0.3-2.3-0.3c-1.6,0-5.8-0.1-6.8,1.3
		c-0.5,0.6-0.5,1.5-0.5,2.2c0,0.9-0.2,2.1-0.3,3.4c-0.1,0.6,0,1.2-0.1,1.7c-0.1,0.5-0.2,1-0.4,1.4c1.6,0.6,3.3,0.7,4.9,0.3
		c2.9-0.7,5.1-2.5,6.7-4.9c0-0.2,0-0.4,0-0.6C195.4,88,195.5,86.7,195.3,85.4z"/>
	<path class="st22" d="M197.6,76.3c0-2.1-0.3-4.2-0.9-5.9c-2.4-7.3-11.5-9.1-16.9-3.9c-6.1,5.8-3.8,19.8,2.7,24.6
		c1.7,1.3,4.1,1.8,6.1,1.2C194.9,90.7,197.7,83,197.6,76.3z"/>
	<path class="st21" d="M196.8,70.4c-2.4-7.3-11.5-9.1-16.9-3.9c-0.7,0.7-1.3,1.4-1.7,2.3c0.3,0.3,0.7,0.5,1,0.7
		c2.3,1.4,4.8,2.4,7.4,3.1c1.1,0.3,2.3,0.5,3.2,1.2c0.5,0.4,0.9,0.9,1.2,1.5c0.4,0.7,0.7,1.5,0.9,2.2c0.6,1.7,0.8,3.4,1,5.1
		c0,0.2,0.1,0.4,0.2,0.5c0.1,0.1,0.3,0.1,0.5,0.1c1,0,1.5-1,2.3-1.5c0.5-0.3,0.9-0.6,1.4-1c0.3-1.5,0.4-3.1,0.4-4.6
		C197.6,74.2,197.3,72.1,196.8,70.4z"/>
	<g>
		<path class="st17" d="M192,75.1c0.3,0.7,0.5,1.5,0.6,2.3c0.3,1.7,0.4,3.5,0.4,5.2c0,0.2,0,0.4,0.1,0.5c0.1,0.1,0.3,0.2,0.5,0.2
			c1,0.1,1.6-0.8,2.5-1.2c0.9-0.4,1.8-0.8,2.5-1.4c2.2-1.7,1.7-4.5,1.6-7c0-1.4-0.1-2.8-0.5-4.1c-0.4-1.4-1.3-2.7-2.3-3.8
			c-2.9-3.2-7.4-4.8-11.7-4.6c-2.1,0.1-4.5,1-6.1,2.6c-1.3,1.3,0.3,3.1,1.4,4c2.1,1.7,4.5,3,6.9,4c1.1,0.4,2.2,0.8,3,1.6
			C191.4,73.9,191.7,74.5,192,75.1z"/>
	</g>
	<path class="st23" d="M196.4,76.5c2.8-1.5,3.7,2.3,3.2,4.3c-0.2,0.8-0.5,1.6-1,2.2c-0.7,0.9-2.6,2.3-3.7,1.4
		c-0.5-0.4-0.5-1.2-0.6-1.8C194.3,80.7,194.5,77.5,196.4,76.5z"/>
	<g>
		<g>
			<path class="st24" d="M187.3,89.2c-0.7,0-1.4-0.1-2.1-0.2l0.1-0.8c2.5,0.4,5,0,7.2-1c0.6-0.3,1.1-0.6,1.6-0.9
				c0.8-0.6,1.5-1.4,2-2.2l0.7,0.4c-0.6,1-1.3,1.8-2.3,2.5c-0.5,0.4-1.1,0.7-1.7,1C191.2,88.8,189.3,89.2,187.3,89.2z"/>
		</g>
	</g>
	<g>
		<g>
			<path class="st24" d="M182.8,87.6c1-0.9,3.3-0.8,4,0.1c0.6,0.7,0.4,1.5-0.2,2.1c-0.7,0.7-1.6,0.6-2.5,0.4
				C183,89.9,181.6,88.6,182.8,87.6z"/>
		</g>
	</g>
	<g>
		<path class="st24" d="M197.6,75.4c-3.9,1-5.5,8.4-1.1,9.9c4.7,1.6,8.1-5.3,5-8.6C200.3,75.4,198.9,75,197.6,75.4z"/>
	</g>
	<path class="st25" d="M198.9,76.3c-2.7,0.4-4.4,6.2-1.6,7.8c3,1.7,5.8-3.4,4.1-6.4C200.7,76.6,199.8,76.2,198.9,76.3z"/>
	<g>
		<g>
			<path class="st24" d="M199.5,75.9l-1.1-0.1c0.7-6.2,0.4-14-5.1-16.6c-2.6-1.2-5-2-9.2-1.2c-0.6-0.1-1.1-0.3-1.1-0.3
				c3.8-1.9,7.9-0.7,10.7,0.6C199.8,61,200.2,69.4,199.5,75.9z"/>
		</g>
	</g>
	<line class="st26" x1="106" y1="165.9" x2="112.1" y2="152.2"/>
	<line class="st26" x1="281.5" y1="165.9" x2="275.3" y2="152.2"/>
	<line class="st27" x1="291.4" y1="165.3" x2="286.9" y2="154.5"/>
	<polygon class="st28" points="82,148.6 299.6,148.1 253.8,137.5 120.8,137.1 	"/>
	<polygon class="st29" points="82.2,148.8 82.2,154.3 299.9,154.3 299.9,148.4 	"/>
	<line class="st27" x1="96" y1="165.3" x2="100.6" y2="154.5"/>
	<g>
		<path class="st30" d="M192.1,136.7c-1.1,0.2-1.9,1.1-2.9,1.5c-0.8,0.2-1.6,0.1-2.3-0.2c-0.7-0.2-1.3-0.4-2-0.6
			c-0.5-0.2-1.2-0.5-1.8-0.4c-1.5,0.3-3,1.4-4.3,2.1c-0.3,0.2-0.6,0.3-1,0.3c-0.3-0.1-0.6-0.5-0.4-0.8c-0.4,0.4-0.9,1.1-1.5,0.8
			c-0.3-0.1-0.4-0.5-0.3-0.7c-0.2,0.2-0.4,0.5-0.7,0.6c-0.3,0.1-0.7,0.1-0.9-0.2c-0.1-0.1-0.1-0.3-0.1-0.4c0-0.5,0.1-1,0.3-1.5
			c1.1-2.3,3.5-4.1,5.5-5.5c0.4-0.2,0.7-0.5,1.2-0.6c0.4-0.1,0.8-0.1,1.2-0.1c2.6,0,5.1,0.4,7.5,1.2c0.5,0.2,1.1,0,1.6-0.1
			c0.4-0.1,0.8-0.1,1.2,0c0.4,0.1,0.7,0.5,1,0.8c0.5,0.7,0.8,1.5,0.8,2.3c0,0.6-0.1,1.3-0.8,1.4c-0.3,0.1-0.6,0-0.9,0.1
			C192.3,136.6,192.2,136.7,192.1,136.7z"/>
		<path class="st31" d="M192.1,136.7c-1.1,0.2-1.9,1.1-2.9,1.5c-0.8,0.2-1.6,0.1-2.3-0.2c-0.7-0.2-1.3-0.4-2-0.6
			c-0.5-0.2-1.2-0.5-1.8-0.4c-1.5,0.3-3,1.4-4.3,2.1c-0.3,0.2-0.6,0.3-1,0.3c-0.3-0.1-0.6-0.5-0.4-0.8c-0.4,0.4-0.9,1.1-1.5,0.8
			c-0.3-0.1-0.4-0.5-0.3-0.7c-0.2,0.2-0.4,0.5-0.7,0.6c-0.3,0.1-0.7,0.1-0.9-0.2c-0.1-0.1-0.1-0.3-0.1-0.4c0-0.5,0.1-1,0.3-1.5
			c1.1-2.3,3.5-4.1,5.5-5.5c0.4-0.2,0.7-0.5,1.2-0.6c0.4-0.1,0.8-0.1,1.2-0.1c2.6,0,5.1,0.4,7.5,1.2c0.5,0.2,1.1,0,1.6-0.1
			c0.4-0.1,0.8-0.1,1.2,0c0.4,0.1,0.7,0.5,1,0.8c0.5,0.7,0.8,1.5,0.8,2.3c0,0.6-0.1,1.3-0.8,1.4c-0.3,0.1-0.6,0-0.9,0.1
			C192.3,136.6,192.2,136.7,192.1,136.7"/>
	</g>
	<rect x="158.7" y="141.1" class="st17" width="28.7" height="2.2"/>
	<path class="st17" d="M105.9,106.9l6.7,33.9c0.2,0.9,1,1.6,1.9,1.6h44.9c1.2,0,2.1-1.1,1.9-2.3l-6.8-34.4c-0.2-0.9-1-1.6-1.9-1.6
		h-44.9c-0.7,0-1.2,0.3-1.6,0.8l0,0L105.9,106.9z"/>
	<g>
		<path class="st24" d="M113.4,143.3h44.9c1.2,0,2.1-1.1,1.9-2.3l-6.8-34.4c-0.2-0.9-1-1.6-1.9-1.6h-44.9c-1.2,0-2.1,1.1-1.9,2.3
			l6.8,34.4C111.7,142.6,112.5,143.3,113.4,143.3z"/>
	</g>
	<path class="st14" d="M127.5,123.3c0.4,2.3,2.6,4.2,5,4.2c2.3,0,3.8-1.9,3.4-4.2c-0.4-2.3-2.7-4.2-5-4.2
		C128.6,119.1,127.1,121,127.5,123.3z"/>
	<g>
		<g>
			<path class="st32" d="M241.5,119.3c0.4-0.8,0.3-1.7,0.1-2.4c-0.2-0.8-0.7-1.5-1.1-2.2c-0.5-0.7-0.9-1.5-1.2-2.5
				c-0.3-1-0.2-2.1,0.1-3c0.6-1.9,1.8-3.3,2.6-4.7c0.4-0.7,0.8-1.5,0.9-2.3c0.2-0.8,0.1-1.7-0.3-2.5c0.7,0.6,1,1.6,1.1,2.5
				c0,0.9-0.2,1.9-0.6,2.8c-0.7,1.7-1.8,3.1-2.2,4.6c-0.2,0.7-0.3,1.5-0.1,2.2c0.1,0.7,0.5,1.5,0.9,2.3c0.4,0.8,0.7,1.7,0.8,2.6
				C242.4,117.6,242.2,118.7,241.5,119.3z"/>
		</g>
		<path class="st28" d="M241,128c3.7,0,6.8-0.7,6.8-1.5c0-0.8-3.1-1.5-6.8-1.5c-3.7,0-6.8,0.7-6.8,1.5
			C234.2,127.3,237.3,128,241,128z"/>
		<path class="st33" d="M247.9,127.2v9.9c0,3.4-2.8,6.3-6.3,6.3h-1.1c-3.4,0-6.3-2.8-6.3-6.3v-9.9
			C239.2,128.4,243.7,128.4,247.9,127.2z"/>
		<g>
			<path class="st32" d="M245.2,123.1c-0.3-0.5-0.2-1.1-0.1-1.6c0.2-0.5,0.4-1,0.8-1.5c0.3-0.5,0.6-1,0.8-1.7c0.2-0.7,0.1-1.4,0-2
				c-0.4-1.3-1.2-2.2-1.7-3.1c-0.3-0.5-0.5-1-0.6-1.5c-0.1-0.5-0.1-1.1,0.2-1.6c-0.5,0.4-0.7,1-0.7,1.7c0,0.6,0.1,1.3,0.4,1.8
				c0.5,1.1,1.2,2.1,1.5,3.1c0.2,0.5,0.2,1,0.1,1.5c-0.1,0.5-0.4,1-0.6,1.5c-0.2,0.5-0.5,1.1-0.5,1.8
				C244.6,122,244.7,122.7,245.2,123.1z"/>
		</g>
		<g>
			<path class="st32" d="M236.6,123.1c-0.3-0.5-0.2-1.1-0.1-1.6c0.2-0.5,0.4-1,0.8-1.5c0.3-0.5,0.6-1,0.8-1.7c0.2-0.7,0.1-1.4,0-2
				c-0.4-1.3-1.2-2.2-1.7-3.1c-0.3-0.5-0.5-1-0.6-1.5c-0.1-0.5-0.1-1.1,0.2-1.6c-0.5,0.4-0.7,1-0.7,1.7c0,0.6,0.1,1.3,0.4,1.8
				c0.5,1.1,1.2,2.1,1.5,3.1c0.2,0.5,0.2,1,0.1,1.5c-0.1,0.5-0.4,1-0.6,1.5c-0.2,0.5-0.5,1.1-0.5,1.8
				C236,122,236.1,122.7,236.6,123.1z"/>
		</g>
		<g>
			<path class="st32" d="M241.7,126.3c0.3-0.3,0.3-0.7,0.1-1c-0.2-0.3-0.6-0.6-0.9-0.9c-0.4-0.3-0.8-0.6-1-1
				c-0.2-0.4-0.2-0.9,0.1-1.3c0.5-0.8,1.5-1.4,2.2-2c0.3-0.3,0.6-0.6,0.7-0.9c0.1-0.3,0.1-0.7-0.2-1c0.6,0.3,0.9,0.7,0.9,1
				c0,0.4-0.2,0.8-0.5,1.2c-0.6,0.7-1.5,1.3-1.9,1.9c-0.2,0.3-0.2,0.6-0.1,0.9c0.1,0.3,0.4,0.6,0.7,1c0.3,0.3,0.6,0.7,0.7,1.1
				C242.5,125.6,242.3,126.1,241.7,126.3z"/>
		</g>
	</g>
</g>
</svg>
