<?xml version="1.0" encoding="utf-8"?>
<!-- Generator: Adobe Illustrator 19.0.0, SVG Export Plug-In . SVG Version: 6.00 Build 0)  -->
<svg version="1.1" id="Layer_1" xmlns="http://www.w3.org/2000/svg" xmlns:xlink="http://www.w3.org/1999/xlink" x="0px" y="0px"
	 viewBox="0 0 173 154" style="enable-background:new 0 0 173 154;" xml:space="preserve">
<style type="text/css">
	
		.st0{fill-rule:evenodd;clip-rule:evenodd;fill:none;stroke:#414042;stroke-width:1.366;stroke-linecap:round;stroke-linejoin:round;stroke-miterlimit:500;}
	.st1{fill-rule:evenodd;clip-rule:evenodd;fill:#02A658;}
	.st2{fill-rule:evenodd;clip-rule:evenodd;fill:none;stroke:#FFFFFF;stroke-width:1.0205;stroke-miterlimit:2.6131;}
	
		.st3{fill-rule:evenodd;clip-rule:evenodd;fill:none;stroke:#414042;stroke-width:1.5304;stroke-linecap:round;stroke-linejoin:round;stroke-miterlimit:2.6131;}
	
		.st4{fill-rule:evenodd;clip-rule:evenodd;fill:none;stroke:#000000;stroke-width:1.4998;stroke-linecap:round;stroke-linejoin:round;stroke-miterlimit:2.6131;}
	
		.st5{fill-rule:evenodd;clip-rule:evenodd;fill:none;stroke:#E6E7E8;stroke-width:3.4999;stroke-linecap:round;stroke-linejoin:round;stroke-miterlimit:2.6131;}
	
		.st6{fill-rule:evenodd;clip-rule:evenodd;fill:none;stroke:#02A658;stroke-width:3.4999;stroke-linecap:round;stroke-linejoin:round;stroke-miterlimit:2.6131;}
</style>
<g id="CompareQuotes">
	<line id="XMLID_15_" class="st0" x1="52.4" y1="123.5" x2="132.3" y2="123.5"/>
	<path id="XMLID_14_" class="st1" d="M59.7,76.2c-0.6,0.4-0.8,0.3-1.3,0c-13.9-9-18-21.1-17.7-34.7c0.1-1.9,1-2.3,2.2-2.8L56.3,33
		c2.6-1.2,2.8-1.1,5.8,0.1l13.6,6c1.3,0.5,1.6,1.3,1.5,3.5C77.6,56.8,71.8,68.1,59.7,76.2z"/>
	<path id="XMLID_13_" class="st2" d="M59.6,72c-0.5,0.4-0.6,0.3-1,0C47.3,64.6,44,54.7,44.3,43.5c0.1-1.6,0.8-1.9,1.8-2.3l10.8-4.7
		c2.1-0.9,2.2-0.9,4.7,0.1l11,4.9c1,0.4,1.3,1.1,1.2,2.9C74,56.1,69.3,65.3,59.6,72z"/>
	<path id="XMLID_10_" class="st3" d="M80.4,46.4h0.4 M80.8,46.4h35.9c3.6,0,6.6,3,6.6,6.6v63.8c0,3.6-3,6.6-6.6,6.6H70.2
		c-3.6,0-6.6-3-6.6-6.6V77.9"/>
	<line id="XMLID_9_" class="st4" x1="95.8" y1="54.3" x2="114.4" y2="54.3"/>
	<line id="XMLID_8_" class="st4" x1="103.3" y1="59.7" x2="114.4" y2="59.7"/>
	<line id="XMLID_7_" class="st5" x1="75.1" y1="83.7" x2="113.2" y2="83.7"/>
	<line id="XMLID_6_" class="st5" x1="75.1" y1="93" x2="113.2" y2="93"/>
	<line id="XMLID_5_" class="st5" x1="75.1" y1="102.4" x2="113.2" y2="102.4"/>
	<line id="XMLID_4_" class="st5" x1="75.1" y1="112.3" x2="100" y2="112.3"/>
	<line id="XMLID_3_" class="st6" x1="75.1" y1="74.1" x2="93.9" y2="74.1"/>
</g>
</svg>
