<svg xmlns="http://www.w3.org/2000/svg" width="19" height="19" viewBox="0 0 19 19"><g><path d="M2.8,15.2a2.8,2.8,0,1,1,0-5.5H4.4c.2,0,.3.2.3.4s-.1.4-.3.4H2.8a2,2,0,0,0-2,2,1.9,1.9,0,0,0,2,1.9.4.4,0,0,1,.4.4A.4.4,0,0,1,2.8,15.2Z" fill="#1c1e1f"></path><path d="M5.9,15.2H4.4c-.3,0-.4-.1-.4-.4a.4.4,0,0,1,.4-.4H5.9a1.9,1.9,0,0,0,2-1.9,2,2,0,0,0-2-2,.4.4,0,0,1,0-.8,2.8,2.8,0,1,1,0,5.5Z" fill="#1c1e1f"></path><path d="M3.2,11.7H2.9a.4.4,0,0,1,0-.6l.9-.9-.9-.9a.4.4,0,0,1,0-.6h.5L4.6,9.8a.4.4,0,0,1,0,.6L3.4,11.6Z" fill="#1c1e1f"></path><path d="M5.5,16.4H5.3L4.1,15.1a.3.3,0,0,1,0-.5l1.2-1.2a.3.3,0,0,1,.5,0,.3.3,0,0,1,0,.5l-.9.9.9,1a.3.3,0,0,1,0,.5Z" fill="#1c1e1f"></path><g><path d="M17,12.9H9.9a.4.4,0,1,1,0-.8H17a1.2,1.2,0,0,0,1.2-1.2V4.6A1.2,1.2,0,0,0,17,3.4H5.9A1.2,1.2,0,0,0,4.7,4.6V7.7c0,.2-.1.4-.3.4A.4.4,0,0,1,4,7.7V4.6a1.9,1.9,0,0,1,1.9-2H17a2,2,0,0,1,2,2v6.3A2,2,0,0,1,17,12.9Z" fill="#1c1e1f"></path><path d="M10.7,9.1H8.3a.4.4,0,0,1,0-.8h2.4a.4.4,0,1,1,0,.8Z" fill="#1c1e1f"></path><path d="M18.4,5.4H4.7A.4.4,0,0,1,4.3,5a.4.4,0,0,1,.4-.4H18.4a.4.4,0,0,1,.4.4A.4.4,0,0,1,18.4,5.4Z" fill="#1c1e1f"></path><path d="M18.4,7.2H4.7a.4.4,0,1,1,0-.8H18.4a.4.4,0,0,1,.4.4A.4.4,0,0,1,18.4,7.2Z" fill="#1c1e1f"></path><path d="M12.3,10.5H9.9a.4.4,0,0,1,0-.8h2.4a.4.4,0,0,1,0,.8Z" fill="#1c1e1f"></path></g></g></svg>