<svg xmlns="http://www.w3.org/2000/svg" width="19" height="19" viewBox="0 0 19 19"><path d="M15.5,13.5c.2,0,.3-.2.3-.4s-.1-.4-.3-.4h-.1c-.2,0-.3.1-.3.4A.4.4,0,0,0,15.5,13.5Zm-6,.4a.9.9,0,0,0,.8-.8.8.8,0,1,0-1.6,0A.9.9,0,0,0,9.5,13.9ZM17,.8H2a2,2,0,0,0-2,2V13.1A1.9,1.9,0,0,0,2,15H7.5q0,2.4-1.2,2.4a.4.4,0,1,0,0,.8h6.4a.4.4,0,0,0,0-.8q-1.2,0-1.2-2.4H17a1.9,1.9,0,0,0,2-1.9V2.8A2,2,0,0,0,17,.8ZM7.8,17.4A4.8,4.8,0,0,0,8.3,15h2.4a4.8,4.8,0,0,0,.5,2.4Zm10.4-4.3A1.1,1.1,0,0,1,17,14.2H2A1.1,1.1,0,0,1,.8,13.1V11.9H18.2Zm0-2H.8V2.8A1.2,1.2,0,0,1,2,1.6H17a1.2,1.2,0,0,1,1.2,1.2Z" fill="#1c1e1f"></path></svg>