<svg xmlns="http://www.w3.org/2000/svg" width="19" height="19" viewBox="0 0 19 19"><path d="M12.3,0H6.7A2.7,2.7,0,0,0,4,2.8V16.2A2.7,2.7,0,0,0,6.7,19h5.6A2.7,2.7,0,0,0,15,16.2V2.8A2.7,2.7,0,0,0,12.3,0Zm2,16.2a2,2,0,0,1-2,2H6.7a2,2,0,0,1-2-2V15h9.6Zm0-2H4.7V4h9.6Zm0-11H4.7V2.8a2,2,0,0,1,2-2h5.6a2,2,0,0,1,2,2ZM9.5,17.4a.8.8,0,0,0,.8-.8.9.9,0,0,0-.8-.8.9.9,0,0,0-.8.8A.8.8,0,0,0,9.5,17.4ZM10.7,1.6H8.3a.4.4,0,0,0-.4.4.4.4,0,0,0,.4.4h2.4a.4.4,0,0,0,.4-.4A.4.4,0,0,0,10.7,1.6Zm1.6,0h0a.4.4,0,0,0-.4.4.4.4,0,0,0,.8,0A.4.4,0,0,0,12.3,1.6Z" fill="#1c1e1f"></path></svg>