<svg xmlns="http://www.w3.org/2000/svg" width="19" height="19" viewBox="0 0 19 19"><path d="M13.9,9.9h-.8a.4.4,0,0,0,0,.8h.8a.4.4,0,1,0,0-.8Zm2.3-1.6H13.5V5.5a.4.4,0,0,0-.4-.4.4.4,0,0,0-.4.4V8.7a.4.4,0,0,0,.4.4h3.1a.4.4,0,0,0,0-.8Zm2.6-2.8a.5.5,0,0,0,.2-.4V4c0-.2,0-.3-.1-.3A3.8,3.8,0,0,0,17,2.8H9.9a.4.4,0,0,0-.4.4V9.4L6.7,3.7a1.8,1.8,0,0,0-1.6-.9H3.2V7.1a.4.4,0,0,1-.4.4.4.4,0,0,1-.4-.4A.4.4,0,0,0,2,6.7a.4.4,0,0,0-.4.4A1.2,1.2,0,0,0,2.8,8.3,1.2,1.2,0,0,0,4,7.1V5.9l1.4,4.8H1.2c-.2,0-.4.1-.4.3L0,14.2a.4.4,0,0,0,.1.3l.3.2H1.6a2,2,0,0,0,2,1.5,1.9,1.9,0,0,0,1.9-1.5h8a1.9,1.9,0,0,0,1.9,1.5,2,2,0,0,0,2-1.6A2,2,0,0,0,19,12.7V9.1l-.2-.4-.6-.2V5.8ZM4.1,3.6h1a1.1,1.1,0,0,1,.9.5l3.3,6.6H6.2ZM3.6,15.4a1.1,1.1,0,0,1-1.2-1.1,1.2,1.2,0,0,1,1.2-1.2,1.2,1.2,0,0,1,1.2,1.2A1.2,1.2,0,0,1,3.6,15.4Zm11.8,0a1.1,1.1,0,0,1-1.1-1.1,1.1,1.1,0,0,1,1.1-1.2,1.2,1.2,0,0,1,1.2,1.2A1.1,1.1,0,0,1,15.4,15.4Zm2.2-6.3.6.2v3.4a1.3,1.3,0,0,1-.8,1.1,2,2,0,0,0-2-1.5,2,2,0,0,0-1.9,1.6h-8a2,2,0,0,0-1.9-1.6,2,2,0,0,0-2,1.6H.9l.6-2.4h8.8V3.6H17a3.1,3.1,0,0,1,1.2.5v.8l-.6.3-.2.3V8.7A.5.5,0,0,0,17.6,9.1Z" fill="#1c1e1f"></path></svg>
