<svg xmlns="http://www.w3.org/2000/svg" viewBox="0 0 180 173" width="180" height="173"><style>tspan { white-space:pre }.shp0 { fill: none;stroke: #0a0d0e;stroke-linecap:round;stroke-linejoin:round;stroke-width: 3 } .shp1 { fill: #03a051;stroke: #03a051;stroke-linecap:round;stroke-linejoin:round;stroke-width: 3 } .shp2 { fill: #ffffff;stroke: #ffffff;stroke-linecap:round;stroke-linejoin:round;stroke-width: 3 } .shp3 { fill: none;stroke: #03a051;stroke-linecap:round;stroke-linejoin:round;stroke-width: 3 } .shp4 { fill: none;stroke: #070e15;stroke-linecap:round;stroke-linejoin:round;stroke-width: 3 } </style><g ><path class="shp0" d="M34.3 12.9L146.8 12.9C161.4 12.9 173.3 24.8 173.4 39.5" /><path class="shp0" d="M173.3 47.7L173.3 68.3C173.3 72.1 172.5 75.9 170.9 79.4C166.6 88.8 157.2 94.8 146.8 94.8L28.3 94.8L23.7 94.7C23.3 94.7 22.9 94.8 22.6 95.1L4.6 111.1C3.9 111.7 2.9 111.6 2.3 111C2 110.7 1.9 110.3 1.9 110L1.7 49.9L1.8 39.5C1.8 24.8 13.7 12.9 28.3 12.9" /><path class="shp1" d="M158.6 160L171.6 171.2L171.1 132.7L171 132.7L170.9 126.4C170.7 117.6 163.5 110.5 154.6 110.6L65.6 110.7C56.8 111 49.8 118.3 49.9 127.1L50.2 144.5C50.4 153.3 57.6 160.4 66.4 160.3L155.3 160L158.6 160Z" /><path class="shp2" d="M94.8 138.4C93.25 138.4 92 137.15 92 135.6C92 134.05 93.25 132.8 94.8 132.8C96.35 132.8 97.6 134.05 97.6 135.6C97.6 137.15 96.35 138.4 94.8 138.4Z" /><path class="shp2" d="M110.4 138.1C108.85 138.1 107.6 136.85 107.6 135.3C107.6 133.75 108.85 132.5 110.4 132.5C111.95 132.5 113.2 133.75 113.2 135.3C113.2 136.85 111.95 138.1 110.4 138.1Z" /><path class="shp2" d="M126.1 137.9C124.55 137.9 123.3 136.65 123.3 135.1C123.3 133.55 124.55 132.3 126.1 132.3C127.65 132.3 128.9 133.55 128.9 135.1C128.9 136.65 127.65 137.9 126.1 137.9Z" /><path class="shp3" d="M37.9 41.4L141.5 41.4" /><path class="shp3" d="M37.9 55.9L141.5 55.9" /><path class="shp3" d="M37.9 70.4L82.7 70.4" /><path class="shp4" d="M50.7 164.7L47.7 169.9" /><path class="shp4" d="M41.8 158.4L36 160" /><path class="shp4" d="M162.8 8.1L164 2.2" /><path class="shp4" d="M173.2 11.3L178.2 7.9" /></g></svg>