<?xml version="1.0" encoding="utf-8"?>
<!-- Generator: Adobe Illustrator 19.0.0, SVG Export Plug-In . SVG Version: 6.00 Build 0)  -->
<svg version="1.1" id="Layer_1" xmlns="http://www.w3.org/2000/svg" xmlns:xlink="http://www.w3.org/1999/xlink" x="0px" y="0px"
	 viewBox="0 0 370 220" style="enable-background:new 0 0 370 220;" xml:space="preserve">
<style type="text/css">
	.st0{fill-rule:evenodd;clip-rule:evenodd;fill:#DDDDDC;}
	.st1{fill-rule:evenodd;clip-rule:evenodd;fill:#46B976;}
	
		.st2{fill-rule:evenodd;clip-rule:evenodd;fill:none;stroke:#414042;stroke-width:1.4998;stroke-linecap:round;stroke-miterlimit:10;}
	.st3{fill-rule:evenodd;clip-rule:evenodd;fill:#414042;}
	.st4{fill-rule:evenodd;clip-rule:evenodd;fill:none;stroke:#DDDDDC;stroke-width:2.7249;stroke-miterlimit:10;}
	.st5{fill-rule:evenodd;clip-rule:evenodd;fill:none;stroke:#414042;stroke-width:1.4998;stroke-miterlimit:10;}
	.st6{fill-rule:evenodd;clip-rule:evenodd;fill:none;stroke:#394550;stroke-width:2.7249;stroke-miterlimit:10;}
	.st7{fill-rule:evenodd;clip-rule:evenodd;fill:#02A658;}
	
		.st8{fill-rule:evenodd;clip-rule:evenodd;fill:none;stroke:#414042;stroke-width:1.9998;stroke-linecap:round;stroke-miterlimit:10;}
	
		.st9{fill-rule:evenodd;clip-rule:evenodd;fill:none;stroke:#414042;stroke-width:1.5001;stroke-linecap:round;stroke-linejoin:round;stroke-miterlimit:2.6131;}
</style>
<g id="Home">
	<path class="st0" d="M182.1,112.4v6.7h47V97.3h-32L182.1,112.4z"/>
	<path class="st0" d="M171.5,97.3h-37.1v21.8h15.3L171.5,97.3z"/>
	<path class="st0" d="M225,186v6.7h47v-21.8h-32L225,186z"/>
	<path class="st0" d="M214.4,170.9h-37.1v21.8h15.3L214.4,170.9z"/>
	<path class="st0" d="M39.7,145h243.7v5.4H39.7V145z"/>
	<path class="st0" d="M118.7,71.5h168.9v8.2H118.7V71.5z"/>
	<path class="st1" d="M118.7,71.5h168.9l-85.1-28.6h-1.4L118.7,71.5z"/>
	<path class="st1" d="M42.4,145h76.1l0.1-20.4l0.1-1.4L42.4,145z"/>
	<line class="st2" x1="292.8" y1="210.4" x2="195" y2="210.4"/>
	<line class="st2" x1="186.8" y1="210.4" x2="37" y2="210.4"/>
	<path class="st3" d="M190.9,209c0.8,0,1.4,0.6,1.4,1.4c0,0.8-0.6,1.4-1.4,1.4c-0.8,0-1.4-0.6-1.4-1.4
		C189.6,209.7,190.2,209,190.9,209z"/>
	<path class="st0" d="M47.9,158.6h62.7v9.5H47.9V158.6z"/>
	<line class="st4" x1="47.9" y1="172.3" x2="110.5" y2="172.3"/>
	<line class="st4" x1="47.9" y1="177.7" x2="110.5" y2="177.7"/>
	<line class="st4" x1="47.9" y1="183.2" x2="110.5" y2="183.2"/>
	<line class="st4" x1="47.9" y1="188.6" x2="110.5" y2="188.6"/>
	<line class="st4" x1="47.9" y1="194.1" x2="110.5" y2="194.1"/>
	<line class="st4" x1="47.9" y1="199.5" x2="110.5" y2="199.5"/>
	<line class="st4" x1="47.9" y1="205" x2="110.5" y2="205"/>
	<polyline class="st5" points="47.9,210.4 47.9,158.6 110.5,158.6 110.5,210.4 	"/>
	<path class="st0" d="M248.1,123.2h30v5.5h-30V123.2z"/>
	<path class="st0" d="M118.7,145h164.7v5.4H118.7V145z"/>
	<path class="st0" d="M135.1,166.8h27.4v5.4h-27.4V166.8z"/>
	<path class="st0" d="M171.8,196.8h106.3v5.4H171.8V196.8z"/>
	<path class="st0" d="M94.2,96c-0.9,0-1.8,0.2-2.5,0.7c-1-1.4-2.3-2.6-3.9-3.2c2.8-6.7-0.4-14.3-7-17.1c-6.7-2.8-14.3,0.4-17.1,7
		c-0.6,1.5-1,3.1-1,4.7c-3.7,1.2-6.8,3.9-8.5,7.4c-3.3-1.4-7.1,0.2-8.5,3.6c-0.3,0.8-0.5,1.6-0.5,2.5l54.5,0
		C99.6,98.4,97.2,96,94.2,96C94.2,96,94.2,96,94.2,96z"/>
	<path class="st0" d="M281.5,38.1C281.5,38.1,281.5,38.1,281.5,38.1c-1.9-4.1-6.8-5.9-10.9-4c-0.5,0.2-1.1,0.6-1.5,0.9
		c-2.8-3.9-7.9-5.4-12.4-3.7c-1.8-3.3-6-4.4-9.2-2.6c-2.8,1.6-4.1,4.9-3.1,8c-0.4,0.2-0.9,0.5-1.2,0.8c-0.2,0-0.3,0-0.5,0
		c-2.3,0-4.1,1.8-4.1,4.1h46.3C284.9,39.6,283.4,38.1,281.5,38.1z"/>
	<path class="st0" d="M156.9,22.4c-0.5,0-0.9,0.1-1.4,0.2c-1.9-3.5-5.6-5.6-9.5-5.6c-0.2,0-0.3,0-0.5,0c-1.5-4.3-6.1-6.5-10.4-5
		c-3.3,1.1-5.5,4.2-5.5,7.7c0,0.2,0,0.3,0,0.5c-2.1,0.7-3.8,2.2-4.7,4.2c-1.9-1.2-4.4-0.6-5.6,1.3c-0.4,0.7-0.6,1.4-0.6,2.2l43.6,0
		C162.3,24.8,159.9,22.4,156.9,22.4z"/>
	<line class="st5" x1="288.8" y1="145.8" x2="288.8" y2="210.4"/>
	<line class="st5" x1="287.7" y1="71.5" x2="287.7" y2="139.1"/>
	<polyline class="st5" points="118.7,210.4 118.7,145 39.7,145 39.7,210.4 	"/>
	<polyline class="st5" points="39.7,145 37,145 37,142.3 113.3,120.5 118.4,120.5 	"/>
	<polyline class="st5" points="135.1,210.4 135.1,166.8 162.3,166.8 162.3,210.4 	"/>
	<rect x="173.2" y="166.8" class="st5" width="103.5" height="30"/>
	<line class="st2" x1="118.7" y1="145" x2="290.4" y2="145"/>
	<line class="st5" x1="118.7" y1="139.1" x2="118.7" y2="71.5"/>
	<line class="st2" x1="290.4" y1="139.6" x2="118.7" y2="139.6"/>
	<line class="st6" x1="225" y1="166.8" x2="225" y2="196.8"/>
	<path class="st0" d="M128.2,123.2h106.3v5.5H128.2V123.2z"/>
	<rect x="129.6" y="93.3" class="st5" width="103.5" height="30"/>
	<line class="st5" x1="181.4" y1="93.3" x2="181.4" y2="123.2"/>
	<path class="st0" d="M249.5,93.3h27.4v5.4h-27.4V93.3z"/>
	<rect x="249.5" y="93.3" class="st5" width="27.2" height="30"/>
	<path class="st7" d="M157.8,188.3c0.9,0,1.7,0.8,1.7,1.7c0,0.9-0.8,1.7-1.7,1.7c-0.9,0-1.7-0.8-1.7-1.7
		C156.1,189.1,156.8,188.3,157.8,188.3z"/>
	<g>
		<line class="st8" x1="101.5" y1="42.5" x2="101.5" y2="48.2"/>
		<line class="st8" x1="101.5" y1="56.7" x2="101.5" y2="62.4"/>
		<line class="st8" x1="111.4" y1="52.5" x2="105.7" y2="52.5"/>
		<line class="st8" x1="97.2" y1="52.5" x2="91.5" y2="52.5"/>
	</g>
	<polygon class="st5" points="113.3,71.5 113.3,68.7 200.5,38.8 203.2,38.8 293.1,69.2 293.1,72.1 	"/>
	<g>
		<path class="st9" d="M312.5,200.9l-12.2-6.6c-9.5-4.1-7.5-7.1-3.9-17c4.7-12.7,9.3-25.3,14-38c2-5.2,4.1-5.3,6.1,0.2l14,37.1
			c4.3,9.8,3.7,13.9-1.1,16.4l-10,5.7"/>
		<line class="st9" x1="299.7" y1="210.3" x2="328.4" y2="210.3"/>
		<polyline class="st9" points="313.5,177.3 313.5,186.2 313.5,210.4 		"/>
		<line class="st9" x1="320.1" y1="181.3" x2="313.5" y2="186.1"/>
		<line class="st9" x1="306.8" y1="186.2" x2="313.5" y2="190.9"/>
	</g>
</g>
</svg>
