<svg xmlns="http://www.w3.org/2000/svg" viewBox="0 0 96 96" width="96" height="96"><style>tspan { white-space:pre }.shp0 { fill: none;stroke: #414042;stroke-linecap:round;stroke-linejoin:round;stroke-width: 1.44 } .shp1 { fill: none;stroke: #414042;stroke-width: 1.44 } .shp2 { fill: #02a658 } .shp3 { fill: none;stroke: #e6e7e8;stroke-linecap:round;stroke-linejoin:round;stroke-width: 3.36 } .shp4 { fill: none;stroke: #000000;stroke-linecap:round;stroke-linejoin:round;stroke-width: 1.44 } </style><g ><path class="shp0" d="M28.8 37.73L29.47 37.73L84.29 37.73C86.78 37.73 88.8 39.74 88.8 42.24L88.8 55.01C88.8 57.5 86.78 59.52 84.29 59.52L11.14 59.52C8.64 59.52 6.62 57.5 6.62 55.01L6.62 42.34C6.62 39.84 8.64 37.82 11.14 37.82L11.52 37.82" /><path fill-rule="evenodd" class="shp1" d="M11.14 69.79L84.19 69.79C86.69 69.79 88.7 71.81 88.7 74.3L88.7 87.07C88.7 89.57 86.69 91.58 84.19 91.58L11.14 91.58C8.64 91.58 6.62 89.57 6.62 87.07L6.62 74.3C6.62 71.81 8.64 69.79 11.14 69.79Z" /><path fill-rule="evenodd" class="shp2" d="M77.09 85.54C79.2 85.54 80.93 83.81 80.93 81.7C80.93 79.58 79.2 77.86 77.09 77.86C74.98 77.86 73.25 79.58 73.25 81.7C73.25 83.81 74.98 85.54 77.09 85.54Z" /><path fill-rule="evenodd" class="shp2" d="M77.09 52.51C79.2 52.51 80.93 50.78 80.93 48.67C80.93 46.56 79.2 44.83 77.09 44.83C74.98 44.83 73.25 46.56 73.25 48.67C73.25 50.78 74.98 52.51 77.09 52.51Z" /><path class="shp3" d="M26.21 48.48L65.18 48.48" /><path class="shp3" d="M26.21 81.5L65.18 81.5" /><path class="shp4" d="M13.06 48.48L17.66 48.48" /><path class="shp4" d="M13.06 81.5L17.66 81.5" /><path fill-rule="evenodd" class="shp2" d="M20.26 4.03C27.94 4.03 34.18 10.66 34.27 18.72C34.27 28.42 20.26 46.27 20.26 46.27C20.26 46.27 6.24 28.9 6.24 18.72C6.24 10.66 12.58 4.03 20.26 4.03ZM15.74 17.86C15.74 20.35 17.76 22.37 20.26 22.37C22.75 22.37 24.77 20.35 24.77 17.86C24.77 15.36 22.75 13.34 20.26 13.34C17.76 13.34 15.74 15.36 15.74 17.86Z" /></g></svg>