<svg xmlns="http://www.w3.org/2000/svg" width="22" height="22" viewBox="0 0 22 22"><polygon points="12.18 12.79 12.53 4.77 9.63 4.77 9.98 12.79 12.18 12.79" fill="#eb004c"></polygon><path d="M11,0A11,11,0,1,0,22,11,11,11,0,0,0,11,0Zm0,20.62A9.62,9.62,0,1,1,20.62,11,9.61,9.61,0,0,1,11,20.62Z" fill="#eb004c"></path><path d="M11.06,13.92A1.6,1.6,0,0,0,10,14.3a1.29,1.29,0,0,0-.43,1,1.26,1.26,0,0,0,.43,1,1.69,1.69,0,0,0,2.16,0,1.26,1.26,0,0,0,.43-1,1.29,1.29,0,0,0-.43-1A1.6,1.6,0,0,0,11.06,13.92Z" fill="#eb004c"></path></svg>