<svg xmlns="http://www.w3.org/2000/svg" viewBox="0 0 30 17" width="30" height="17"><style>tspan { white-space:pre }.shp0 { fill: #009f51 } </style><path class="shp0" d="M30 2.42C30 2.68 29.9 2.9 29.7 3.1L15.69 16.71C15.49 16.9 15.26 17 15 17C15 17 14.77 16.9 14.31 16.71L0.3 3.1C0.1 2.9 0 2.68 0 2.42C0 2.42 0.1 2.2 0.3 1.75L1.8 0.29C2 0.1 2.23 0 2.49 0C2.49 0 2.73 0.1 3.19 0.29L15 11.77L26.81 0.29C27.01 0.1 27.24 0 27.51 0C27.51 0 27.74 0.1 28.2 0.29L29.7 1.75C29.9 1.95 30 2.17 30 2.42Z" /></svg>