<svg xmlns="http://www.w3.org/2000/svg" viewBox="0 0 310 204" width="310" height="204"><style>tspan { white-space:pre }.shp0 { fill: #dddddc } .shp1 { fill: #46b976 } .shp2 { fill: none;stroke: #414042;stroke-linecap:round;stroke-width: 1.5 } .shp3 { fill: #414042 } .shp4 { fill: none;stroke: #dddddc;stroke-width: 2.725 } .shp5 { fill: none;stroke: #414042;stroke-width: 1.5 } .shp6 { fill: none;stroke: #394550;stroke-width: 2.725 } .shp7 { fill: #02a658 } .shp8 { fill: none;stroke: #414042;stroke-linecap:round;stroke-width: 2 } .shp9 { fill: none;stroke: #414042;stroke-linecap:round;stroke-linejoin:round;stroke-width: 1.5 } </style><g ><path fill-rule="evenodd" class="shp0" d="M152.1 103.4L152.1 110.1L199.1 110.1L199.1 88.3L167.1 88.3L152.1 103.4Z" /><path fill-rule="evenodd" class="shp0" d="M141.5 88.3L104.4 88.3L104.4 110.1L119.7 110.1L141.5 88.3Z" /><path fill-rule="evenodd" class="shp0" d="M195 177L195 183.7L242 183.7L242 161.9L210 161.9L195 177Z" /><path fill-rule="evenodd" class="shp0" d="M184.4 161.9L147.3 161.9L147.3 183.7L162.6 183.7L184.4 161.9Z" /><path fill-rule="evenodd" class="shp0" d="M9.7 136L253.4 136L253.4 141.4L9.7 141.4L9.7 136Z" /><path fill-rule="evenodd" class="shp0" d="M88.7 62.5L257.6 62.5L257.6 70.7L88.7 70.7L88.7 62.5Z" /><path fill-rule="evenodd" class="shp1" d="M88.7 62.5L257.6 62.5L172.5 33.9L171.1 33.9L88.7 62.5Z" /><path fill-rule="evenodd" class="shp1" d="M12.4 136L88.5 136L88.6 115.6L88.7 114.2L12.4 136Z" /><path class="shp2" d="M262.8 201.4L165 201.4" /><path class="shp2" d="M156.8 201.4L7 201.4" /><path fill-rule="evenodd" class="shp3" d="M160.9 200C161.7 200 162.3 200.6 162.3 201.4C162.3 202.2 161.7 202.8 160.9 202.8C160.1 202.8 159.5 202.2 159.5 201.4C159.6 200.7 160.2 200 160.9 200Z" /><path fill-rule="evenodd" class="shp0" d="M17.9 149.6L80.6 149.6L80.6 159.1L17.9 159.1L17.9 149.6Z" /><path class="shp4" d="M17.9 163.3L80.5 163.3" /><path class="shp4" d="M17.9 168.7L80.5 168.7" /><path class="shp4" d="M17.9 174.2L80.5 174.2" /><path class="shp4" d="M17.9 179.6L80.5 179.6" /><path class="shp4" d="M17.9 185.1L80.5 185.1" /><path class="shp4" d="M17.9 190.5L80.5 190.5" /><path class="shp4" d="M17.9 196L80.5 196" /><path class="shp5" d="M17.9 201.4L17.9 149.6L80.5 149.6L80.5 201.4" /><path fill-rule="evenodd" class="shp0" d="M218.1 114.2L248.1 114.2L248.1 119.7L218.1 119.7L218.1 114.2L218.1 114.2Z" /><path fill-rule="evenodd" class="shp0" d="M88.7 136L253.4 136L253.4 141.4L88.7 141.4L88.7 136Z" /><path fill-rule="evenodd" class="shp0" d="M105.1 157.8L132.5 157.8L132.5 163.2L105.1 163.2L105.1 157.8Z" /><path fill-rule="evenodd" class="shp0" d="M141.8 187.8L248.1 187.8L248.1 193.2L141.8 193.2L141.8 187.8Z" /><path fill-rule="evenodd" class="shp0" d="M64.2 87C63.3 87 62.4 87.2 61.7 87.7C60.7 86.3 59.4 85.1 57.8 84.5C60.6 77.8 57.4 70.2 50.8 67.4C44.1 64.6 36.5 67.8 33.7 74.4C33.1 75.9 32.7 77.5 32.7 79.1C29 80.3 25.9 83 24.2 86.5C20.9 85.1 17.1 86.7 15.7 90.1C15.4 90.9 15.2 91.7 15.2 92.6L69.7 92.6C69.6 89.4 67.2 87 64.2 87L64.2 87Z" /><path fill-rule="evenodd" class="shp0" d="M251.5 29.1L251.5 29.1C249.6 25 244.7 23.2 240.6 25.1C240.1 25.3 239.5 25.7 239.1 26C236.3 22.1 231.2 20.6 226.7 22.3C224.9 19 220.7 17.9 217.5 19.7C214.7 21.3 213.4 24.6 214.4 27.7C214 27.9 213.5 28.2 213.2 28.5C213 28.5 212.9 28.5 212.7 28.5C210.4 28.5 208.6 30.3 208.6 32.6L254.9 32.6C254.9 30.6 253.4 29.1 251.5 29.1Z" /><path fill-rule="evenodd" class="shp0" d="M126.9 13.4C126.4 13.4 126 13.5 125.5 13.6C123.6 10.1 119.9 8 116 8C115.8 8 115.7 8 115.5 8C114 3.7 109.4 1.5 105.1 3C101.8 4.1 99.6 7.2 99.6 10.7C99.6 10.9 99.6 11 99.6 11.2C97.5 11.9 95.8 13.4 94.9 15.4C93 14.2 90.5 14.8 89.3 16.7C88.9 17.4 88.7 18.1 88.7 18.9L132.3 18.9C132.3 15.8 129.9 13.4 126.9 13.4Z" /><path class="shp5" d="M258.8 136.8L258.8 201.4" /><path class="shp5" d="M257.7 62.5L257.7 130.1" /><path class="shp5" d="M88.7 201.4L88.7 136L9.7 136L9.7 201.4" /><path class="shp5" d="M9.7 136L7 136L7 133.3L83.3 111.5L88.4 111.5" /><path class="shp5" d="M105.1 201.4L105.1 157.8L132.3 157.8L132.3 201.4" /><path class="shp5" d="M143.2 157.8L246.7 157.8L246.7 187.8L143.2 187.8L143.2 157.8Z" /><path class="shp2" d="M88.7 136L260.4 136" /><path class="shp5" d="M88.7 130.1L88.7 62.5" /><path class="shp2" d="M260.4 130.6L88.7 130.6" /><path class="shp6" d="M195 157.8L195 187.8" /><path fill-rule="evenodd" class="shp0" d="M98.2 114.2L204.5 114.2L204.5 119.7L98.2 119.7L98.2 114.2Z" /><path class="shp5" d="M99.6 84.3L203.1 84.3L203.1 114.3L99.6 114.3L99.6 84.3Z" /><path class="shp5" d="M151.4 84.3L151.4 114.2" /><path fill-rule="evenodd" class="shp0" d="M219.5 84.3L246.9 84.3L246.9 89.7L219.5 89.7L219.5 84.3L219.5 84.3Z" /><path class="shp5" d="M219.5 84.3L246.7 84.3L246.7 114.3L219.5 114.3L219.5 84.3Z" /><path fill-rule="evenodd" class="shp7" d="M127.8 179.3C128.7 179.3 129.5 180.1 129.5 181C129.5 181.9 128.7 182.7 127.8 182.7C126.9 182.7 126.1 181.9 126.1 181C126.1 180.1 126.8 179.3 127.8 179.3Z" /><g ><path class="shp8" d="M71.5 33.5L71.5 39.2" /><path class="shp8" d="M71.5 47.7L71.5 53.4" /><path class="shp8" d="M81.4 43.5L75.7 43.5" /><path class="shp8" d="M67.2 43.5L61.5 43.5" /></g><path class="shp5" d="M83.3 62.5L83.3 59.7L170.5 29.8L173.2 29.8L263.1 60.2L263.1 63.1L83.3 62.5Z" /><g ><path fill-rule="evenodd" class="shp9" d="M282.5 191.9L270.3 185.3C260.8 181.2 262.8 178.2 266.4 168.3C271.1 155.6 275.7 143 280.4 130.3C282.4 125.1 284.5 125 286.5 130.5L300.5 167.6C304.8 177.4 304.2 181.5 299.4 184L289.4 189.7" /><path class="shp9" d="M269.7 201.3L298.4 201.3" /><path class="shp9" d="M283.5 168.3L283.5 177.2L283.5 201.4" /><path class="shp9" d="M290.1 172.3L283.5 177.1" /><path class="shp9" d="M276.8 177.2L283.5 181.9" /></g></g></svg>