<svg xmlns="http://www.w3.org/2000/svg" viewBox="0 0 40 40"><title>Other logo</title><g stroke="none" stroke-width="1" fill="none" fill-rule="evenodd"><rect stroke="#E0E3E8" x="0.5" y="0.5" width="39" height="39" rx="6"></rect><g><g transform="translate(7.000000, 7.000000)"><g transform="translate(2.758621, 1.730978)"><path d="M18.9164138,3.49910326 L20.7895172,4.67328804 C20.9397241,4.76744565 21.0368276,4.92383152 21.0532414,5.09842391 C21.1671724,6.31038043 21.4667586,11.2311685 19.2994483,15.0083424 C16.7926897,19.3772283 14.289931,21.8325272 11.3502069,23.1825272 C11.1724138,23.2641848 10.9637241,23.2465217 10.7993103,23.1412228 L7.23255172,20.8573913 L18.9164138,3.49910326 Z" fill="#D5D5D5"></path><path d="M18.9164138,3.49910326 L20.7895172,4.67328804 C20.9397241,4.76744565 21.0368276,4.92383152 21.0532414,5.09842391 C21.1671724,6.31038043 21.4667586,11.2311685 19.2994483,15.0083424 C16.7926897,19.3772283 14.289931,21.8325272 11.3502069,23.1825272 C11.1724138,23.2641848 10.9637241,23.2465217 10.7993103,23.1412228 L7.23255172,20.8573913 L18.9164138,3.49910326 Z" stroke="#272727" stroke-width="0.5" stroke-linecap="round" stroke-linejoin="round"></path><path d="M19.191669,4.52654891 L19.1313931,3.86133152 C19.1141517,3.67043478 18.9542897,3.5226087 18.7598069,3.51758152 L18.0799448,3.50019022 C17.1600828,3.47953804 16.2449103,3.36527174 15.3491862,3.15875 C14.4909793,2.96038043 13.6576,2.66907609 12.8644966,2.29 C12.4043586,2.0698913 11.9613241,1.81771739 11.5378759,1.5351087 C11.1512552,1.28266304 10.7873931,0.997201087 10.4507034,0.682527174 L9.93318621,0.197472826 C9.78642759,0.0598369565 9.55622069,0.0586141304 9.40794483,0.194755435 L8.98697931,0.581032609 C8.6438069,0.895978261 8.28035862,1.18972826 7.89166897,1.44842391 C7.43373793,1.75304348 6.95304828,2.02288043 6.45401379,2.25616848 C5.65663448,2.62641304 4.81994483,2.90834239 3.95953103,3.09720109 C3.06132414,3.29353261 2.14518621,3.39774457 1.22518621,3.40834239 L0.545186207,3.41826087 C0.350703448,3.42111413 0.189186207,3.56717391 0.169737931,3.75779891 L0.101875862,4.42233696 C0.0533241379,4.86826087 0.0298758621,5.31024457 0.0232551724,5.75603261 C0.0122206897,6.23103261 0.0221517241,6.71024457 0.0484965517,7.18972826 C0.0898758621,7.9819837 0.177737931,8.77125 0.311393103,9.55358696 C0.442151724,10.3227446 0.619668966,11.08375 0.842427586,11.8322554 L0.842703448,11.8322554 L0.859393103,11.8329348 C1.4958069,13.9679891 2.50146207,15.9602446 3.8976,17.710788 C5.30132414,19.4690761 7.02987586,20.9038587 8.98146207,22.025462 L9.55001379,22.3507337 L10.1225655,22.031712 C12.0913931,20.9315761 13.8407724,19.5162228 15.2606345,17.7728804 C16.6764966,16.0374185 17.7044966,14.0606522 18.3653241,11.9288587 C18.5971862,11.1823913 18.783669,10.4230163 18.923669,9.65480978 C19.0662897,8.87396739 19.1631172,8.08578804 19.2134621,7.29394022 C19.2413241,6.81907609 19.2564966,6.33986413 19.2551172,5.86078804 C19.2491862,5.41472826 19.2309793,4.96866848 19.191669,4.52654891" fill="#FFFFFF"></path><path d="M19.191669,4.52654891 L19.1313931,3.86133152 C19.1141517,3.67043478 18.9542897,3.5226087 18.7598069,3.51758152 L18.0799448,3.50019022 C17.1600828,3.47953804 16.2449103,3.36527174 15.3491862,3.15875 C14.4909793,2.96038043 13.6576,2.66907609 12.8644966,2.29 C12.4043586,2.0698913 11.9613241,1.81771739 11.5378759,1.5351087 C11.1512552,1.28266304 10.7873931,0.997201087 10.4507034,0.682527174 L9.93318621,0.197472826 C9.78642759,0.0598369565 9.55622069,0.0586141304 9.40794483,0.194755435 L8.98697931,0.581032609 C8.6438069,0.895978261 8.28035862,1.18972826 7.89166897,1.44842391 C7.43373793,1.75304348 6.95304828,2.02288043 6.45401379,2.25616848 C5.65663448,2.62641304 4.81994483,2.90834239 3.95953103,3.09720109 C3.06132414,3.29353261 2.14518621,3.39774457 1.22518621,3.40834239 L0.545186207,3.41826087 C0.350703448,3.42111413 0.189186207,3.56717391 0.169737931,3.75779891 L0.101875862,4.42233696 C0.0533241379,4.86826087 0.0298758621,5.31024457 0.0232551724,5.75603261 C0.0122206897,6.23103261 0.0221517241,6.71024457 0.0484965517,7.18972826 C0.0898758621,7.9819837 0.177737931,8.77125 0.311393103,9.55358696 C0.442151724,10.3227446 0.619668966,11.08375 0.842427586,11.8322554 L0.842703448,11.8322554 L0.859393103,11.8329348 C1.4958069,13.9679891 2.50146207,15.9602446 3.8976,17.710788 C5.30132414,19.4690761 7.02987586,20.9038587 8.98146207,22.025462 L9.55001379,22.3507337 L10.1225655,22.031712 C12.0913931,20.9315761 13.8407724,19.5162228 15.2606345,17.7728804 C16.6764966,16.0374185 17.7044966,14.0606522 18.3653241,11.9288587 C18.5971862,11.1823913 18.783669,10.4230163 18.923669,9.65480978 C19.0662897,8.87396739 19.1631172,8.08578804 19.2134621,7.29394022 C19.2413241,6.81907609 19.2564966,6.33986413 19.2551172,5.86078804 C19.2491862,5.41472826 19.2309793,4.96866848 19.191669,4.52654891 Z" stroke="#282828" stroke-width="0.5" stroke-linecap="round" stroke-linejoin="round"></path></g><g transform="translate(7.034483, 6.486413)"><path d="M4.94786207,0.409103261 C4.76027586,0.580027174 4.5582069,0.734918478 4.34427586,0.872418478 C4.10937931,1.02486413 3.86386207,1.16100543 3.60951724,1.27975543 C3.17075862,1.48342391 2.71048276,1.63858696 2.23696552,1.74252717 C1.74262069,1.85067935 1.23848276,1.9080163 0.732137931,1.91372283 L0.170206897,1.92201087 L0.114068966,2.471875 C0.0873103448,2.71711957 0.0743448276,2.96032609 0.0707586207,3.20570652 C0.0648275862,3.46711957 0.0702068966,3.73084239 0.0846896552,3.99456522 C0.107586207,4.43057065 0.155862069,4.86494565 0.22937931,5.2955163 C0.30137931,5.71875 0.399034483,6.13736413 0.521655172,6.54932065 L0.521793103,6.54932065 L0.531034483,6.54972826 C0.881103448,7.72459239 1.43462069,8.82105978 2.20275862,9.78423913 C2.97517241,10.7519022 3.92648276,11.5413043 5.00041379,12.1585598 L5.31324138,12.3375 L5.62827586,12.1619565 C6.71186207,11.5566576 7.67448276,10.7777174 8.45586207,9.81847826 C9.23489655,8.86331522 9.80055172,7.77567935 10.1642759,6.60244565 C10.292,6.19184783 10.3944828,5.77377717 10.4715862,5.35108696 C10.550069,4.92146739 10.6033103,4.48763587 10.6308966,4.05203804 C10.6462069,3.790625 10.6546207,3.52690217 10.653931,3.26331522 C10.6506207,3.01793478 10.6406897,2.77241848 10.6188966,2.52907609 L10.5691034,1.97866848 L10.0073103,1.96440217 C9.50110345,1.95298913 8.99737931,1.89008152 8.50441379,1.7763587 C8.03227586,1.66725543 7.57365517,1.50692935 7.13724138,1.2982337 C6.884,1.17730978 6.64013793,1.03845109 6.40717241,0.882880435 C6.19434483,0.744021739 5.9942069,0.586956522 5.80896552,0.413858696 L5.38027586,0.0119565217 L4.94786207,0.409103261 Z" mask="url(#defaultnologo-mask-4)"></path></g><g transform="translate(0.000000, 0.100543)" stroke-linecap="round" stroke-linejoin="round"><path d="M17.6534207,8.91497283 L17.6036276,8.36456522 L17.0416966,8.35016304 C16.5354897,8.33888587 16.0319034,8.27597826 15.5389379,8.16225543 C15.0668,8.05315217 14.6081793,7.89282609 14.1717655,7.68413043 C13.9185241,7.56307065 13.6746621,7.42434783 13.4416966,7.26877717 C13.228869,7.12991848 13.028731,6.97285326 12.8433517,6.79975543 L12.4148,6.39785326 L11.9822483,6.79486413 C11.7946621,6.96578804 11.592731,7.12081522 11.3788,7.25817935 C11.1439034,7.41076087 10.8982483,7.5467663 10.6441793,7.66565217 C10.2052828,7.86932065 9.74486897,8.0244837 9.27135172,8.12842391 C8.77714483,8.23644022 8.2730069,8.29377717 7.76666207,8.29961957 L7.20473103,8.30790761 L7.1485931,8.85763587 C7.12183448,9.1030163 7.10886897,9.34622283 7.10528276,9.59146739 C7.09921379,9.8530163 7.1045931,10.1167391 7.11921379,10.380462 C7.14197241,10.8164674 7.19038621,11.2508424 7.26390345,11.6812772 C7.33590345,12.1046467 7.43342069,12.5232609 7.55604138,12.9352174 L7.55617931,12.9352174 L7.56542069,12.935625 C7.91562759,14.1104891 8.4690069,15.2068207 9.23728276,16.1701359 C10.0096966,17.137663 10.960869,17.9272011 12.0349379,18.5444565 L12.3477655,18.7233967 L12.6628,18.5478533 C13.7462483,17.9424185 14.708869,17.1636141 15.4902483,16.2042391 C16.2694207,15.249212 16.8350759,14.1614402 17.1988,12.9883424 C17.3263862,12.5776087 17.4290069,12.1596739 17.5059724,11.7369837 C17.5844552,11.3072283 17.6376966,10.8735326 17.6654207,10.4377989 C17.680731,10.1765217 17.6891448,9.91279891 17.6883172,9.64921196 C17.6851448,9.40383152 17.6750759,9.15831522 17.6534207,8.91497283 Z" stroke="#282828" stroke-width="0.5" fill="#959595"></path><path d="M13.3985655,0.035298913 C13.8065655,0.416413043 14.2451862,0.759891304 14.7145655,1.06546196 C15.2297379,1.41084239 15.7698759,1.71831522 16.3311172,1.98625 C17.2982897,2.44847826 18.3153931,2.80513587 19.3611862,3.04657609 C19.4301517,3.06165761 19.4991172,3.0786413 19.5680828,3.09182065" stroke="#D5D5D5" stroke-width="0.5"></path><path d="M22.0581241,3.43538859 C21.6098483,3.41042307 21.1617103,3.36449204 20.7172966,3.29938859" stroke="#D5D5D5" stroke-width="0.5"></path><path d="M8.58903448,24.0030684 C8.43193103,23.8747925 8.27868966,23.7444477 8.12558621,23.6123098" stroke="#D5D5D5" stroke-width="0.5"></path><path d="M2.27209655,15.3180978 C3.03057931,17.2841304 4.06864828,19.1274728 5.39609655,20.7916033 C5.98023448,21.5236685 6.61044138,22.208587 7.28078621,22.848125" stroke="#D5D5D5" stroke-width="0.5"></path><path d="M1.10344828,12.5116033 C1.10344828,12.8117391 0.856413793,13.0550815 0.551724138,13.0550815 C0.247034483,13.0550815 0,12.8117391 0,12.5116033 C0,12.2114674 0.247034483,11.968125 0.551724138,11.968125 C0.856413793,11.968125 1.10344828,12.2114674 1.10344828,12.5116033 Z" stroke="#D5D5D5" stroke-width="0.5"></path><path d="M23.7241379,19.5768207 C23.7241379,19.8019565 23.5388966,19.9844293 23.3103448,19.9844293 C23.0817931,19.9844293 22.8965517,19.8019565 22.8965517,19.5768207 C22.8965517,19.3516848 23.0817931,19.169212 23.3103448,19.169212 C23.5388966,19.169212 23.7241379,19.3516848 23.7241379,19.5768207 Z" stroke="#D5D5D5" stroke-width="0.5"></path><path d="M21.3793103,23.6529076 L22.4827586,23.6529076" stroke="#D5D5D5" stroke-width="0.5"></path><path d="M21.9310345,23.1094293 L21.9310345,24.3322554" stroke="#D5D5D5" stroke-width="0.5"></path><path d="M5.24137931,1.50616848 L6.34482759,1.50616848" stroke="#D5D5D5" stroke-width="0.5"></path><path d="M5.79310345,0.962690217 L5.79310345,2.04964674" stroke="#D5D5D5" stroke-width="0.5"></path></g></g></g></g></svg>