<svg xmlns="http://www.w3.org/2000/svg" viewBox="0 0 123 157" width="123" height="157"><style>tspan { white-space:pre }.shp0 { fill: #25c778;stroke: #25c778;stroke-linecap:round;stroke-linejoin:round;stroke-width: 3 } .shp1 { fill: #ffffff;stroke: #ffffff;stroke-linecap:round;stroke-linejoin:round;stroke-width: 3 } .shp2 { fill: none;stroke: #070e15;stroke-linecap:round;stroke-linejoin:round;stroke-width: 3 } </style><path class="shp0" d="M121.5 11C121.5 9.82 121.27 8.65 120.81 7.56C120.36 6.46 119.7 5.47 118.86 4.64C118.03 3.8 117.04 3.14 115.94 2.69C114.85 2.23 113.68 2 112.5 2L10.5 2C9.32 2 8.15 2.23 7.06 2.69C5.96 3.14 4.97 3.8 4.14 4.64C3.3 5.47 2.64 6.46 2.19 7.56C1.73 8.65 1.5 9.82 1.5 11L1.5 122L121.5 122L121.5 11Z" /><path fill-rule="evenodd" class="shp1" d="M51.24 73.07L51.24 99.5L35.78 99.5L35.78 24.5L65 24.5C66.28 24.47 67.55 24.52 68.82 24.64C70.09 24.75 71.36 24.94 72.61 25.2C73.85 25.46 75.09 25.79 76.3 26.19C77.51 26.59 78.7 27.06 79.86 27.59C80.87 28.06 81.85 28.6 82.79 29.21C83.72 29.83 84.61 30.51 85.45 31.25C86.28 31.99 87.06 32.79 87.78 33.65C88.49 34.51 89.15 35.42 89.73 36.37C90.31 37.35 90.82 38.36 91.26 39.41C91.7 40.45 92.07 41.53 92.36 42.63C92.65 43.73 92.87 44.84 93.01 45.97C93.14 47.1 93.2 48.23 93.18 49.37C93.18 56.7 90.66 62.5 85.63 66.75C85.63 66.75 78.67 68.87 64.74 73.11L51.24 73.07ZM51.24 60.56L65 60.56C69.09 60.56 72.21 59.6 74.35 57.67C74.35 57.67 75.42 54.92 77.57 49.43C77.61 48.62 77.56 47.81 77.44 47C77.31 46.2 77.11 45.41 76.83 44.65C76.56 43.89 76.2 43.15 75.78 42.46C75.36 41.77 74.87 41.12 74.32 40.52C72.16 38.25 69.16 37.09 65.32 37.02L51.24 37.02L51.24 60.56Z" /><path class="shp2" d="M1.5 132.5L1.5 146C1.5 147.18 1.73 148.35 2.19 149.44C2.64 150.54 3.3 151.53 4.14 152.36C4.97 153.2 5.96 153.86 7.06 154.31C8.15 154.77 9.32 155 10.5 155L112.5 155C113.68 155 114.85 154.77 115.94 154.31C117.04 153.86 118.03 153.2 118.86 152.36C119.7 151.53 120.36 150.54 120.81 149.44C121.27 148.35 121.5 147.18 121.5 146L121.5 125" /><path class="shp2" d="M84 131L91.5 138.5L84 146" /><path class="shp2" d="M39 146L31.5 138.5L39 131" /><path class="shp2" d="M31.5 138.5L91.5 138.5" /></svg>