<svg xmlns="http://www.w3.org/2000/svg" viewBox="0 0 215 257" width="215" height="257"><style>tspan { white-space:pre }.shp0 { fill: #46b976;stroke: #ffffff;stroke-width: 7 } .shp1 { fill: #46b976 } .shp2 { fill: none;stroke: #ffffff;stroke-width: 2 } .shp3 { fill: #ffffff;stroke: #45b976;stroke-width: 2 } </style><g ><g ><path class="shp0" d="M111.7 248.9C108.2 251.3 107.5 250.9 104.6 248.9C28.3 199.8 5.5 133 7.4 58.4C8.1 47.8 12.7 45.5 19.7 43.2L93.1 11.7C107.5 5.4 108.3 5.5 125 12.1L199.7 44.8C206.8 47.5 208.6 52.1 208 63.9C210.2 142.7 178.3 204.6 111.7 248.9Z" /><path class="shp1" d="M111.7 248.9C108.2 251.3 107.5 250.9 104.6 248.9C28.3 199.8 5.5 133 7.4 58.4C8.1 47.8 12.7 45.5 19.7 43.2L93.1 11.7C107.5 5.4 108.3 5.5 125 12.1L199.7 44.8C206.8 47.5 208.6 52.1 208 63.9C210.2 142.7 178.3 204.6 111.7 248.9Z" /></g><path fill-rule="evenodd" class="shp2" d="M110.9 225.9C108.1 227.9 107.5 227.5 105.2 225.9C43.8 185.7 25.5 131 27 69.8C27.6 61.1 31.3 59.3 36.9 57.3L96 31.5C107.6 26.3 108.2 26.4 121.7 31.8L181.8 58.6C187.5 60.8 189 64.6 188.5 74.3C190.2 138.8 164.5 189.6 110.9 225.9Z" /><path fill-rule="evenodd" class="shp3" d="M143.8 147.7C143.4 148.4 142.7 148.9 141.9 148.8C141.6 148.8 141.3 148.7 141 148.6C139.9 148.1 139.5 146.8 140 145.8C144 137.8 145.5 129.3 144.6 119.9C144.6 119.2 144.4 118.4 144.3 117.6C144.1 116.5 144.9 115.4 146 115.2C147.1 115 148.2 115.8 148.4 116.9C148.6 117.8 148.7 118.6 148.8 119.5C149.7 129.6 148 139.1 143.8 147.7ZM87.4 168C86.5 168 85.7 167.5 85.4 166.6C84.7 164.5 84.7 162.6 85.5 160.9C86.9 158.1 90.2 157 91.7 156.5L92 156.4C112.8 149.5 116.8 123.7 115.9 115.6C115.5 112.5 113.7 109.6 111.1 108.3C109.9 107.6 108.1 107.1 106.1 108.1C102.4 109.9 102.2 112.3 101.9 117.4C101.8 119.4 101.7 121.7 101.2 124.2C99 136.4 86.4 144.6 76 144.6C74.8 144.6 73.9 143.7 73.9 142.5C73.9 141.3 74.8 140.4 76 140.4C84.5 140.4 95.3 133.5 97.1 123.5C97.5 121.2 97.6 119.2 97.7 117.2C98 112.1 98.2 107.4 104.2 104.4C107 103 110.2 103.1 113.1 104.7C116.8 106.7 119.6 110.9 120.1 115.3C121.5 127.1 114.9 153.4 93.3 160.6L92.9 160.7C91.8 161.1 89.8 161.7 89.2 162.9C88.9 163.5 88.9 164.3 89.3 165.3C89.7 166.3 89.2 167.5 88.1 167.9C87.9 168 87.6 168 87.4 168ZM124.6 157.4C124.4 157.4 124.1 157.4 123.9 157.3C115.2 154 118.4 144.8 121.5 135.9C124.4 127.7 127.6 118.4 124.2 110.7C120.2 101.6 111.4 96.9 102.9 99.3C94 102.1 92.3 112.5 92.1 115.6C91.3 123.9 86 133.4 73.1 135.1C72 135.3 70.9 134.5 70.7 133.3C70.5 132.1 71.4 131.1 72.5 130.9C85.6 129.1 87.5 118.4 87.8 115.1C88.7 105 93.9 97.5 101.6 95.1C112.3 92.1 123.1 97.8 128 108.9C132 118.1 128.4 128.7 125.4 137.2C121.9 147.3 120.9 151.6 125.3 153.3C126.5 153.7 127 154.9 126.6 156C126.3 156.8 125.5 157.4 124.6 157.4ZM145.4 109.6C145.2 109.6 145 109.6 144.6 109.5C143.7 109.5 142.8 108.9 142.6 107.9C140.8 100.4 136.9 93.6 131.4 88.1C123.9 81.2 113.9 77.7 104 78.7C94.7 79.6 86.5 84.4 80.9 92.1C78 96.6 75.9 101.3 74.8 106C74.6 107.2 73.4 107.9 72.3 107.6C71.1 107.4 70.4 106.2 70.7 105.1C71.9 99.9 74.2 94.7 77.5 89.8C83.9 81 93.1 75.6 103.7 74.6C114.8 73.5 126 77.4 134.5 85.2C140.6 91.3 144.9 98.8 146.9 107C147.2 108.2 146.5 109.3 145.4 109.6ZM137.1 155.4C136.8 155.4 136.5 155.3 136.2 155.2C133 153.7 130.8 151.5 129.8 148.6C128.1 143.8 130.1 139.4 130.3 138.9C135.3 128.4 136.4 116.1 133.2 107.6C127.5 93.5 113.5 86.1 99.9 89.9C97.3 90.7 94.9 92 92.8 93.7C91.9 94.4 90.6 94.3 89.8 93.4C89.1 92.5 89.2 91.2 90.1 90.4C92.6 88.3 95.5 86.8 98.7 85.8C114.5 81.4 130.6 89.9 137.1 106C141.5 117.6 138.2 131.9 134.1 140.6C133.6 141.7 132.8 144.5 133.7 147.1C134.4 148.9 135.8 150.3 137.9 151.3C139 151.9 139.4 153.1 139 154.2C138.6 155 137.9 155.4 137.1 155.4ZM80.8 154.6C80.7 154.7 80.6 154.7 80.6 154.7C79.6 154.7 78.7 153.9 78.5 152.9C78.3 151.8 79.1 150.7 80.2 150.5C85.7 149.5 90.5 147.6 94.4 144.8C95.3 144.1 96.6 144.4 97.3 145.3C98 146.2 97.7 147.5 96.8 148.2C92.3 151.4 86.9 153.6 80.8 154.6ZM103.5 141.8C103.1 142.4 102.4 142.6 101.9 142.6C101.4 142.6 101 142.5 100.6 142.2C99.7 141.4 99.5 140.1 100.2 139.2C106.1 131.5 107.4 122 107.4 115.4C107.4 114.2 108.3 113.3 109.5 113.3C110.7 113.3 111.6 114.2 111.6 115.4C111.6 122.7 110.2 133.2 103.5 141.8ZM71 125.1C69.9 125.1 69 124.2 68.9 123.1L68.9 123C68.9 121.9 69.8 120.9 70.9 120.9C76.7 120.6 78.4 116.9 79.6 109.8C80.1 106.7 81.3 102.1 84 97.6C84.6 96.6 85.9 96.3 86.9 96.9C87.9 97.5 88.2 98.8 87.6 99.8C85.3 103.7 84.2 107.8 83.7 110.5C82.5 117.3 80.5 124.5 71.1 125.1L71 125.1ZM137.8 80.6C137.3 80.6 136.8 80.4 136.4 80C129.3 73.1 120.9 69.3 111.4 68.5C100.1 67.4 88.6 71.5 79.7 79.9C78.9 80.7 77.5 80.7 76.8 79.8C76 79 76.1 77.6 76.9 76.9C86.7 67.7 99.4 63.1 111.9 64.4C122.3 65.3 131.6 69.5 139.4 77.1C140.1 77.9 140.1 79.2 139.3 80C138.9 80.4 138.3 80.6 137.8 80.6ZM93 173.7C92.9 173.7 92.8 173.8 92.8 173.6C91.8 173.6 90.9 172.9 90.7 171.9C90.5 170.7 91.3 169.6 92.4 169.4C98.5 168.3 102.2 164.4 105.5 160.9C108.1 158 110.4 155.6 113.5 155.6C115.8 155.6 117.7 157.3 119.7 159.1C123.3 162.4 127.1 165.8 134 161.5C135 160.9 136.3 161.2 136.9 162.2C137.5 163.2 137.2 164.5 136.2 165.1C126.6 171.1 120.5 165.6 116.8 162.3C115.6 161.2 114.1 159.9 113.4 159.9C112.1 159.9 110.3 161.9 108.4 163.9C105 167.5 100.5 172.3 93 173.7ZM105.1 177.3C104.4 177.3 103.7 177 103.3 176.3C102.7 175.3 103 174 104 173.4C104.3 173.2 104.6 173 104.9 172.9C110.5 169.9 116.6 169.4 123.1 171.2C124.2 171.5 124.9 172.7 124.6 173.8C124.3 174.9 123.1 175.6 122 175.3C116.6 173.8 111.6 174.2 107 176.7C106.8 176.8 106.6 176.9 106.3 177.1C105.9 177.2 105.5 177.3 105.1 177.3Z" /></g></svg>