<?xml version="1.0" encoding="utf-8"?>
<!-- Generator: Adobe Illustrator 19.0.0, SVG Export Plug-In . SVG Version: 6.00 Build 0)  -->
<svg version="1.1" id="Layer_1" xmlns="http://www.w3.org/2000/svg" xmlns:xlink="http://www.w3.org/1999/xlink" x="0px" y="0px"
	 viewBox="0 0 370 220" style="enable-background:new 0 0 370 220;" xml:space="preserve">
<style type="text/css">
	.st0{fill:none;stroke:#414042;stroke-width:1.4998;stroke-linecap:round;stroke-miterlimit:10;}
	.st1{fill-rule:evenodd;clip-rule:evenodd;fill:#414042;}
	.st2{fill-rule:evenodd;clip-rule:evenodd;fill:#46B976;}
	.st3{fill-rule:evenodd;clip-rule:evenodd;fill:#DDDDDC;}
	.st4{fill-rule:evenodd;clip-rule:evenodd;fill:none;stroke:#DDDDDC;stroke-width:2.8417;stroke-miterlimit:10;}
	.st5{fill-rule:evenodd;clip-rule:evenodd;fill:none;stroke:#414042;stroke-width:1.4998;stroke-miterlimit:10;}
	
		.st6{fill-rule:evenodd;clip-rule:evenodd;fill:none;stroke:#414042;stroke-width:1.4998;stroke-linecap:round;stroke-miterlimit:10;}
	
		.st7{fill-rule:evenodd;clip-rule:evenodd;fill:none;stroke:#46B976;stroke-width:2.8417;stroke-linecap:round;stroke-miterlimit:10;}
	
		.st8{fill-rule:evenodd;clip-rule:evenodd;fill:none;stroke:#414042;stroke-width:1.9998;stroke-linecap:round;stroke-miterlimit:10;}
	
		.st9{fill-rule:evenodd;clip-rule:evenodd;fill:none;stroke:#414042;stroke-width:1.4998;stroke-linecap:round;stroke-linejoin:round;stroke-miterlimit:2.6131;}
	
		.st10{fill-rule:evenodd;clip-rule:evenodd;fill:none;stroke:#414042;stroke-width:1.5001;stroke-linecap:round;stroke-linejoin:round;stroke-miterlimit:2.6131;}
</style>
<g id="Car">
	<line class="st0" x1="319.6" y1="162.4" x2="333.9" y2="162.4"/>
	<line class="st0" x1="92.3" y1="162.4" x2="311.1" y2="162.4"/>
	<circle class="st1" cx="315.4" cy="162.4" r="1.4"/>
	<path class="st2" d="M106.5,122.6l17.1-5.7V114h-17.1V122.6z"/>
	<path class="st3" d="M305.4,142.5h11.4v8.5h-11.4V142.5z"/>
	<path class="st3" d="M159.1,139.6h108V151h-108V139.6z"/>
	<line class="st4" x1="150.5" y1="113.6" x2="146.2" y2="124.2"/>
	<path class="st3" d="M296.9,121.1l4.3,6.5c2.6,3.9,7.1,6.3,11.8,6.3h6.6v-2.8l-5.7-2.8L296.9,121.1z"/>
	<line class="st5" x1="191.8" y1="97" x2="191.8" y2="116.9"/>
	<line class="st5" x1="197.5" y1="97.3" x2="197.5" y2="116.9"/>
	<path class="st4" d="M255,116.9c-19.5-13.1-42.6-20.1-66.1-19.9c-19.8,0.1-39.5,3.9-57.9,11.3"/>
	<line class="st4" x1="197.5" y1="120.8" x2="197.5" y2="151"/>
	<path class="st3" d="M265.7,147.8c0.8,0,1.4,0.6,1.4,1.4c0,0.8-0.6,1.4-1.4,1.4c-0.8,0-1.4-0.6-1.4-1.4
		C264.2,148.4,264.9,147.8,265.7,147.8z"/>
	<line class="st6" x1="274.5" y1="155.2" x2="159.1" y2="155.2"/>
	<path class="st5" d="M278.8,118.3c13.6,1.3,28.2,6.3,37,10.4c3.3,1.5,5.3,4.8,5.3,8.3v18.2h-19"/>
	<path class="st5" d="M212.7,93.5c27.3,4.3,50.9,23.2,52.9,23.4c4.8,0.4,9.2,0.9,13.3,1.4"/>
	<path class="st5" d="M265.7,116.9h-83.1c-20.2,0-40.3-3.9-59-11.4"/>
	<circle class="st5" cx="137.8" cy="145.3" r="17.1"/>
	<circle class="st5" cx="288.4" cy="145.3" r="17.1"/>
	<path class="st4" d="M265.7,145.3c0-7.3,3.5-14.2,9.5-18.5"/>
	<circle class="st4" cx="288.4" cy="145.3" r="11.4"/>
	<path class="st3" d="M288.4,138.2c3.9,0,7.1,3.2,7.1,7.1c0,3.9-3.2,7.1-7.1,7.1c-3.9,0-7.1-3.2-7.1-7.1
		C281.3,141.4,284.5,138.2,288.4,138.2z"/>
	<circle class="st4" cx="137.8" cy="145.3" r="11.4"/>
	<path class="st3" d="M137.8,138.2c3.9,0,7.1,3.2,7.1,7.1c0,3.9-3.2,7.1-7.1,7.1c-3.9,0-7.1-3.2-7.1-7.1
		C130.7,141.4,133.9,138.2,137.8,138.2z"/>
	<path class="st4" d="M160.5,145.3c0-12.6-10.2-22.7-22.7-22.7c-12.6,0-22.7,10.2-22.7,22.7v3.5"/>
	<line class="st7" x1="206" y1="122.6" x2="214.5" y2="122.6"/>
	<line class="st7" x1="157.7" y1="122.6" x2="166.2" y2="122.6"/>
	<path class="st3" d="M113.8,148.8c-5.6,0-11.5-7.7-7.7-13.9h11.4C117.5,134.9,112.9,145.6,113.8,148.8z"/>
	<g>
		<line class="st8" x1="269.9" y1="60.1" x2="269.9" y2="65.7"/>
		<line class="st8" x1="269.9" y1="74.3" x2="269.9" y2="79.9"/>
		<line class="st8" x1="279.9" y1="70" x2="274.2" y2="70"/>
		<line class="st8" x1="265.7" y1="70" x2="260" y2="70"/>
	</g>
	<path class="st3" d="M313.3,96.3c-0.6,0-1.1,0.2-1.7,0.4c-0.6-0.9-1.5-1.7-2.6-2.1c1.8-4.3-0.2-9.3-4.6-11.1
		c-4.3-1.8-9.3,0.2-11.1,4.6c-0.4,1-0.6,2-0.7,3c-2.4,0.8-4.4,2.5-5.5,4.8c-2.2-0.9-4.7,0.1-5.5,2.3c-0.2,0.5-0.3,1.1-0.3,1.6h35.5
		C316.8,97.9,315.2,96.3,313.3,96.3C313.3,96.3,313.3,96.3,313.3,96.3z"/>
	<path class="st3" d="M152,79.9c-0.5,0-1,0.1-1.4,0.2c-2-3.6-5.8-5.9-10-5.9c-0.2,0-0.3,0-0.5,0c-1.6-4.4-6.4-6.8-10.9-5.2
		c-3.4,1.2-5.7,4.4-5.7,8c0,0.2,0,0.3,0,0.5c-2.2,0.8-3.9,2.3-4.9,4.4c-2-1.2-4.6-0.6-5.8,1.3c-0.4,0.7-0.7,1.5-0.6,2.3h45.5
		C157.7,82.5,155.1,79.9,152,79.9C152,79.9,152,79.9,152,79.9z"/>
	<path class="st5" d="M123.6,155.2c-5.3-0.7-10.5-2-15.4-3.9c-6.5-2.6-9.7-10-7.1-16.6c0.1-0.2,0.1-0.3,0.2-0.5l5.3-11.7V114
		c0,0,34.1-22.7,82.4-22.7c8.1,0,16.3,0.7,24.3,2.2"/>
	<g>
		<path class="st9" d="M67,148c-3.1,2.8-7.2,4.5-11.7,4.5c-9.8,0-17.7-7.9-17.7-17.7c0-6.1,3.1-11.5,7.8-14.7
			c-0.4-1.5-0.6-3.1-0.6-4.7c0-5.1,2.1-9.7,5.6-12.9c-0.4-1.2-0.6-2.5-0.6-3.8c0-5.3,3.4-9.9,8.1-11.6c0.1-4.9,4.2-8.8,9.1-8.8
			c5,0,9.1,4,9.1,9C80.7,89,84,93.5,84,98.8c0,1-0.1,2-0.4,3c3.9,3.2,6.4,8.1,6.4,13.6c0,1.8-0.3,3.5-0.8,5.1
			c4.4,3.2,7.2,8.4,7.2,14.3c0,9.8-7.9,17.7-17.7,17.7c-2.4,0-4.7-0.5-6.8-1.3"/>
		<line class="st10" x1="50.5" y1="162.3" x2="85.1" y2="162.3"/>
		<polyline class="st10" points="67.1,122.3 67.1,133.1 67.1,162.4 		"/>
		<line class="st10" x1="75.1" y1="127.2" x2="67.1" y2="132.9"/>
		<line class="st10" x1="59" y1="133.1" x2="67.1" y2="138.8"/>
	</g>
</g>
</svg>
