<svg xmlns="http://www.w3.org/2000/svg" width="19" height="19" viewBox="0 0 19 19"><path d="M9.4,4a2,2,0,1,0-2-2A2,2,0,0,0,9.4,4ZM9.4.8A1.2,1.2,0,0,1,10.6,2,1.2,1.2,0,0,1,9.4,3.2,1.3,1.3,0,0,1,8.2,2,1.2,1.2,0,0,1,9.4.8Zm5.7,3.9a1.9,1.9,0,0,0,2-1.9,2,2,0,0,0-4,0A1.9,1.9,0,0,0,15.1,4.7Zm0-3.1a1.2,1.2,0,0,1,1.2,1.2A1.3,1.3,0,0,1,15.1,4a1.2,1.2,0,0,1-1.2-1.2A1.2,1.2,0,0,1,15.1,1.6ZM13,11.3l-.5-4.6a2.2,2.2,0,0,0-2.1-2h-2a2.1,2.1,0,0,0-2,2l-.5,4.6a1,1,0,0,0,.3,1,.9.9,0,0,0,.8.4l.4,5.9c.1.2.2.4.4.4H11a.4.4,0,0,0,.4-.4l.5-5.9a.9.9,0,0,0,.8-.4A1.2,1.2,0,0,0,13,11.3Zm-.9.5h-.6a.4.4,0,0,0-.4.4l-.4,5.9H8.2l-.4-5.9a.4.4,0,0,0-.4-.4H6.8l-.2-.4.6-4.6A1.4,1.4,0,0,1,8.4,5.5h2.1a1.4,1.4,0,0,1,1.2,1.3l.5,4.6A.6.6,0,0,1,12.1,11.8Zm6.5-.5-.6-4a1.9,1.9,0,0,0-1.9-1.8h-2l-.7.2c-.2,0-.3.3-.2.5a.4.4,0,0,0,.5.2h2.4a1.3,1.3,0,0,1,1.2,1.1l.5,4v.3l-.3.2h-.3c-.2,0-.4.1-.4.3l-.4,5.2H13.9l-.3-4a.3.3,0,0,0-.5-.3c-.2,0-.3.2-.3.4l.3,4.3a.4.4,0,0,0,.4.4h3.2a.4.4,0,0,0,.4-.4l.3-5.1a1.9,1.9,0,0,0,.9-.4A1.7,1.7,0,0,0,18.6,11.3ZM5.8,13.2c-.2-.1-.4.1-.4.3l-.3,3.9H2.7l-.4-5.2c0-.2-.2-.3-.4-.3H1.6l-.3-.2v-.3l.5-4A1.3,1.3,0,0,1,2.9,6.3H5.2a.5.5,0,0,0,.5-.3.5.5,0,0,0-.3-.5H2.9A1.9,1.9,0,0,0,1,7.3l-.6,4a1.7,1.7,0,0,0,.3,1,1.9,1.9,0,0,0,.9.4l.3,5.1a.4.4,0,0,0,.4.4H5.5a.4.4,0,0,0,.4-.4l.3-4.2A.4.4,0,0,0,5.8,13.2ZM3.9,4.7a1.9,1.9,0,0,0,2-1.9,2,2,0,0,0-4,0A1.9,1.9,0,0,0,3.9,4.7Zm0-3.1A1.2,1.2,0,0,1,5.1,2.8,1.2,1.2,0,0,1,3.9,4,1.3,1.3,0,0,1,2.7,2.8,1.2,1.2,0,0,1,3.9,1.6Z" fill="#1c1e1f"></path></svg>