<svg xmlns="http://www.w3.org/2000/svg" width="19" height="19" viewBox="0 0 19 19"><path d="M19,.3a.5.5,0,0,0-.4-.3C1.8,0,0,6.9,0,9.9a6.3,6.3,0,0,0,1.6,4.3A11.3,11.3,0,0,0,0,18.6a.4.4,0,0,0,.4.4.5.5,0,0,0,.5-.4,9.8,9.8,0,0,1,1.3-3.8,8.4,8.4,0,0,0,5.1,1.6c5.6,0,6.7-5.3,7.4-8.1A14.3,14.3,0,0,1,18.9.7.6.6,0,0,0,19,.3ZM13.8,8.1c-.8,3.6-2,7.4-6.5,7.4A6.7,6.7,0,0,1,2.7,14a22.9,22.9,0,0,1,9.1-8.9c.3-.1.3-.3.2-.5s-.3-.3-.5-.2a22.7,22.7,0,0,0-9.4,9A5.1,5.1,0,0,1,.9,9.9c0-2.6,1.6-8.8,16.6-9A15.6,15.6,0,0,0,13.8,8.1Z" fill="#1c1e1f"></path></svg>