<svg xmlns="http://www.w3.org/2000/svg" width="19" height="19" viewBox="0 0 19 19"><path d="M15.4,8.7H17a.4.4,0,0,0,0-.8H15.4a.4.4,0,0,0,0,.8Zm1.6,4H13.9c-.3,0-.4.1-.4.4a.4.4,0,0,0,.4.4H17a.4.4,0,0,0,.4-.4A.4.4,0,0,0,17,12.7Zm-5.5-4h2.4c.2,0,.3-.2.3-.4s-.1-.4-.3-.4H11.5a.4.4,0,0,0,0,.8ZM17,2.4H2a2,2,0,0,0-2,2V14.6a2,2,0,0,0,2,2H17a2,2,0,0,0,2-2V4.4A2,2,0,0,0,17,2.4Zm1.2,12.2A1.2,1.2,0,0,1,17,15.8H2A1.2,1.2,0,0,1,.8,14.6V5.5H18.2Zm0-9.8H.8V4.4A1.2,1.2,0,0,1,2,3.2H17a1.2,1.2,0,0,1,1.2,1.2ZM2,15H9.9a.4.4,0,0,0,.4-.4,2.4,2.4,0,0,0-1.6-2.1l-1.2-.2v-.2A3.1,3.1,0,0,0,8,10.8a.7.7,0,0,0,.4-.5V9.6A.7.7,0,0,0,8.3,9H8.2V8.4h.1A1,1,0,0,0,8.3,7a1.6,1.6,0,0,0-1.5-.7,2.1,2.1,0,0,0-1.3.4c-1.7,0-1.9.9-1.9,1.6s.1.4.1.6H3.5a.7.7,0,0,0-.1.6v.7a.8.8,0,0,0,.5.5A2.3,2.3,0,0,0,4.5,12v.3l-1.2.3a2.1,2.1,0,0,0-1.6,2c0,.2,0,.3.1.3Zm1.4-1.7L4.8,13q.3-.1.3-.3l.2-.7a.6.6,0,0,0-.1-.4,2.4,2.4,0,0,1-.6-1.1c0-.2-.2-.3-.4-.3V9.5h.3a.4.4,0,0,0,.1-.3c0-.2-.1-.7-.1-.8s0-.8,1.2-.8h.2a1.6,1.6,0,0,1,1-.3,1.1,1.1,0,0,1,.9.4q.1.3,0,.3L7.5,8c0,.1-.1.2-.1.3v.8a.4.4,0,0,0,.1.3h.2v.6a.4.4,0,0,0-.4.4,1.5,1.5,0,0,1-.6,1.1.6.6,0,0,0-.1.4l.2.7c0,.1.1.2.2.3l1.5.3a1.4,1.4,0,0,1,.9.9h-7A1.5,1.5,0,0,1,3.4,13.3Zm8.1.2h.8a.4.4,0,0,0,.4-.4.4.4,0,0,0-.4-.4h-.8a.4.4,0,0,0-.4.4A.4.4,0,0,0,11.5,13.5Zm0-2.4H17a.4.4,0,1,0,0-.8H11.5a.4.4,0,0,0,0,.8Z" fill="#1c1e1f"></path></svg>