<svg xmlns="http://www.w3.org/2000/svg" viewBox="0 0 179 217" width="179" height="217"><style>tspan { white-space:pre }.shp0 { fill: #ffffff;stroke: #070e15;stroke-linecap:round;stroke-linejoin:round;stroke-width: 3 } .shp1 { fill: none;stroke: #070e15;stroke-linecap:round;stroke-linejoin:round;stroke-width: 3 } .shp2 { fill: #25c778;stroke: #25c778;stroke-linecap:round;stroke-linejoin:round;stroke-width: 3 } .shp3 { fill: #ffffff;stroke: #ffffff;stroke-linecap:round;stroke-linejoin:round;stroke-width: 3 } </style><path class="shp0" d="M58.74 214.88L104.88 214.88" /><path class="shp1" d="M154.09 39.25C148.43 38.8 142.81 37.84 137.32 36.4C131.82 34.96 126.46 33.04 121.31 30.65C116.15 28.27 111.21 25.43 106.56 22.18C101.9 18.93 97.53 15.27 93.52 11.25L86.16 3.89C85.59 3.32 84.91 2.87 84.16 2.56C83.42 2.25 82.62 2.09 81.81 2.09C81 2.09 80.2 2.25 79.46 2.56C78.71 2.87 78.03 3.32 77.46 3.89L70.1 11.25C65.97 15.38 61.48 19.12 56.68 22.43C51.88 25.75 46.79 28.62 41.47 31.02C36.15 33.41 30.62 35.32 24.96 36.72C19.29 38.12 13.51 39 7.69 39.35C6.91 39.39 6.14 39.58 5.43 39.91C4.72 40.23 4.08 40.69 3.54 41.26C3 41.82 2.58 42.48 2.29 43.21C1.99 43.93 1.84 44.71 1.84 45.49L1.84 79.49C1.84 88.77 2.92 98.03 5.05 107.06C7.18 116.1 10.36 124.85 14.51 133.16C18.66 141.46 23.76 149.25 29.71 156.38C35.66 163.51 42.41 169.92 49.84 175.49L78.14 196.71C78.67 197.11 79.26 197.42 79.89 197.62C80.51 197.83 81.17 197.94 81.83 197.94C82.49 197.94 83.15 197.83 83.77 197.62C84.4 197.42 84.99 197.11 85.52 196.71L113.82 175.49C121.25 169.92 128.01 163.51 133.95 156.38C139.9 149.26 145.01 141.46 149.16 133.16C153.31 124.86 156.48 116.1 158.61 107.06C160.75 98.03 161.82 88.77 161.82 79.49L161.82 60.9" /><path class="shp0" d="M161.78 53.21L161.78 45.52" /><path class="shp2" d="M81.81 168.74L59.66 152.13C54.52 148.28 49.84 143.84 45.73 138.91C41.61 133.97 38.08 128.58 35.21 122.83C32.34 117.09 30.14 111.02 28.67 104.77C27.19 98.52 26.45 92.11 26.45 85.69L26.45 58L26.45 58C30.83 58 35.19 57.57 39.49 56.72C43.78 55.86 47.98 54.59 52.02 52.92C56.06 51.24 59.93 49.18 63.57 46.75C67.21 44.32 70.6 41.53 73.7 38.44L81.81 30.33L89.92 38.44C93.02 41.53 96.41 44.32 100.05 46.75C103.69 49.18 107.56 51.25 111.6 52.92C115.65 54.59 119.85 55.87 124.14 56.72C128.44 57.57 132.8 58 137.18 58L137.18 58L137.18 85.68C137.18 92.1 136.44 98.51 134.97 104.76C133.5 111.01 131.3 117.07 128.43 122.82C125.56 128.57 122.04 133.96 117.92 138.9C113.81 143.83 109.14 148.27 104 152.13L81.81 168.74Z" /><path class="shp0" d="M161.78 24.18L161.78 31.87" /><path class="shp0" d="M177.16 39.56L169.47 39.56" /><path class="shp3" d="M74.3 110.53C74.3 105.06 78.3 99.78 82.08 96.81C85.86 93.84 89.87 89.39 89.87 85.31C89.87 80.96 86.72 78.55 81.43 78.55C76.14 78.55 72.53 81.33 70.43 86.8L59.49 80.49C63.2 71.32 71.92 66.13 81.93 66.13C83.23 66.1 84.54 66.19 85.82 66.38C87.11 66.58 88.38 66.88 89.61 67.3C90.85 67.71 92.05 68.23 93.19 68.85C94.34 69.47 95.43 70.19 96.45 71C100.62 74.24 102.66 78.69 102.66 84.35C102.66 98.16 87.09 102.42 87.09 110.49L74.3 110.53ZM75.13 134.28C72.88 132.03 72.2 128.64 73.42 125.7C74.64 122.76 77.51 120.84 80.69 120.84C83.87 120.84 86.74 122.76 87.96 125.7C89.18 128.64 88.5 132.03 86.25 134.28C85.52 135.01 84.65 135.58 83.7 135.98C82.74 136.37 81.72 136.57 80.69 136.57C79.66 136.57 78.64 136.37 77.68 135.98C76.73 135.58 75.86 135.01 75.13 134.28Z" /></svg>