<svg xmlns="http://www.w3.org/2000/svg" viewBox="0 0 96 96" width="96" height="96"><style>tspan { white-space:pre }.shp0 { fill: #02a658 } .shp1 { fill: #ffffff } .shp2 { fill: none;stroke: #414042;stroke-linecap:round;stroke-linejoin:round;stroke-width: 1.5 } .shp3 { fill: none;stroke: #414042;stroke-linecap:round;stroke-linejoin:round;stroke-width: 1.366 } .shp4 { fill: #46b976 } </style><g ><path fill-rule="evenodd" class="shp0" d="M58.7 2.9C38.4 6 43 36.4 63.4 33.5C71.1 32.4 77.7 25.1 76.3 15.8C75.1 8.1 67.9 1.4 58.7 2.9Z" /><path fill-rule="evenodd" class="shp1" d="M60.1 10.9C57.3 11.4 56.3 12.6 56.8 15.9C57.2 18.4 60.1 18.6 62.2 19.2L62.2 22C60 22.4 59.1 22.1 57.2 21.8L56.7 23.9L59.6 24.6C59.8 26.6 59.1 26.5 60.6 26.8C62.4 27.1 61.7 26.3 61.9 24.6C64.8 23.7 66 21.2 64.5 18.3C62.8 15.6 58.3 17.9 59.6 13.6C61.4 12.9 62.6 13.3 64.5 13.5L64.7 11.4L62.4 11C62.1 8.8 63 8.7 60.6 8.7L60.1 10.9Z" /><path fill-rule="evenodd" class="shp2" d="M76.2 32.6C80.5 37.6 83.6 43.6 84.9 49C88.4 49.9 91.4 49.5 91.4 53.5C91.4 57.8 89.3 57.1 85.5 57.7C84 62.3 81.3 68.9 77.7 72.3L71.9 91.6C71.4 93.1 70.1 94.2 68.6 94.2L64.2 94.2C62.6 94.2 61.2 93 60.8 91.3L58.6 83.7C55.5 84.4 53.4 84.8 49.9 84.8C46 84.8 43.7 84.4 40.5 83.6L38.3 91.3C37.9 93 36.5 94.2 34.9 94.2L30.5 94.2C29 94.2 27.7 93.2 27.2 91.6L23.3 77.9C19.4 75.2 10.2 71 7.1 68C3.2 64.3 3.2 65 3.2 59.1C3.2 57.8 3.2 54.1 3.2 51.4C3.2 49.2 4.7 47.3 6.6 47.3L9.8 47.3C12.4 47.3 15.5 41.5 17.9 38.2C20.2 35 15.8 31.1 14.9 29C13.8 26.4 15 25.8 15.6 25.5C17.8 24.2 24.4 24.8 28.6 28.1C30.3 27 39.1 23.6 41.2 23" /><path class="shp3" d="M11.1 94.5L91 94.5" /><path fill-rule="evenodd" class="shp2" d="M36.8 43.6C45 39.4 53.3 38.8 61.5 43.6" /><path fill-rule="evenodd" class="shp4" d="M27.7 45.2C27.7 48.2 26.2 50.6 24.2 50.6C22.3 50.6 20.7 48.2 20.7 45.2C20.7 42.2 22.2 39.8 24.2 39.8C26.1 39.8 27.7 42.2 27.7 45.2Z" /></g></svg>