<svg xmlns="http://www.w3.org/2000/svg" viewBox="0 0 96 96" width="96" height="96"><style>tspan { white-space:pre }.shp0 { fill: none;stroke: #414042;stroke-linecap:round;stroke-linejoin:round;stroke-width: 1.366 } .shp1 { fill: #02a658 } .shp2 { fill: none;stroke: #ffffff;stroke-width: 1.02 } .shp3 { fill: none;stroke: #414042;stroke-linecap:round;stroke-linejoin:round;stroke-width: 1.53 } .shp4 { fill: none;stroke: #000000;stroke-linecap:round;stroke-linejoin:round;stroke-width: 1.5 } .shp5 { fill: none;stroke: #e6e7e8;stroke-linecap:round;stroke-linejoin:round;stroke-width: 3.5 } .shp6 { fill: none;stroke: #02a658;stroke-linecap:round;stroke-linejoin:round;stroke-width: 3.5 } </style><g ><path class="shp0" d="M14.4 94.5L94.3 94.5" /><path fill-rule="evenodd" class="shp1" d="M21.7 47.2C21.1 47.6 20.9 47.5 20.4 47.2C6.5 38.2 2.4 26.1 2.7 12.5C2.8 10.6 3.7 10.2 4.9 9.7L18.3 4C20.9 2.8 21.1 2.9 24.1 4.1L37.7 10.1C39 10.6 39.3 11.4 39.2 13.6C39.6 27.8 33.8 39.1 21.7 47.2Z" /><path fill-rule="evenodd" class="shp2" d="M21.6 43C21.1 43.4 21 43.3 20.6 43C9.3 35.6 6 25.7 6.3 14.5C6.4 12.9 7.1 12.6 8.1 12.2L18.9 7.5C21 6.6 21.1 6.6 23.6 7.6L34.6 12.5C35.6 12.9 35.9 13.6 35.8 15.4C36 27.1 31.3 36.3 21.6 43Z" /><path fill-rule="evenodd" class="shp3" d="M42.8 17.4L78.7 17.4C82.3 17.4 85.3 20.4 85.3 24L85.3 87.8C85.3 91.4 82.3 94.4 78.7 94.4L32.2 94.4C28.6 94.4 25.6 91.4 25.6 87.8L25.6 48.9M42.4 17.4L42.8 17.4" /><path class="shp4" d="M57.8 25.3L76.4 25.3" /><path class="shp4" d="M65.3 30.7L76.4 30.7" /><path class="shp5" d="M37.1 54.7L75.2 54.7" /><path class="shp5" d="M37.1 64L75.2 64" /><path class="shp5" d="M37.1 73.4L75.2 73.4" /><path class="shp5" d="M37.1 83.3L62 83.3" /><path class="shp6" d="M37.1 45.1L55.9 45.1" /></g></svg>