<svg xmlns="http://www.w3.org/2000/svg" viewBox="0 0 310 204" width="310" height="204"><style>tspan { white-space:pre }.shp0 { fill: none;stroke: #414042;stroke-linecap:round;stroke-width: 1.5 } .shp1 { fill: #414042 } .shp2 { fill: #46b976 } .shp3 { fill: #dddddc } .shp4 { fill: none;stroke: #dddddc;stroke-width: 2.842 } .shp5 { fill: none;stroke: #414042;stroke-width: 1.5 } .shp6 { fill: none;stroke: #46b976;stroke-linecap:round;stroke-width: 2.842 } .shp7 { fill: none;stroke: #414042;stroke-linecap:round;stroke-width: 2 } .shp8 { fill: none;stroke: #414042;stroke-linecap:round;stroke-linejoin:round;stroke-width: 1.5 } </style><g ><path class="shp0" d="M289.6 200.4L303.9 200.4" /><path class="shp0" d="M62.3 200.4L281.1 200.4" /><path class="shp1" d="M285.4 201.8C284.63 201.8 284 201.17 284 200.4C284 199.63 284.63 199 285.4 199C286.17 199 286.8 199.63 286.8 200.4C286.8 201.17 286.17 201.8 285.4 201.8Z" /><path fill-rule="evenodd" class="shp2" d="M76.5 160.6L93.6 154.9L93.6 152L76.5 152L76.5 160.6Z" /><path fill-rule="evenodd" class="shp3" d="M275.4 180.5L286.8 180.5L286.8 189L275.4 189L275.4 180.5Z" /><path fill-rule="evenodd" class="shp3" d="M129.1 177.6L237.1 177.6L237.1 189L129.1 189L129.1 177.6L129.1 177.6Z" /><path class="shp4" d="M120.5 151.6L116.2 162.2" /><path fill-rule="evenodd" class="shp3" d="M266.9 159.1L271.2 165.6C273.8 169.5 278.3 171.9 283 171.9L289.6 171.9L289.6 169.1L283.9 166.3L266.9 159.1Z" /><path class="shp5" d="M161.8 135L161.8 154.9" /><path class="shp5" d="M167.5 135.3L167.5 154.9" /><path fill-rule="evenodd" class="shp4" d="M225 154.9C205.5 141.8 182.4 134.8 158.9 135C139.1 135.1 119.4 138.9 101 146.3" /><path class="shp4" d="M167.5 158.8L167.5 189" /><path fill-rule="evenodd" class="shp3" d="M235.7 185.8C236.5 185.8 237.1 186.4 237.1 187.2C237.1 188 236.5 188.6 235.7 188.6C234.9 188.6 234.3 188 234.3 187.2C234.2 186.4 234.9 185.8 235.7 185.8Z" /><path class="shp0" d="M244.5 193.2L129.1 193.2" /><path fill-rule="evenodd" class="shp5" d="M248.8 156.3C262.4 157.6 277 162.6 285.8 166.7C289.1 168.2 291.1 171.5 291.1 175L291.1 193.2L272.1 193.2" /><path fill-rule="evenodd" class="shp5" d="M182.7 131.5C210 135.8 233.6 154.7 235.6 154.9C240.4 155.3 244.8 155.8 248.9 156.3" /><path fill-rule="evenodd" class="shp5" d="M235.7 154.9L152.6 154.9C132.4 154.9 112.3 151 93.6 143.5" /><path class="shp5" d="M107.8 200.4C98.34 200.4 90.7 192.76 90.7 183.3C90.7 173.84 98.34 166.2 107.8 166.2C117.26 166.2 124.9 173.84 124.9 183.3C124.9 192.76 117.26 200.4 107.8 200.4Z" /><path class="shp5" d="M258.4 200.4C248.94 200.4 241.3 192.76 241.3 183.3C241.3 173.84 248.94 166.2 258.4 166.2C267.86 166.2 275.5 173.84 275.5 183.3C275.5 192.76 267.86 200.4 258.4 200.4Z" /><path fill-rule="evenodd" class="shp4" d="M235.7 183.3C235.7 176 239.2 169.1 245.2 164.8" /><path class="shp4" d="M258.4 194.7C252.1 194.7 247 189.6 247 183.3C247 177 252.1 171.9 258.4 171.9C264.7 171.9 269.8 177 269.8 183.3C269.8 189.6 264.7 194.7 258.4 194.7Z" /><path fill-rule="evenodd" class="shp3" d="M258.4 176.2C262.3 176.2 265.5 179.4 265.5 183.3C265.5 187.2 262.3 190.4 258.4 190.4C254.5 190.4 251.3 187.2 251.3 183.3C251.3 179.4 254.5 176.2 258.4 176.2Z" /><path class="shp4" d="M107.8 194.7C101.5 194.7 96.4 189.6 96.4 183.3C96.4 177 101.5 171.9 107.8 171.9C114.1 171.9 119.2 177 119.2 183.3C119.2 189.6 114.1 194.7 107.8 194.7Z" /><path fill-rule="evenodd" class="shp3" d="M107.8 176.2C111.7 176.2 114.9 179.4 114.9 183.3C114.9 187.2 111.7 190.4 107.8 190.4C103.9 190.4 100.7 187.2 100.7 183.3C100.7 179.4 103.9 176.2 107.8 176.2Z" /><path fill-rule="evenodd" class="shp4" d="M130.5 183.3C130.5 170.7 120.3 160.6 107.8 160.6C95.2 160.6 85.1 170.8 85.1 183.3L85.1 186.8" /><path class="shp6" d="M176 160.6L184.5 160.6" /><path class="shp6" d="M127.7 160.6L136.2 160.6" /><path fill-rule="evenodd" class="shp3" d="M83.8 186.8C78.2 186.8 72.3 179.1 76.1 172.9L87.5 172.9C87.5 172.9 82.9 183.6 83.8 186.8Z" /><g ><path class="shp7" d="M239.9 98.1L239.9 103.7" /><path class="shp7" d="M239.9 112.3L239.9 117.9" /><path class="shp7" d="M249.9 108L244.2 108" /><path class="shp7" d="M235.7 108L230 108" /></g><path fill-rule="evenodd" class="shp3" d="M283.3 134.3C282.7 134.3 282.2 134.5 281.6 134.7C281 133.8 280.1 133 279 132.6C280.8 128.3 278.8 123.3 274.4 121.5C270.1 119.7 265.1 121.7 263.3 126.1C262.9 127.1 262.7 128.1 262.6 129.1C260.2 129.9 258.2 131.6 257.1 133.9C254.9 133 252.4 134 251.6 136.2C251.4 136.7 251.3 137.3 251.3 137.8L286.8 137.8C286.8 135.9 285.2 134.3 283.3 134.3L283.3 134.3Z" /><path fill-rule="evenodd" class="shp3" d="M122 117.9C121.5 117.9 121 118 120.6 118.1C118.6 114.5 114.8 112.2 110.6 112.2C110.4 112.2 110.3 112.2 110.1 112.2C108.5 107.8 103.7 105.4 99.2 107C95.8 108.2 93.5 111.4 93.5 115C93.5 115.2 93.5 115.3 93.5 115.5C91.3 116.3 89.6 117.8 88.6 119.9C86.6 118.7 84 119.3 82.8 121.2C82.4 121.9 82.1 122.7 82.2 123.5L127.7 123.5C127.7 120.5 125.1 117.9 122 117.9L122 117.9Z" /><path fill-rule="evenodd" class="shp5" d="M93.6 193.2C88.3 192.5 83.1 191.2 78.2 189.3C71.7 186.7 68.5 179.3 71.1 172.7C71.2 172.5 71.2 172.4 71.3 172.2L76.6 160.5L76.6 152C76.6 152 110.7 129.3 159 129.3C167.1 129.3 175.3 130 183.3 131.5" /><g ><path fill-rule="evenodd" class="shp8" d="M37 186C33.9 188.8 29.8 190.5 25.3 190.5C15.5 190.5 7.6 182.6 7.6 172.8C7.6 166.7 10.7 161.3 15.4 158.1C15 156.6 14.8 155 14.8 153.4C14.8 148.3 16.9 143.7 20.4 140.5C20 139.3 19.8 138 19.8 136.7C19.8 131.4 23.2 126.8 27.9 125.1C28 120.2 32.1 116.3 37 116.3C42 116.3 46.1 120.3 46.1 125.3C50.7 127 54 131.5 54 136.8C54 137.8 53.9 138.8 53.6 139.8C57.5 143 60 147.9 60 153.4C60 155.2 59.7 156.9 59.2 158.5C63.6 161.7 66.4 166.9 66.4 172.8C66.4 182.6 58.5 190.5 48.7 190.5C46.3 190.5 44 190 41.9 189.2" /><path class="shp8" d="M20.5 200.3L55.1 200.3" /><path class="shp8" d="M37.1 160.3L37.1 171.1L37.1 200.4" /><path class="shp8" d="M45.1 165.2L37.1 170.9" /><path class="shp8" d="M29 171.1L37.1 176.8" /></g></g></svg>