<?xml version="1.0" encoding="utf-8"?>
<!-- Generator: Adobe Illustrator 19.0.0, SVG Export Plug-In . SVG Version: 6.00 Build 0)  -->
<svg version="1.1" id="Chat" xmlns="http://www.w3.org/2000/svg" xmlns:xlink="http://www.w3.org/1999/xlink" x="0px" y="0px"
	 viewBox="0 0 370 220" style="enable-background:new 0 0 370 220;" xml:space="preserve">
<style type="text/css">
	.st0{display:none;}
	.st1{display:inline;fill-rule:evenodd;clip-rule:evenodd;fill:#E9EAEE;}
	
		.st2{display:inline;fill-rule:evenodd;clip-rule:evenodd;fill:#FFFFFF;stroke:#000000;stroke-width:0.9998;stroke-miterlimit:2.6131;}
	.st3{display:inline;fill-rule:evenodd;clip-rule:evenodd;fill:none;stroke:#000000;stroke-width:0.9998;stroke-miterlimit:2.6131;}
	.st4{display:inline;fill-rule:evenodd;clip-rule:evenodd;fill:#FFFFFF;}
	.st5{display:inline;fill-rule:evenodd;clip-rule:evenodd;fill:#F1F3F4;}
	.st6{display:inline;fill-rule:evenodd;clip-rule:evenodd;fill:#CFD1D0;}
	.st7{display:inline;}
	.st8{fill-rule:evenodd;clip-rule:evenodd;fill:#000002;}
	
		.st9{display:inline;fill-rule:evenodd;clip-rule:evenodd;fill:#EAEAEA;stroke:#000000;stroke-width:0.9998;stroke-miterlimit:2.6131;}
	
		.st10{display:inline;fill-rule:evenodd;clip-rule:evenodd;fill:#E5E4E4;stroke:#000002;stroke-width:0.9998;stroke-miterlimit:2.6131;}
	.st11{display:inline;fill-rule:evenodd;clip-rule:evenodd;fill:#CDCCCD;}
	.st12{display:inline;fill-rule:evenodd;clip-rule:evenodd;fill:#E0E0DF;}
	
		.st13{display:inline;fill-rule:evenodd;clip-rule:evenodd;fill:#FFFFFF;stroke:#000002;stroke-width:0.8467;stroke-miterlimit:2.6131;}
	.st14{display:inline;fill-rule:evenodd;clip-rule:evenodd;fill:#F89F75;}
	.st15{fill-rule:evenodd;clip-rule:evenodd;fill:#02A658;}
	.st16{display:inline;fill-rule:evenodd;clip-rule:evenodd;fill:#E5E4E4;}
	.st17{display:inline;fill-rule:evenodd;clip-rule:evenodd;fill:none;stroke:#000000;stroke-width:4;stroke-miterlimit:2.6131;}
	
		.st18{display:inline;fill-rule:evenodd;clip-rule:evenodd;fill:#414042;stroke:#000000;stroke-width:0.5;stroke-miterlimit:2.6131;}
	.st19{fill-rule:evenodd;clip-rule:evenodd;fill:#D4D6D8;stroke:#000000;stroke-width:0.9998;stroke-miterlimit:2.6131;}
	.st20{fill-rule:evenodd;clip-rule:evenodd;fill:none;stroke:#000002;stroke-width:0.9998;stroke-miterlimit:10;}
	.st21{display:inline;fill-rule:evenodd;clip-rule:evenodd;fill:#000002;}
	.st22{fill-rule:evenodd;clip-rule:evenodd;fill:#B5B4B5;}
	.st23{fill-rule:evenodd;clip-rule:evenodd;fill:#FFFFFF;stroke:#000000;stroke-width:0.9998;stroke-miterlimit:2.6131;}
	.st24{fill-rule:evenodd;clip-rule:evenodd;fill:#414042;stroke:#000000;stroke-width:0.9998;stroke-miterlimit:2.6131;}
	.st25{fill-rule:evenodd;clip-rule:evenodd;fill:#E9EAEE;}
	.st26{fill-rule:evenodd;clip-rule:evenodd;fill:none;stroke:#000000;stroke-width:0.9998;stroke-miterlimit:2.6131;}
	.st27{fill-rule:evenodd;clip-rule:evenodd;fill:none;stroke:#000000;stroke-width:4;stroke-miterlimit:2.6131;}
	.st28{fill-rule:evenodd;clip-rule:evenodd;fill:#D1D3D4;stroke:#000000;stroke-width:0.5;stroke-miterlimit:2.6131;}
	.st29{fill-rule:evenodd;clip-rule:evenodd;fill:#D1D3D4;}
	.st30{fill-rule:evenodd;clip-rule:evenodd;fill:#EAEAEA;stroke:#000000;stroke-width:0.9998;stroke-miterlimit:2.6131;}
	.st31{fill-rule:evenodd;clip-rule:evenodd;fill:#46B976;}
	.st32{fill-rule:evenodd;clip-rule:evenodd;}
</style>
<g id="Call" class="st0">
	<path id="XMLID_61_" class="st1" d="M262,75.3c-2.1,24-44.3,12.9-39.1,40.3c5.2,27.4-29.9,20.1-41.2,18.1c-11.3-2-29.9-10-55.3,2.7
		s-43.8,3.4-49.8-9C70.7,114.9,76.3,72,106,73.1c29.7,1.1,68.4-22.3,68.4-22.3S265.9,21.6,262,75.3z"/>
	<path id="XMLID_60_" class="st2" d="M177.9,117.6c3.4-5.2,5.5-11.7,2.6-17.6c-0.3-0.6-0.7-1.3-1.3-1.5c-1.4-0.5-3.2,0-4.4,0.7
		c-4.1,2.4-6.7,7-9,11c-2.4,4.2-4.5,8.6-6.9,12.8c-1,1.7-2,3.4-2.5,5.3c-0.5,1.7-0.5,3.6,0.1,5.2c2.7,7,10.2-1.6,12.5-4.2
		C172.2,125.7,175.2,121.7,177.9,117.6z"/>
	<path id="XMLID_59_" class="st2" d="M212,110.8c1.1-3.9,1.6-8-0.8-10.6c-1.1-1.2-3.1-2.1-4.7-2.7c-3.1-1.2-6.3-2.7-9.7-3.2
		c-3.5-0.5-7.5-0.9-11-0.1c-2.2,0.5-4.3,1.4-6.3,2.4c-2.7,1.3-4.6,2.2-5.5,4.9c-1,3-1.5,6-1.9,9.1c-0.9,9,0.3,18.1,0.3,27.1
		c0,0.9,0,1.8,0.5,2.6c0.9,1.6,3.3,1.6,5,1.6c5.7,0,11.5,0,17.2,0c2.4,0,4.2,0.2,6.4,0.6c1.9,0.3,3.5-0.5,4.4-2
		c0.9-1.4,0.9-3.1,1-4.7c0.4-6.3,1.4-12.5,3.1-18.6C210.5,115.5,211.3,113.2,212,110.8z"/>
	<path id="XMLID_58_" class="st3" d="M212,110.8c1.1-3.9,1.6-8-0.8-10.6c-1.1-1.2-3.1-2.1-4.7-2.7c-3.1-1.2-6.3-2.7-9.7-3.2
		c-3.5-0.5-7.5-0.9-11-0.1c-2.2,0.5-4.3,1.4-6.3,2.4c-2.7,1.3-4.6,2.2-5.5,4.9c-1,3-1.5,6-1.9,9.1c-0.9,9,0.3,18.1,0.3,27.1
		c0,0.9,0,1.8,0.5,2.6c0.9,1.6,3.3,1.6,5,1.6c5.7,0,11.5,0,17.2,0c2.4,0,4.2,0.2,6.4,0.6c1.9,0.3,3.5-0.5,4.4-2
		c0.9-1.4,0.9-3.1,1-4.7c0.4-6.3,1.4-12.5,3.1-18.6C210.5,115.5,211.3,113.2,212,110.8z"/>
	<path id="XMLID_57_" class="st4" d="M198.1,99.4c0.9-1.4,1.3-3.1,0.8-4.6c-0.7-0.2-1.4-0.3-2.1-0.5c-3.5-0.5-7.5-0.9-11-0.1
		c-0.4,0.1-0.8,0.2-1.2,0.3c-0.4,0.4-0.8,0.9-1.1,1.4c-0.6,1.4-0.4,3.1,0.4,4.4c0.8,1.2,2.1,2.1,3.5,2.4c2.3,0.5,5,0.5,7.2-0.4
		C196.1,101.8,197.3,100.7,198.1,99.4z"/>
	<path id="XMLID_54_" class="st3" d="M198.1,99.4c0.9-1.4,1.3-3.1,0.8-4.6 M184.6,94.5c-0.4,0.4-0.8,0.9-1.1,1.4
		c-0.6,1.4-0.4,3.1,0.4,4.4c0.8,1.2,2.1,2.1,3.5,2.4c2.3,0.5,5,0.5,7.2-0.4c1.4-0.6,2.6-1.6,3.4-3"/>
	<path id="XMLID_53_" class="st5" d="M175.1,141.5c0.2,0.1,0.4,0.2,0.6,0.3c0.6,0,1.1,0,1.6,0c5.7,0,11.5,0,17.2,0
		c2.4,0,4.2,0.2,6.4,0.6c1.9,0.3,3.5-0.5,4.4-2c0.9-1.4,0.9-3.1,1-4.7c0.4-6.3,1.4-12.5,3.1-18.6c0.3-0.9,0.6-2,1-3.1
		c-0.1-1-0.4-1.6-1-1.6c-0.2,0-0.3,0.1-0.5,0.2c-0.8,0.6-1.2,1.6-1.6,2.5c-1.2,2.9-2.2,7.5-4.7,9.6c-2.6,2.1-5.6,3.1-8.8,4.1
		c-5.5,1.8-11.6,2.5-16.2,6.2c-0.8,0.6-1.5,1.3-2.2,2c-0.6,0.6-1.5,1.2-1.9,2.1C173,140.4,174,141,175.1,141.5z"/>
	<path id="XMLID_52_" class="st6" d="M176.5,76.4c-2.8,2.9-0.3,10.1,4.3,9c4.9-1.1,4.1-8.7-0.3-9.9
		C178.8,75.1,177.4,75.5,176.5,76.4z"/>
	<g id="XMLID_50_" class="st7">
		<path id="XMLID_51_" class="st8" d="M199,85.9c-1.1,1-2.3,1.9-3.8,2.2c-2.8,0.6-5.5-0.6-7.9-2c-2.5-1.5-5-3.1-7.4-4.8
			c-1.7-1.3-3.4-2.6-4.5-4.5c-1.2-2.2-1.3-4.8-1.1-7.2c0.2-1.7-0.6-3.1-0.9-4.7c-0.7-3.1,0-6.7,2.9-8.5c1.5-0.9,3-0.8,4.5-0.1
			c1.2,0.5,2.3,1.2,3.5,1.6c2.6,0.7,5.5-0.3,8.1-0.8c1.9-0.4,3.9-0.6,5.7,0c2,0.7,3,2.2,4.1,3.9c1,1.5,2.4,2.6,3.6,3.9
			c1.5,1.8,2,4,1.5,6.3c-0.8,3.3-2.7,6.2-4.4,9.1C201.9,82.1,200.7,84.3,199,85.9z"/>
	</g>
	<g id="XMLID_48_" class="st7">
		<path id="XMLID_49_" class="st8" d="M194.9,85.8c-0.4,0.4-0.8,0.7-1.3,1c-1.2,0.6-2.7,0.6-4,0.2c-1.3-0.4-2.5-1.2-3.6-2
			c-3.1-2.2-6.8-5-8.7-8.3c-1.1-2-2-4.5-0.9-6.7c0.9-1.9,2.8-3.3,4.9-3.5c0.2,0,0.4,0,0.5,0.1c0.2,0.1,0.3,0.3,0.4,0.4
			c0.8,1.3,1.4,2.7,2.3,3.8c1,1.3,2.3,2.2,3.7,3c2.2,1.4,4.7,2.4,6.8,3.9c1.5,1.1,1.6,3.7,1.2,5.4C196.1,84.1,195.6,85,194.9,85.8z"
			/>
	</g>
	<path id="XMLID_47_" class="st9" d="M224.2,119.3c0.8,1.5,1.7,3,2.5,4.6c1.7,3.1,4.8,10-0.2,11.7c-2.5,0.9-3.9,0-5.6-1.8
		c-6.3-6.9-11.7-14.6-15.9-22.8c-1.6-3.1-5.8-11.1-0.7-12.9c1.6-0.6,3.5-0.4,5,0.4c0.7,0.4,1.3,0.9,1.9,1.4
		c3.7,3.3,6.3,7.4,8.6,11.7C221.3,114.1,222.7,116.7,224.2,119.3z"/>
	<path id="XMLID_46_" class="st10" d="M198.4,130c0.5-0.1,0.9-0.1,1.4-0.2c2.2-0.3,4.4-0.7,6.6-1.2c4.3-0.9,8.6-1.7,13-2.1
		c0.5,0,0.9-0.1,1.4-0.1c2-0.1,4-0.2,5.8,0.7c1.8,0.9,3.2,3.1,2.8,5.2c-0.3,1.5-1.5,2.6-2.7,3.1c-1.3,0.6-2.7,0.7-4.1,0.8
		c-4.5,0.3-9,0.6-13.4,0.9c-2.2,0.1-4.4,0.3-6.7,0.5c-2.1,0.1-4.3,0.4-6.4,0.4c-0.9,0-1.9-0.2-2.7-0.7c-1-0.8-1.7-2.5-1.8-3.9
		c-0.1-0.7,0.1-1.6,0.6-2c0.3-0.2,0.7-0.3,1-0.4C195,130.6,196.7,130.3,198.4,130z"/>
	<path id="XMLID_45_" class="st11" d="M193.6,100.7c1.6-0.5,2.8-1.5,3.3-3c0.4-1.4-0.3-3-0.4-4.4c-0.1-1.4-0.1-2.7,0-4.1
		c0.1-1.3,0.2-2.6,0-3.8c-0.1-0.7-0.5-0.6-1.2-0.9c-0.7-0.3-1.5-0.3-2.3-0.3c-1.6,0-5.8-0.1-6.8,1.3c-0.5,0.6-0.5,1.5-0.5,2.2
		c0,0.9-0.2,2.1-0.3,3.4c-0.1,0.6,0,1.2-0.1,1.7c-0.1,0.6-0.3,1.3-0.6,1.9c-0.8,2.3-0.1,4.5,2.5,5.6
		C189,101.2,191.5,101.4,193.6,100.7z"/>
	<path id="XMLID_44_" class="st12" d="M196.5,85.4c-0.1-0.7-0.5-0.6-1.2-0.9c-0.7-0.3-1.5-0.3-2.3-0.3c-1.6,0-5.8-0.1-6.8,1.3
		c-0.5,0.6-0.5,1.5-0.5,2.2c0,0.9-0.2,2.1-0.3,3.4c-0.1,0.6,0,1.2-0.1,1.7c-0.1,0.5-0.2,1-0.4,1.4c1.6,0.6,3.3,0.7,4.9,0.3
		c2.9-0.7,5.1-2.5,6.7-4.9c0-0.2,0-0.4,0-0.6C196.6,88,196.7,86.7,196.5,85.4z"/>
	<path id="XMLID_43_" class="st13" d="M198.8,76.3c0-2.1-0.3-4.2-0.9-5.9c-2.4-7.3-11.5-9.1-16.9-3.9c-6.1,5.8-3.8,19.8,2.7,24.6
		c1.7,1.3,4.1,1.8,6.1,1.2C196.2,90.7,198.9,83,198.8,76.3z"/>
	<path id="XMLID_42_" class="st12" d="M198,70.4c-2.4-7.3-11.5-9.1-16.9-3.9c-0.7,0.7-1.3,1.4-1.7,2.3c0.3,0.3,0.7,0.5,1,0.7
		c2.3,1.4,4.8,2.4,7.4,3.1c1.1,0.3,2.3,0.5,3.2,1.2c0.5,0.4,0.9,0.9,1.2,1.5c0.4,0.7,0.7,1.5,0.9,2.2c0.6,1.7,0.8,3.4,1,5.1
		c0,0.2,0.1,0.4,0.2,0.5c0.1,0.1,0.3,0.1,0.5,0.1c1,0,1.5-1,2.3-1.5c0.5-0.3,0.9-0.6,1.4-1c0.3-1.5,0.4-3.1,0.4-4.6
		C198.8,74.1,198.5,72.1,198,70.4z"/>
	<g id="XMLID_40_" class="st7">
		<path id="XMLID_41_" class="st8" d="M193.2,75.1c0.3,0.7,0.5,1.5,0.6,2.3c0.3,1.7,0.4,3.5,0.4,5.2c0,0.2,0,0.4,0.1,0.5
			c0.1,0.1,0.3,0.2,0.5,0.2c1,0.1,1.6-0.8,2.5-1.2c0.9-0.4,1.8-0.8,2.5-1.4c2.2-1.7,1.7-4.5,1.6-7c0-1.4-0.1-2.8-0.5-4.1
			c-0.4-1.4-1.3-2.7-2.3-3.8c-2.9-3.2-7.4-4.8-11.7-4.6c-2.1,0.1-4.5,1-6.1,2.6c-1.3,1.3,0.3,3.1,1.4,4c2.1,1.7,4.5,3,6.9,4
			c1.1,0.4,2.2,0.8,3,1.6C192.6,73.9,192.9,74.5,193.2,75.1z"/>
	</g>
	<path id="XMLID_39_" class="st14" d="M197.7,76.5c2.8-1.5,3.7,2.3,3.2,4.3c-0.2,0.8-0.5,1.6-1,2.2c-0.7,0.9-2.6,2.3-3.7,1.4
		c-0.5-0.4-0.5-1.2-0.6-1.8C195.6,80.7,195.8,77.5,197.7,76.5z"/>
	<g id="XMLID_36_" class="st7">
		<g id="XMLID_37_">
			<path id="XMLID_38_" class="st15" d="M188.6,89.2c-0.7,0-1.4-0.1-2.1-0.2l0.1-0.8c2.5,0.4,5,0,7.2-1c0.6-0.3,1.1-0.6,1.6-0.9
				c0.8-0.6,1.5-1.4,2-2.2l0.7,0.4c-0.6,1-1.3,1.8-2.3,2.5c-0.5,0.4-1.1,0.7-1.7,1C192.4,88.8,190.5,89.2,188.6,89.2z"/>
		</g>
	</g>
	<g id="XMLID_33_" class="st7">
		<g id="XMLID_34_">
			<path id="XMLID_35_" class="st15" d="M184,87.5c1-0.9,3.3-0.8,4,0.1c0.6,0.7,0.4,1.5-0.2,2.1c-0.7,0.7-1.6,0.6-2.5,0.4
				C184.2,89.9,182.8,88.6,184,87.5z"/>
		</g>
	</g>
	<g id="XMLID_31_" class="st7">
		<path id="XMLID_32_" class="st15" d="M198.8,75.4c-3.9,1-5.5,8.4-1.1,9.9c4.7,1.6,8.1-5.3,5-8.6C201.5,75.4,200.1,75,198.8,75.4z"
			/>
	</g>
	<path id="XMLID_30_" class="st16" d="M200.1,76.3c-2.7,0.4-4.4,6.2-1.6,7.8c3,1.7,5.8-3.4,4.1-6.4C201.9,76.6,201,76.2,200.1,76.3z
		"/>
	<g id="XMLID_27_" class="st7">
		<g id="XMLID_28_">
			<path id="XMLID_29_" class="st15" d="M200.7,75.9l-1.1-0.1c0.7-6.2,0.4-14-5.1-16.6c-2.6-1.2-5-2-9.2-1.2
				c-0.6-0.1-1.1-0.3-1.1-0.3c3.8-1.9,7.9-0.7,10.7,0.6C201,61,201.4,69.4,200.7,75.9z"/>
		</g>
	</g>
	<line id="XMLID_26_" class="st17" x1="104.3" y1="165.9" x2="110.5" y2="152.2"/>
	<line id="XMLID_25_" class="st17" x1="285.5" y1="165.9" x2="279.4" y2="152.2"/>
	<line id="XMLID_24_" class="st3" x1="292.6" y1="165.3" x2="288.1" y2="154.4"/>
	<polygon id="XMLID_23_" class="st2" points="83.2,148.6 300.8,148.1 255,137.5 122,137.1 	"/>
	<polygon id="XMLID_22_" class="st18" points="83.4,148.8 83.4,154.3 301.1,154.3 301.1,148.4 	"/>
	<line id="XMLID_21_" class="st3" x1="97.2" y1="165.3" x2="101.8" y2="154.4"/>
	<g id="XMLID_18_" class="st7">
		<path id="XMLID_20_" class="st19" d="M193.3,136.7c-1.1,0.2-1.9,1.1-2.9,1.5c-0.8,0.2-1.6,0.1-2.3-0.2c-0.7-0.2-1.3-0.4-2-0.6
			c-0.5-0.2-1.2-0.5-1.8-0.4c-1.5,0.3-3,1.4-4.3,2.1c-0.3,0.2-0.6,0.3-1,0.3c-0.3-0.1-0.6-0.5-0.4-0.8c-0.4,0.4-0.9,1.1-1.5,0.8
			c-0.3-0.1-0.4-0.5-0.3-0.7c-0.2,0.2-0.4,0.5-0.7,0.6c-0.3,0.1-0.7,0.1-0.9-0.2c-0.1-0.1-0.1-0.3-0.1-0.4c0-0.5,0.1-1,0.3-1.5
			c1.1-2.3,3.5-4.1,5.5-5.5c0.4-0.2,0.7-0.5,1.2-0.6c0.4-0.1,0.8-0.1,1.2-0.1c2.6,0,5.1,0.4,7.5,1.2c0.5,0.2,1.1,0,1.6-0.1
			c0.4-0.1,0.8-0.1,1.2,0c0.4,0.1,0.7,0.5,1,0.8c0.5,0.7,0.8,1.5,0.8,2.3c0,0.6-0.1,1.3-0.8,1.4c-0.3,0.1-0.6,0-0.9,0.1
			C193.5,136.6,193.4,136.7,193.3,136.7z"/>
		<path id="XMLID_19_" class="st20" d="M193.3,136.7c-1.1,0.2-1.9,1.1-2.9,1.5c-0.8,0.2-1.6,0.1-2.3-0.2c-0.7-0.2-1.3-0.4-2-0.6
			c-0.5-0.2-1.2-0.5-1.8-0.4c-1.5,0.3-3,1.4-4.3,2.1c-0.3,0.2-0.6,0.3-1,0.3c-0.3-0.1-0.6-0.5-0.4-0.8c-0.4,0.4-0.9,1.1-1.5,0.8
			c-0.3-0.1-0.4-0.5-0.3-0.7c-0.2,0.2-0.4,0.5-0.7,0.6c-0.3,0.1-0.7,0.1-0.9-0.2c-0.1-0.1-0.1-0.3-0.1-0.4c0-0.5,0.1-1,0.3-1.5
			c1.1-2.3,3.5-4.1,5.5-5.5c0.4-0.2,0.7-0.5,1.2-0.6c0.4-0.1,0.8-0.1,1.2-0.1c2.6,0,5.1,0.4,7.5,1.2c0.5,0.2,1.1,0,1.6-0.1
			c0.4-0.1,0.8-0.1,1.2,0c0.4,0.1,0.7,0.5,1,0.8c0.5,0.7,0.8,1.5,0.8,2.3c0,0.6-0.1,1.3-0.8,1.4c-0.3,0.1-0.6,0-0.9,0.1
			C193.5,136.6,193.4,136.7,193.3,136.7"/>
	</g>
	<rect id="XMLID_17_" x="159.9" y="141.1" class="st21" width="28.7" height="2.2"/>
	<path id="XMLID_16_" class="st21" d="M107.2,106.9l6.7,33.9c0.2,0.9,1,1.6,1.9,1.6h44.9c1.2,0,2.1-1.1,1.9-2.3l-6.8-34.4
		c-0.2-0.9-1-1.6-1.9-1.6H109c-0.7,0-1.2,0.3-1.6,0.8l0,0L107.2,106.9z"/>
	<g id="XMLID_14_" class="st7">
		<path id="XMLID_15_" class="st15" d="M114.6,143.3h44.9c1.2,0,2.1-1.1,1.9-2.3l-6.8-34.4c-0.2-0.9-1-1.6-1.9-1.6h-44.9
			c-1.2,0-2.1,1.1-1.9,2.3l6.8,34.4C112.9,142.6,113.7,143.3,114.6,143.3z"/>
	</g>
	<path id="XMLID_13_" class="st4" d="M128.7,123.3c0.4,2.3,2.6,4.2,5,4.2c2.3,0,3.8-1.9,3.4-4.2c-0.4-2.3-2.7-4.2-5-4.2
		C129.8,119.1,128.3,120.9,128.7,123.3z"/>
	<g id="XMLID_2_" class="st7">
		<g id="XMLID_11_">
			<path id="XMLID_12_" class="st22" d="M242.8,119.3c0.4-0.8,0.3-1.7,0.1-2.4c-0.2-0.8-0.7-1.5-1.1-2.2c-0.5-0.7-0.9-1.5-1.2-2.5
				c-0.3-1-0.2-2.1,0.1-3c0.6-1.9,1.8-3.3,2.6-4.7c0.4-0.7,0.8-1.5,0.9-2.3c0.2-0.8,0.1-1.7-0.3-2.5c0.7,0.6,1,1.6,1.1,2.5
				c0,0.9-0.2,1.9-0.6,2.8c-0.7,1.7-1.8,3.1-2.2,4.6c-0.2,0.7-0.3,1.5-0.1,2.2c0.1,0.7,0.5,1.5,0.9,2.3c0.4,0.8,0.7,1.7,0.8,2.6
				C243.7,117.6,243.4,118.7,242.8,119.3z"/>
		</g>
		<path id="XMLID_10_" class="st23" d="M242.3,128c3.7,0,6.8-0.7,6.8-1.5c0-0.8-3.1-1.5-6.8-1.5c-3.7,0-6.8,0.7-6.8,1.5
			C235.5,127.3,238.5,128,242.3,128z"/>
		<path id="XMLID_9_" class="st24" d="M249.1,127.2v9.9c0,3.4-2.8,6.3-6.3,6.3h-1.1c-3.4,0-6.3-2.8-6.3-6.3v-9.9
			C240.4,128.4,244.9,128.4,249.1,127.2z"/>
		<g id="XMLID_7_">
			<path id="XMLID_8_" class="st22" d="M246.4,123.1c-0.3-0.5-0.2-1.1-0.1-1.6c0.2-0.5,0.4-1,0.8-1.5c0.3-0.5,0.6-1,0.8-1.7
				c0.2-0.7,0.1-1.4,0-2c-0.4-1.3-1.2-2.2-1.7-3.1c-0.3-0.5-0.5-1-0.6-1.5c-0.1-0.5-0.1-1.1,0.2-1.6c-0.5,0.4-0.7,1-0.7,1.7
				c0,0.6,0.1,1.3,0.4,1.8c0.5,1.1,1.2,2.1,1.5,3.1c0.2,0.5,0.2,1,0.1,1.5c-0.1,0.5-0.4,1-0.6,1.5c-0.2,0.5-0.5,1.1-0.5,1.8
				C245.8,122,245.9,122.7,246.4,123.1z"/>
		</g>
		<g id="XMLID_5_">
			<path id="XMLID_6_" class="st22" d="M237.8,123.1c-0.3-0.5-0.2-1.1-0.1-1.6c0.2-0.5,0.4-1,0.8-1.5c0.3-0.5,0.6-1,0.8-1.7
				c0.2-0.7,0.1-1.4,0-2c-0.4-1.3-1.2-2.2-1.7-3.1c-0.3-0.5-0.5-1-0.6-1.5c-0.1-0.5-0.1-1.1,0.2-1.6c-0.5,0.4-0.7,1-0.7,1.7
				c0,0.6,0.1,1.3,0.4,1.8c0.5,1.1,1.2,2.1,1.5,3.1c0.2,0.5,0.2,1,0.1,1.5c-0.1,0.5-0.4,1-0.6,1.5c-0.2,0.5-0.5,1.1-0.5,1.8
				C237.2,122,237.4,122.7,237.8,123.1z"/>
		</g>
		<g id="XMLID_3_">
			<path id="XMLID_4_" class="st22" d="M243,126.3c0.3-0.3,0.3-0.7,0.1-1c-0.2-0.3-0.6-0.6-0.9-0.9c-0.4-0.3-0.8-0.6-1-1
				c-0.2-0.4-0.2-0.9,0.1-1.3c0.5-0.8,1.5-1.4,2.2-2c0.3-0.3,0.6-0.6,0.7-0.9c0.1-0.3,0.1-0.7-0.2-1c0.6,0.3,0.9,0.7,0.9,1
				c0,0.4-0.2,0.8-0.5,1.2c-0.6,0.7-1.5,1.3-1.9,1.9c-0.2,0.3-0.2,0.6-0.1,0.9c0.1,0.3,0.4,0.6,0.7,1c0.3,0.3,0.6,0.7,0.7,1.1
				C243.7,125.6,243.5,126.1,243,126.3z"/>
		</g>
	</g>
</g>
<g id="XMLID_126_">
	<path id="XMLID_124_" class="st25" d="M91.5,109c2.1-24,44.3-12.9,39.1-40.3c-5.2-27.4,29.9-20.1,41.2-18.1
		c11.3,2,29.9,10,55.3-2.7s43.8-3.4,49.8,9c5.9,12.4,0.3,55.4-29.4,54.3c-29.7-1.1-68.4,22.3-68.4,22.3S87.6,162.7,91.5,109z"/>
	<path id="XMLID_123_" class="st26" d="M234.9,127c20.8,8.3-18.7,21.8,15.2,18.5c19.9-1.9,24.3,2.8,25.6,20.1l-0.2-0.2"/>
	<line id="XMLID_122_" class="st27" x1="107.5" y1="165.6" x2="113.7" y2="151.9"/>
	<line id="XMLID_121_" class="st27" x1="283.1" y1="165.6" x2="276.9" y2="151.9"/>
	<line id="XMLID_120_" class="st26" x1="293" y1="165" x2="288.4" y2="154.2"/>
	<polygon id="XMLID_119_" class="st26" points="83.6,148.3 301.2,147.9 255.4,137.2 122.4,136.8 	"/>
	<polygon id="XMLID_118_" class="st28" points="83.8,148.5 83.8,154 301.5,154 301.5,148.1 	"/>
	<path id="XMLID_117_" class="st29" d="M129.1,94.5c-8,11.9-2.6,11.9,1.1,17c3.7,5.1-9.7,7.2-4.1,12.7c5.7,5.5,14,1.1,13.9-0.2
		c-0.2-1.3,0.9-3.5-6.6-4.3c-6-0.7,2.5-5.1,3.4-8.8C138.3,103.8,126.9,103.2,129.1,94.5z"/>
	<path id="XMLID_116_" class="st23" d="M132.9,127.8c3.7,0,6.8-0.7,6.8-1.5s-3.1-1.5-6.8-1.5c-3.7,0-6.8,0.7-6.8,1.5
		S129.2,127.8,132.9,127.8z"/>
	<line id="XMLID_115_" class="st26" x1="97.6" y1="165" x2="102.2" y2="154.2"/>
	<path id="XMLID_114_" class="st24" d="M139.7,127v9.9c0,3.4-2.8,6.3-6.3,6.3h-1.1c-3.4,0-6.3-2.8-6.3-6.3V127
		C131.1,128.2,135.6,128.2,139.7,127z"/>
	<path id="XMLID_113_" class="st24" d="M258.3,127.6l-1.3,10.5c-0.4,3.2-2.6,5.9-5.9,5.9h-1.7c-3.2,0-5.5-2.7-5.9-5.9l-1.3-10.5
		C248,129.8,253.3,129.7,258.3,127.6z"/>
	<path id="XMLID_112_" class="st23" d="M250.2,129.1c4.7,0,8.5-0.7,8.5-1.6c0-0.9-3.8-1.6-8.5-1.6s-8.5,0.7-8.5,1.6
		C241.8,128.4,245.6,129.1,250.2,129.1z"/>
	<path id="XMLID_111_" class="st23" d="M245.7,94.3c-6.5-1.3-7.5-5.3-8.4-13.4c-0.6-5.2-5.2-4.6-2.4-16.1c0.7-2.7-1.4-8-1.7-11.5
		c-0.8-7.9,5.4-5.6,8.6,0.8l3.8,7.7c1.8,6.4,5.1,12.6,4.4,19.9c-0.4,3.4-0.1,6.4-0.6,9.7C249,93.7,247.8,94.7,245.7,94.3z"/>
	<path id="XMLID_110_" class="st30" d="M261.8,104.1c-3.9-2.7,19.4-33.3,43.7-33.5c0.7,0,3-0.2,3.2,0.1c0.3,0.5-1.1,1.2-1.6,1.6
		c-8.4,7.4-5.8,12.1-9.8,13.1l-5.9,1.5c-2.4,0.6-2.9,3.7-5.3,4.6l-3.2,0.6c-3.1,0.6-2.6,4.9-11.7,5.1
		C266,100.3,263.7,105.4,261.8,104.1z"/>
	<path id="XMLID_109_" class="st23" d="M149.7,82.9h83.2c1.7,0,3,1.4,3,3V134c0,1.7-1.4,3-3,3h-83.2c-1.7,0-3-1.4-3-3V86
		C146.7,84.3,148.1,82.9,149.7,82.9z"/>
	<path id="XMLID_108_" class="st31" d="M151.1,86.8h79.8c0.3,0,0.6,0.3,0.6,0.6v38.6c0,0.3-0.3,0.6-0.6,0.6h-79.8
		c-0.3,0-0.6-0.3-0.6-0.6V87.3C150.6,87,150.8,86.8,151.1,86.8z"/>
	<line id="XMLID_107_" class="st26" x1="146.7" y1="129.3" x2="235.8" y2="129.3"/>
	<path id="XMLID_106_" class="st30" d="M255.8,104.4c-1.3,1.5-6-1.9-3.6-6.2c3.4-6.1-2.7-13.8,2-22c0.5-0.9,1.1-1.8,3-2.6
		c3.3-1.4,17.5-0.4,16.2,7.3c-0.5,3.2-5.9,4.5-5.5,6.1c1.3,4.6-5.1,6.1-6,9.6c-0.9,3.4-3.4,1.9-4.1,4.8
		C257.4,103.1,256.3,103.8,255.8,104.4z"/>
	<path id="XMLID_105_" class="st30" d="M208.5,70.9c0.1-0.1,0.7,0.3,1,0.5c20.4,9.9,32.5,25,37.3,44.8c-10.4-1.5-17.7-8.2-19.2-20.1
		c-4.6,0-6.7-1.6-9.2-4.3c-2.2-2.4-2.2-5-1.7-7.6c-7-5.3-7.6-5.8-8.2-12.2C208.5,71.7,208.4,71,208.5,70.9z"/>
	<path id="XMLID_104_" class="st26" d="M249.4,125.6c0.1-27.4-3.3-53.6-14-77.5"/>
	<path id="XMLID_103_" class="st26" d="M247.8,126c0-3.8-0.5-7.4-1.2-10.9"/>
	<path id="XMLID_102_" class="st26" d="M251.5,127.1c3.5-27.1,5.1-31.8,15.1-53.4"/>
	<path id="XMLID_101_" class="st26" d="M252.4,127.1c2-10.2,5.1-18.1,9.5-23.2"/>
	<path id="XMLID_100_" class="st23" d="M196.9,117.4l-15.6-0.2l-2.4-9.1c-2.9,0.5-6.2-5.6-1.9-5.7l-0.1-4.8c0-3,0.2-5.7,1.1-7.9
		c1.6-4.2,2.5-7.6,8-8.2c0.3,0,1,1.6,1.3,1.5c0.5-0.1,0-1.7,0.5-1.8c0.5-0.1,1.5-0.3,2-0.3c0.9,0,1.8,0,2.7,0.2
		c1.9,0.4,7.7,0.6,5.7,2.6c-0.5,0.5,0.5,1.1,0.9,1.7c2.1,2.8,3.3,6.9,2.8,12.3l-0.1,4c3.3-0.8,2.1,5.6-1.4,5.9L196.9,117.4z"/>
	<path id="XMLID_99_" class="st32" d="M196.4,114.1c-5.2-2.2-8.1-2.3-13.3-0.2l-5.9-13.1l-0.1-3.1c0-3,0.2-5.7,1.1-7.9
		c1.6-4.2,2.5-7.6,8-8.2c0.3,0,1,1.6,1.3,1.5c0.5-0.1,0-1.7,0.5-1.8c0.5-0.1,1.5-0.3,2-0.3c0.9,0,1.8,0,2.7,0.2
		c1.9,0.4,7.7,0.6,5.7,2.6c-0.5,0.5,0.5,1.1,0.9,1.7c2.1,2.8,3.3,6.9,2.8,12.3l-0.1,3.5C200.5,104.5,198.1,110.7,196.4,114.1z"/>
	<path id="XMLID_98_" class="st23" d="M177.3,121.9l24-0.1c0.2-0.5,0.3-0.6,0-1.7c-0.3-1.1-1.6-2.7-4.4-3l-14.2-0.2
		c-2.7,0.1-5,1.7-5.3,2.5C177,120.2,176.9,121,177.3,121.9z"/>
	<path id="XMLID_97_" class="st23" d="M154.9,143.9l2.2-10.9c0.2-2.6,1.4-4.8,5-6.3l15.2-5.5l0.3,0l24.2,0.1l16.5,6.7
		c3,0.9,4.6,2.5,4.5,4.8l1.3,10.9L154.9,143.9z"/>
	<path id="XMLID_96_" class="st26" d="M163.2,136.8c0.2-3.3-0.8-6.1-3.6-8.3"/>
	<path id="XMLID_95_" class="st26" d="M220.1,128.8c-2.8,2.2-3.8,5-3.6,8.3c0.2,3.3,0,6.2,0,6.2"/>
	<path id="XMLID_94_" class="st30" d="M160.7,142.1h57.9c6,0,11.9,5,11,11l-3.4,23.3c-0.9,6-4.9,11-11,11h-51.1c-6,0-10.1-5-11-11
		l-3.4-23.3C148.8,147.1,154.6,142.1,160.7,142.1z"/>
	<path id="XMLID_74_" class="st30" d="M164.5,147h50.3c5.3,0,10.3,4.9,9.5,10.6l-3,22.6c-0.8,5.8-4.3,10.6-9.5,10.6h-44.4
		c-5.2,0-8.8-4.9-9.5-10.6l-3-22.6C154.2,151.8,159.2,147,164.5,147z"/>
</g>
</svg>
