<?xml version="1.0" encoding="utf-8"?>
<!-- Generator: Adobe Illustrator 19.0.0, SVG Export Plug-In . SVG Version: 6.00 Build 0)  -->
<svg version="1.1" id="Layer_1" xmlns="http://www.w3.org/2000/svg" xmlns:xlink="http://www.w3.org/1999/xlink" x="0px" y="0px"
	 viewBox="0 0 173 154" style="enable-background:new 0 0 173 154;" xml:space="preserve">
<style type="text/css">
	.st0{fill:none;stroke:#414042;stroke-width:1.4998;stroke-linecap:round;stroke-linejoin:round;stroke-miterlimit:2.6131;}
	.st1{fill-rule:evenodd;clip-rule:evenodd;fill:none;stroke:#414042;stroke-width:1.4998;stroke-miterlimit:2.6131;}
	.st2{fill-rule:evenodd;clip-rule:evenodd;fill:#02A658;}
	
		.st3{fill-rule:evenodd;clip-rule:evenodd;fill:none;stroke:#E6E7E8;stroke-width:3.4999;stroke-linecap:round;stroke-linejoin:round;stroke-miterlimit:2.6131;}
	
		.st4{fill-rule:evenodd;clip-rule:evenodd;fill:none;stroke:#000000;stroke-width:1.4998;stroke-linecap:round;stroke-linejoin:round;stroke-miterlimit:2.6131;}
</style>
<g id="ShareDetails">
	<path id="XMLID_13_" class="st0" d="M67,66.3h0.7h57.1c2.6,0,4.7,2.1,4.7,4.7v13.3c0,2.6-2.1,4.7-4.7,4.7H48.6
		c-2.6,0-4.7-2.1-4.7-4.7V71.1c0-2.6,2.1-4.7,4.7-4.7H49"/>
	<path id="XMLID_12_" class="st1" d="M48.6,99.7h76.1c2.6,0,4.7,2.1,4.7,4.7v13.3c0,2.6-2.1,4.7-4.7,4.7H48.6
		c-2.6,0-4.7-2.1-4.7-4.7v-13.3C43.9,101.8,46,99.7,48.6,99.7z"/>
	<path id="XMLID_11_" class="st2" d="M117.3,116.1c2.2,0,4-1.8,4-4c0-2.2-1.8-4-4-4c-2.2,0-4,1.8-4,4
		C113.3,114.3,115.1,116.1,117.3,116.1z"/>
	<path id="XMLID_10_" class="st2" d="M117.3,81.7c2.2,0,4-1.8,4-4c0-2.2-1.8-4-4-4c-2.2,0-4,1.8-4,4
		C113.3,79.9,115.1,81.7,117.3,81.7z"/>
	<line id="XMLID_9_" class="st3" x1="64.3" y1="77.5" x2="104.9" y2="77.5"/>
	<line id="XMLID_8_" class="st3" x1="64.3" y1="111.9" x2="104.9" y2="111.9"/>
	<line id="XMLID_7_" class="st4" x1="50.6" y1="77.5" x2="55.4" y2="77.5"/>
	<line id="XMLID_6_" class="st4" x1="50.6" y1="111.9" x2="55.4" y2="111.9"/>
	<path id="XMLID_3_" class="st2" d="M58.1,31.2c-8,0-14.6,6.9-14.6,15.3c0,10.6,14.6,28.7,14.6,28.7s14.6-18.6,14.6-28.7
		C72.6,38.1,66.1,31.2,58.1,31.2L58.1,31.2z M58.1,40.9c2.6,0,4.7,2.1,4.7,4.7s-2.1,4.7-4.7,4.7c-2.6,0-4.7-2.1-4.7-4.7
		S55.5,40.9,58.1,40.9z"/>
</g>
</svg>
