<?xml version="1.0" encoding="utf-8"?>
<!-- Generator: Adobe Illustrator 19.0.0, SVG Export Plug-In . SVG Version: 6.00 Build 0)  -->
<svg version="1.1" id="Shield" xmlns="http://www.w3.org/2000/svg" xmlns:xlink="http://www.w3.org/1999/xlink" x="0px" y="0px"
	 viewBox="0 0 224 289.2" style="enable-background:new 0 0 224 289.2;" xml:space="preserve">
<style type="text/css">
	.st0{fill:#46B976;stroke:#FFFFFF;stroke-width:7.0002;stroke-miterlimit:2.6131;}
	.st1{fill:#46B976;}
	.st2{fill-rule:evenodd;clip-rule:evenodd;fill:none;stroke:#FFFFFF;stroke-width:1.9998;stroke-miterlimit:2.6131;}
	.st3{fill-rule:evenodd;clip-rule:evenodd;fill:#FFFFFF;stroke:#45B976;stroke-width:2;stroke-miterlimit:10;}
</style>
<g id="XMLID_28_">
	<g id="XMLID_42_">
		<path id="XMLID_45_" class="st0" d="M117.7,272.9c-3.5,2.4-4.2,2-7.1,0C34.3,223.8,11.5,157,13.4,82.4
			c0.7-10.6,5.3-12.9,12.3-15.2l73.4-31.5c14.4-6.3,15.2-6.2,31.9,0.4l74.7,32.7c7.1,2.7,8.9,7.3,8.3,19.1
			C216.2,166.7,184.3,228.6,117.7,272.9z"/>
		<path id="XMLID_43_" class="st1" d="M117.7,272.9c-3.5,2.4-4.2,2-7.1,0C34.3,223.8,11.5,157,13.4,82.4
			c0.7-10.6,5.3-12.9,12.3-15.2l73.4-31.5c14.4-6.3,15.2-6.2,31.9,0.4l74.7,32.7c7.1,2.7,8.9,7.3,8.3,19.1
			C216.2,166.7,184.3,228.6,117.7,272.9z"/>
	</g>
	<path id="XMLID_41_" class="st2" d="M116.9,249.9c-2.8,2-3.4,1.6-5.7,0c-61.4-40.2-79.7-94.9-78.2-156.1c0.6-8.7,4.3-10.5,9.9-12.5
		L102,55.5c11.6-5.2,12.2-5.1,25.7,0.3l60.1,26.8c5.7,2.2,7.2,6,6.7,15.7C196.2,162.8,170.5,213.6,116.9,249.9z"/>
	<path id="XMLID_29_" class="st3" d="M149.8,171.7c4.2-8.6,5.9-18.1,5-28.2c-0.1-0.9-0.2-1.7-0.4-2.6c-0.2-1.1-1.3-1.9-2.4-1.7
		c-1.1,0.2-1.9,1.3-1.7,2.4c0.1,0.8,0.3,1.6,0.3,2.3c0.9,9.4-0.6,17.9-4.6,25.9c-0.5,1-0.1,2.3,1,2.8c0.3,0.1,0.6,0.2,0.9,0.2
		C148.7,172.9,149.4,172.4,149.8,171.7L149.8,171.7z M109.5,165.8c6.7-8.6,8.1-19.1,8.1-26.4c0-1.2-0.9-2.1-2.1-2.1
		c-1.2,0-2.1,0.9-2.1,2.1c0,6.6-1.3,16.1-7.2,23.8c-0.7,0.9-0.5,2.2,0.4,3c0.4,0.3,0.8,0.4,1.3,0.4
		C108.4,166.6,109.1,166.4,109.5,165.8L109.5,165.8z M86.8,178.6c6.1-1,11.5-3.2,16-6.4c0.9-0.7,1.2-2,0.5-2.9
		c-0.7-0.9-2-1.2-2.9-0.5c-3.9,2.8-8.7,4.7-14.2,5.7c-1.1,0.2-1.9,1.3-1.7,2.4c0.2,1,1.1,1.8,2.1,1.8
		C86.6,178.7,86.7,178.7,86.8,178.6L86.8,178.6z M151.4,133.6c1.1-0.3,1.8-1.4,1.5-2.6c-2-8.2-6.3-15.7-12.4-21.8
		c-8.5-7.8-19.7-11.7-30.8-10.6c-10.6,1-19.8,6.4-26.2,15.2c-3.3,4.9-5.6,10.1-6.8,15.3c-0.3,1.1,0.4,2.3,1.6,2.5
		c1.1,0.3,2.3-0.4,2.5-1.6c1.1-4.7,3.2-9.4,6.1-13.9c5.6-7.7,13.8-12.5,23.1-13.4c9.9-1,19.9,2.5,27.4,9.4
		c5.5,5.5,9.4,12.3,11.2,19.8c0.2,1,1.1,1.6,2,1.6C151,133.6,151.2,133.6,151.4,133.6L151.4,133.6z M94.1,191.9
		c-0.2,0.1-0.5,0.1-0.7,0.1c-0.9,0-1.7-0.5-2-1.4c-0.7-2.1-0.7-4,0.1-5.7c1.4-2.8,4.7-3.9,6.2-4.4l0.3-0.1
		c20.8-6.9,24.8-32.7,23.9-40.8c-0.4-3.1-2.2-6-4.8-7.3c-1.2-0.7-3-1.2-5-0.2c-3.7,1.8-3.9,4.2-4.2,9.3c-0.1,2-0.2,4.3-0.7,6.8
		c-2.2,12.2-14.8,20.4-25.2,20.4c-1.2,0-2.1-0.9-2.1-2.1c0-1.2,0.9-2.1,2.1-2.1c8.5,0,19.3-6.9,21.1-16.9c0.4-2.3,0.5-4.3,0.6-6.3
		c0.3-5.1,0.5-9.8,6.5-12.8c2.8-1.4,6-1.3,8.9,0.3c3.7,2,6.5,6.2,7,10.6c1.4,11.8-5.2,38.1-26.8,45.3l-0.4,0.1
		c-1.1,0.4-3.1,1-3.7,2.2c-0.3,0.6-0.3,1.4,0.1,2.4C95.7,190.3,95.2,191.5,94.1,191.9L94.1,191.9z M132.6,180
		c-0.3,0.8-1.1,1.4-2,1.4c-0.2,0-0.5,0-0.7-0.1c-8.7-3.3-5.5-12.5-2.4-21.4c2.9-8.2,6.1-17.5,2.7-25.2c-4-9.1-12.8-13.8-21.3-11.4
		c-8.9,2.8-10.6,13.2-10.8,16.3c-0.8,8.3-6.1,17.8-19,19.5c-1.1,0.2-2.2-0.6-2.4-1.8c-0.2-1.2,0.7-2.2,1.8-2.4
		c13.1-1.8,15-12.5,15.3-15.8c0.9-10.1,6.1-17.6,13.8-20c10.7-3,21.5,2.7,26.4,13.8c4,9.2,0.4,19.8-2.6,28.3
		c-3.5,10.1-4.5,14.4-0.1,16.1C132.5,177.7,133,178.9,132.6,180L132.6,180z M145,178.2c-0.4,0.8-1.1,1.2-1.9,1.2
		c-0.3,0-0.6-0.1-0.9-0.2c-3.2-1.5-5.4-3.7-6.4-6.6c-1.7-4.8,0.3-9.2,0.5-9.7c5-10.5,6.1-22.8,2.9-31.3
		c-5.7-14.1-19.7-21.5-33.3-17.7c-2.6,0.8-5,2.1-7.1,3.8c-0.9,0.7-2.2,0.6-3-0.3c-0.7-0.9-0.6-2.2,0.3-3c2.5-2.1,5.4-3.6,8.6-4.6
		c15.8-4.4,31.9,4.1,38.4,20.2c4.4,11.6,1.1,25.9-3,34.6c-0.5,1.1-1.3,3.9-0.4,6.5c0.7,1.8,2.1,3.2,4.2,4.2
		C145,175.9,145.4,177.1,145,178.2L145,178.2z M77.1,149.1c0,0-0.1,0-0.1,0c-1.1,0-2-0.9-2.1-2c0,0,0-0.1,0-0.1c0-1.1,0.9-2.1,2-2.1
		c5.8-0.3,7.5-4,8.7-11.1c0.5-3.1,1.7-7.7,4.4-12.2c0.6-1,1.9-1.3,2.9-0.7c1,0.6,1.3,1.9,0.7,2.9c-2.3,3.9-3.4,8-3.9,10.7
		C88.5,141.3,86.5,148.5,77.1,149.1L77.1,149.1z M145.3,104c-0.4,0.4-1,0.6-1.5,0.6c-0.5,0-1-0.2-1.4-0.6
		c-7.1-6.9-15.5-10.7-25-11.5c-11.3-1.1-22.8,3-31.7,11.4c-0.8,0.8-2.2,0.8-2.9-0.1c-0.8-0.8-0.7-2.2,0.1-2.9
		c9.8-9.2,22.5-13.8,35-12.5c10.4,0.9,19.7,5.1,27.5,12.7C146.1,101.9,146.1,103.2,145.3,104L145.3,104z M99,197.7
		c7.5-1.4,12-6.2,15.4-9.8c1.9-2,3.7-4,5-4c0.7,0,2.2,1.3,3.4,2.4c3.7,3.3,9.8,8.8,19.4,2.8c1-0.6,1.3-1.9,0.7-2.9
		c-0.6-1-1.9-1.3-2.9-0.7c-6.9,4.3-10.7,0.9-14.3-2.4c-2-1.8-3.9-3.5-6.2-3.5c-3.1,0-5.4,2.4-8,5.3c-3.3,3.5-7,7.4-13.1,8.5
		c-1.1,0.2-1.9,1.3-1.7,2.5c0.2,1,1.1,1.7,2.1,1.7C98.8,197.8,98.9,197.7,99,197.7L99,197.7z M111.1,201.3c-0.7,0-1.4-0.3-1.8-1
		c-0.6-1-0.3-2.3,0.7-2.9c0.3-0.2,0.6-0.4,0.9-0.5c5.6-3,11.7-3.5,18.2-1.7c1.1,0.3,1.8,1.5,1.5,2.6c-0.3,1.1-1.5,1.8-2.6,1.5
		c-5.4-1.5-10.4-1.1-15,1.4c-0.2,0.1-0.4,0.2-0.7,0.4C111.9,201.2,111.5,201.3,111.1,201.3z"/>
</g>
</svg>
