<?xml version="1.0" encoding="utf-8"?>
<!-- Generator: Adobe Illustrator 19.0.0, SVG Export Plug-In . SVG Version: 6.00 Build 0)  -->
<svg version="1.1" id="Layer_1" xmlns="http://www.w3.org/2000/svg" xmlns:xlink="http://www.w3.org/1999/xlink" x="0px" y="0px"
	 viewBox="0 0 173 154" style="enable-background:new 0 0 173 154;" xml:space="preserve">
<style type="text/css">
	.st0{fill-rule:evenodd;clip-rule:evenodd;fill:#02A658;}
	.st1{fill-rule:evenodd;clip-rule:evenodd;fill:#FFFFFF;}
	
		.st2{fill-rule:evenodd;clip-rule:evenodd;fill:none;stroke:#414042;stroke-width:1.4995;stroke-linecap:round;stroke-linejoin:round;stroke-miterlimit:500;}
	
		.st3{fill-rule:evenodd;clip-rule:evenodd;fill:none;stroke:#414042;stroke-width:1.366;stroke-linecap:round;stroke-linejoin:round;stroke-miterlimit:500;}
	
		.st4{fill-rule:evenodd;clip-rule:evenodd;fill:none;stroke:#414042;stroke-width:1.4998;stroke-linecap:round;stroke-linejoin:round;stroke-miterlimit:500;}
	.st5{fill-rule:evenodd;clip-rule:evenodd;fill:#46B976;}
</style>
<g id="StartSaving">
	<path id="XMLID_10_" class="st0" d="M97.7,31.9C77.4,35,82,65.4,102.4,62.5c7.7-1.1,14.3-8.4,12.9-17.7
		C114.1,37.1,106.9,30.4,97.7,31.9z"/>
	<path id="XMLID_8_" class="st1" d="M99.1,39.9c-2.8,0.5-3.8,1.7-3.3,5c0.4,2.5,3.3,2.7,5.4,3.3l0,2.8c-2.2,0.4-3.1,0.1-5-0.2
		l-0.5,2.1l2.9,0.7c0.2,2-0.5,1.9,1,2.2c1.8,0.3,1.1-0.5,1.3-2.2c2.9-0.9,4.1-3.4,2.6-6.3c-1.7-2.7-6.2-0.4-4.9-4.7
		c1.8-0.7,3-0.3,4.9-0.1l0.2-2.1l-2.3-0.4c-0.3-2.2,0.6-2.3-1.8-2.3L99.1,39.9z"/>
	<path id="XMLID_7_" class="st2" d="M115.2,61.6c4.3,5,7.4,11,8.7,16.4c3.5,0.9,6.5,0.5,6.5,4.5c0,4.3-2.1,3.6-5.9,4.2
		c-1.5,4.6-4.2,11.2-7.8,14.6l-5.8,19.3c-0.5,1.5-1.8,2.6-3.3,2.6l-4.4,0c-1.6,0-3-1.2-3.4-2.9l-2.2-7.6c-3.1,0.7-5.2,1.1-8.7,1.1
		c-3.9,0-6.2-0.4-9.4-1.2l-2.2,7.7c-0.4,1.7-1.8,2.9-3.4,2.9l-4.4,0c-1.5,0-2.8-1-3.3-2.6l-3.9-13.7c-3.9-2.7-13.1-6.9-16.2-9.9
		c-3.9-3.7-3.9-3-3.9-8.9c0-1.3,0-5,0-7.7c0-2.2,1.5-4.1,3.4-4.1l3.2,0c2.6,0,5.7-5.8,8.1-9.1c2.3-3.2-2.1-7.1-3-9.2
		c-1.1-2.6,0.1-3.2,0.7-3.5c2.2-1.3,8.8-0.7,13,2.6c1.7-1.1,10.5-4.5,12.6-5.1"/>
	<line id="XMLID_6_" class="st3" x1="50.1" y1="123.5" x2="130" y2="123.5"/>
	<path id="XMLID_5_" class="st4" d="M75.8,72.6c8.2-4.2,16.5-4.8,24.7,0"/>
	<path id="XMLID_3_" class="st5" d="M66.7,74.2c0,3-1.5,5.4-3.5,5.4c-1.9,0-3.5-2.4-3.5-5.4c0-3,1.5-5.4,3.5-5.4
		C65.1,68.8,66.7,71.2,66.7,74.2z"/>
</g>
</svg>
