<svg xmlns="http://www.w3.org/2000/svg" viewBox="0 0 228 126" width="228" height="126"><style>tspan { white-space:pre }.shp0 { fill: #e9eaee } .shp1 { fill: none;stroke: #000000;stroke-width: 0.836 } .shp2 { fill: none;stroke: #000000;stroke-width: 3.343 } .shp3 { fill: #d1d3d4;stroke: #000000;stroke-width: 0.418 } .shp4 { fill: #d1d3d4 } .shp5 { fill: #ffffff;stroke: #000000;stroke-width: 0.836 } .shp6 { fill: #414042;stroke: #000000;stroke-width: 0.836 } .shp7 { fill: #eaeaea;stroke: #000000;stroke-width: 0.836 } .shp8 { fill: #46b976 } .shp9 { fill: #000000 } </style><g ><path fill-rule="evenodd" class="shp0" d="M26.41 56.16C28.17 36.09 63.41 45.37 59.07 22.46C54.73 -0.46 84.04 5.65 93.48 7.32C102.91 8.99 118.45 15.68 139.66 5.06C160.87 -5.56 176.24 2.22 181.25 12.59C186.18 22.96 181.5 58.92 156.7 58C131.89 57.08 99.57 76.65 99.57 76.65C99.57 76.65 23.16 101.08 26.41 56.16Z" /><path fill-rule="evenodd" class="shp1" d="M146.17 71.22C163.54 78.16 130.56 89.45 158.87 86.69C175.49 85.1 179.16 89.03 180.25 103.5L180.08 103.33" /><path class="shp2" d="M39.78 103.5L44.95 92.04" /><path class="shp2" d="M186.43 103.5L181.25 92.04" /><path class="shp1" d="M194.69 103L190.85 93.97" /><path class="shp1" d="M19.82 89.03L201.54 88.7L163.29 79.75L52.22 79.41L19.82 89.03Z" /><path class="shp3" d="M19.98 89.2L19.98 93.8L201.79 93.8L201.79 88.87L19.98 89.2Z" /><path fill-rule="evenodd" class="shp4" d="M57.82 44.04C51.13 53.99 55.64 53.99 58.73 58.25C61.82 62.52 50.63 64.28 55.31 68.88C60.07 73.48 67 69.8 66.92 68.71C66.75 67.62 67.67 65.78 61.41 65.11C56.4 64.53 63.49 60.85 64.25 57.75C65.5 51.81 55.98 51.31 57.82 44.04Z" /><path fill-rule="evenodd" class="shp5" d="M60.99 71.89C64.08 71.89 66.67 71.3 66.67 70.63C66.67 69.96 64.08 69.38 60.99 69.38C57.9 69.38 55.31 69.96 55.31 70.63C55.31 71.3 57.9 71.89 60.99 71.89Z" /><path class="shp1" d="M31.51 103L35.35 93.97" /><path fill-rule="evenodd" class="shp6" d="M66.67 71.22L66.67 79.5C66.67 82.34 64.33 84.77 61.41 84.77L60.49 84.77C57.65 84.77 55.23 82.43 55.23 79.5L55.23 71.22C59.49 72.22 63.24 72.22 66.67 71.22Z" /><path fill-rule="evenodd" class="shp6" d="M165.72 71.72L164.63 80.5C164.3 83.18 162.46 85.44 159.7 85.44L158.28 85.44C155.61 85.44 153.69 83.18 153.36 80.5L152.27 71.72C157.11 73.56 161.54 73.48 165.72 71.72Z" /><path fill-rule="evenodd" class="shp5" d="M158.95 72.97C162.88 72.97 166.05 72.39 166.05 71.64C166.05 70.88 162.88 70.3 158.95 70.3C155.03 70.3 151.85 70.88 151.85 71.64C151.94 72.39 155.11 72.97 158.95 72.97Z" /><path fill-rule="evenodd" class="shp5" d="M155.19 43.87C149.76 42.78 148.93 39.44 148.18 32.66C147.68 28.31 143.83 28.81 146.17 19.2C146.76 16.94 145 12.51 144.75 9.58C144.09 2.97 149.26 4.89 151.94 10.25L155.11 16.69C156.61 22.04 159.37 27.23 158.78 33.33C158.45 36.17 158.7 38.68 158.28 41.44C157.95 43.37 156.95 44.2 155.19 43.87Z" /><path fill-rule="evenodd" class="shp7" d="M168.64 52.07C165.38 49.81 184.84 24.21 205.13 24.05C205.72 24.05 207.64 23.88 207.81 24.13C208.06 24.55 206.89 25.13 206.47 25.47C199.45 31.66 201.63 35.59 198.29 36.43L193.36 37.68C191.35 38.18 190.94 40.77 188.93 41.53L186.26 42.03C183.67 42.53 184.09 46.13 176.49 46.29C172.15 48.89 170.23 53.15 168.64 52.07Z" /><path fill-rule="evenodd" class="shp5" d="M75.02 34.33L144.5 34.33C145.92 34.33 147.01 35.51 147.01 36.84L147.01 77.07C147.01 78.49 145.84 79.58 144.5 79.58L75.02 79.58C73.6 79.58 72.51 78.41 72.51 77.07L72.51 36.93C72.51 35.51 73.68 34.33 75.02 34.33Z" /><path fill-rule="evenodd" class="shp8" d="M76.19 37.6L142.83 37.6C143.08 37.6 143.33 37.85 143.33 38.1L143.33 70.38C143.33 70.63 143.08 70.88 142.83 70.88L76.19 70.88C75.94 70.88 75.69 70.63 75.69 70.38L75.69 38.01C75.77 37.76 75.94 37.6 76.19 37.6Z" /><path class="shp1" d="M72.51 73.14L146.92 73.14" /><path fill-rule="evenodd" class="shp7" d="M163.63 52.32C162.54 53.57 158.62 50.73 160.62 47.13C163.46 42.03 158.37 35.59 162.29 28.73C162.71 27.98 163.21 27.23 164.8 26.56C167.55 25.39 179.41 26.22 178.33 32.66C177.91 35.34 173.4 36.43 173.73 37.76C174.82 41.61 169.47 42.87 168.72 45.79C167.97 48.64 165.88 47.38 165.3 49.81C164.96 51.23 164.05 51.81 163.63 52.32Z" /><path fill-rule="evenodd" class="shp7" d="M124.13 24.3C124.21 24.21 124.71 24.55 124.96 24.72C142 33 152.1 45.63 156.11 62.19C147.43 60.93 141.33 55.33 140.08 45.37C136.24 45.37 134.48 44.04 132.39 41.78C130.56 39.77 130.56 37.6 130.97 35.42C125.13 30.99 124.63 30.57 124.13 25.22C124.13 24.97 124.04 24.38 124.13 24.3Z" /><path fill-rule="evenodd" class="shp1" d="M158.28 70.05C158.37 47.13 155.53 25.22 146.59 5.23" /><path fill-rule="evenodd" class="shp1" d="M156.95 70.38C156.95 67.2 156.53 64.19 155.94 61.27" /><path fill-rule="evenodd" class="shp1" d="M160.04 71.3C162.96 48.64 164.3 44.71 172.65 26.64" /><path fill-rule="evenodd" class="shp1" d="M160.79 71.3C162.46 62.77 165.05 56.16 168.72 51.9" /><path fill-rule="evenodd" class="shp5" d="M114.44 63.19L101.41 63.02L99.41 55.41C96.98 55.83 94.23 50.73 97.82 50.64L97.74 46.63C97.74 44.12 97.9 41.86 98.65 40.02C99.99 36.51 100.74 33.67 105.34 33.16C105.59 33.16 106.17 34.5 106.42 34.42C106.84 34.33 106.42 33 106.84 32.91C107.26 32.83 108.09 32.66 108.51 32.66C109.26 32.66 110.01 32.66 110.76 32.83C112.35 33.16 117.19 33.33 115.52 35C115.11 35.42 115.94 35.92 116.28 36.43C118.03 38.77 119.03 42.2 118.61 46.71L118.53 50.06C121.29 49.39 120.28 54.74 117.36 54.99L114.44 63.19Z" /><path fill-rule="evenodd" class="shp9" d="M114.02 60.43C109.68 58.59 107.26 58.51 102.91 60.26L97.99 49.31L97.9 46.71C97.9 44.2 98.07 41.95 98.82 40.11C100.16 36.59 100.91 33.75 105.5 33.25C105.75 33.25 106.34 34.59 106.59 34.5C107.01 34.42 106.59 33.08 107.01 33C107.42 32.91 108.26 32.75 108.68 32.75C109.43 32.75 110.18 32.75 110.93 32.91C112.52 33.25 117.36 33.41 115.69 35.09C115.27 35.51 116.11 36.01 116.44 36.51C118.2 38.85 119.2 42.28 118.78 46.8L118.7 49.72C117.44 52.4 115.44 57.59 114.02 60.43Z" /><path fill-rule="evenodd" class="shp5" d="M98.07 66.95L118.11 66.87C118.28 66.45 118.36 66.37 118.11 65.45C117.86 64.53 116.78 63.19 114.44 62.94L102.58 62.77C100.32 62.85 98.4 64.19 98.15 64.86C97.82 65.53 97.74 66.2 98.07 66.95Z" /><path fill-rule="evenodd" class="shp5" d="M79.36 85.35L81.2 76.24C81.37 74.06 82.37 72.22 85.38 70.97L98.07 66.37L98.32 66.37L118.53 66.45L132.31 72.05C134.82 72.81 136.15 74.15 136.07 76.07L137.15 85.19L79.36 85.35Z" /><path fill-rule="evenodd" class="shp1" d="M86.29 79.41C86.46 76.65 85.63 74.31 83.29 72.47" /><path fill-rule="evenodd" class="shp1" d="M133.81 72.72C131.47 74.56 130.64 76.91 130.81 79.67C130.97 82.43 130.81 84.85 130.81 84.85" /><path fill-rule="evenodd" class="shp7" d="M84.21 83.85L132.56 83.85C137.57 83.85 142.5 88.03 141.75 93.05L138.91 112.53C138.16 117.55 134.82 121.73 129.72 121.73L87.05 121.73C82.03 121.73 78.61 117.55 77.86 112.53L75.02 93.05C74.27 88.03 79.11 83.85 84.21 83.85Z" /><path fill-rule="evenodd" class="shp7" d="M87.38 87.95L129.39 87.95C133.81 87.95 137.99 92.04 137.32 96.81L134.82 115.71C134.15 120.56 131.22 124.58 126.88 124.58L89.8 124.58C85.46 124.58 82.45 120.48 81.87 115.71L79.36 96.81C78.78 91.96 82.95 87.95 87.38 87.95Z" /></g></svg>