<svg viewBox="0 0 16 16" xmlns="http://www.w3.org/2000/svg"><path d="M15.9023435,14.9596613 L11.2544638,10.3117727 C12.1360172,9.2234297 12.6666989,7.83979721 12.6666989,6.33336151 C12.6666989,2.84115844 9.82554578,0 6.33334944,0 C2.84115309,0 0,2.84115851 0,6.33336151 C0,9.82556451 2.84115309,12.666723 6.33334944,12.666723 C7.83978233,12.666723 9.22341212,12.1360403 10.3117531,11.2544853 L14.9596328,15.9023738 C15.0898414,16.0325421 15.3008608,16.0325421 15.4310695,15.9023738 L15.9023435,15.4310583 C16.0325522,15.30089 16.0325522,15.0898295 15.9023435,14.9596613 Z M6.33334944,11.3333838 C3.57618096,11.3333838 1.33333672,9.09053524 1.33333672,6.33336151 C1.33333672,3.57618778 3.57618096,1.33333927 6.33334944,1.33333927 C9.09051791,1.33333927 11.3333622,3.57618778 11.3333622,6.33336151 C11.3333622,9.09053524 9.09051791,11.3333838 6.33334944,11.3333838 Z" fill="#606569"></path></svg>